<svg width="800" height="147" viewBox="0 0 800 147" fill="none" xmlns="http://www.w3.org/2000/svg">
<path d="M16.8037 143.865L15.9391 145.669L15.9538 145.676L15.9687 145.683L16.8037 143.865ZM7.40137 135.679L5.70679 136.741L5.71609 136.756L5.72564 136.77L7.40137 135.679ZM2.53809 122.548L0.572338 122.916L0.573048 122.92L2.53809 122.548ZM1.0791 92.1523V90.1523H-0.920898V92.1523H1.0791ZM21.667 92.1523H23.667V90.1523H21.667V92.1523ZM37.1484 126.276L38.4999 127.751L38.5026 127.748L37.1484 126.276ZM39.8232 120.44L37.8549 120.086L37.852 120.102L37.8494 120.118L39.8232 120.44ZM37.1484 95.2324L35.3596 96.1268L35.3639 96.1355L35.3684 96.1442L37.1484 95.2324ZM27.0166 81.4531L28.4633 80.0722L28.4577 80.0663L28.4521 80.0605L27.0166 81.4531ZM16.4795 70.5918L15.0398 71.9801L15.044 71.9844L16.4795 70.5918ZM8.53613 60.9463L6.88423 62.0738L6.89029 62.0827L6.89645 62.0915L8.53613 60.9463ZM2.94336 49.5986L1.03879 50.2091L1.04352 50.2238L1.04847 50.2385L2.94336 49.5986ZM12.9941 4.69434L14.0293 6.40558L14.037 6.40093L14.0447 6.39621L12.9941 4.69434ZM45.0918 3.31641L44.2186 5.11572L44.2344 5.12339L44.2503 5.13078L45.0918 3.31641ZM53.7646 11.0166L52.0521 12.0496L52.0617 12.0656L52.0717 12.0815L53.7646 11.0166ZM58.2227 23.3369L56.2535 23.687L56.2542 23.6908L58.2227 23.3369ZM59.5195 48.707V50.707H61.5195V48.707H59.5195ZM39.499 48.707H37.499V50.707H39.499V48.707ZM38.7695 27.7139L36.7919 28.0124L36.7947 28.0306L36.7978 28.0487L38.7695 27.7139ZM36.2568 21.3105L34.7343 22.6075L34.7465 22.6217L34.7588 22.6357L36.2568 21.3105ZM25.3145 20.6621L26.4529 22.3065L26.4739 22.292L26.4945 22.2769L25.3145 20.6621ZM22.2344 25.2822L20.3228 24.6941L20.3179 24.71L20.3132 24.7261L22.2344 25.2822ZM31.7988 53.9756L33.2681 52.6186L33.2599 52.6098L31.7988 53.9756ZM43.5518 66.7012L42.0825 68.0581L42.0862 68.0621L43.5518 66.7012ZM58.6279 129.032L60.534 129.638L60.5356 129.633L58.6279 129.032ZM31.7178 144.621C25.9663 144.621 21.3006 143.73 17.6387 142.048L15.9687 145.683C20.3042 147.675 25.5812 148.621 31.7178 148.621V144.621ZM17.6684 142.062C14.0445 140.324 11.1949 137.837 9.07709 134.587L5.72564 136.77C8.25501 140.653 11.6736 143.624 15.9391 145.669L17.6684 142.062ZM9.09594 134.616C6.98462 131.248 5.43941 127.117 4.50312 122.176L0.573048 122.92C1.58207 128.246 3.27905 132.868 5.70679 136.741L9.09594 134.616ZM4.50383 122.179C3.55876 117.139 3.0791 111.376 3.0791 104.878H-0.920898C-0.920898 111.565 -0.427901 117.582 0.572341 122.916L4.50383 122.179ZM3.0791 104.878V92.1523H-0.920898V104.878H3.0791ZM1.0791 94.1523H21.667V90.1523H1.0791V94.1523ZM19.667 92.1523V106.499H23.667V92.1523H19.667ZM19.667 106.499C19.667 114.203 20.307 120.036 21.7472 123.756L25.4774 122.312C24.3239 119.332 23.667 114.142 23.667 106.499H19.667ZM21.7472 123.756C22.52 125.753 23.7253 127.374 25.4169 128.478C27.0985 129.576 29.1036 130.06 31.3125 130.06V126.06C29.6848 126.06 28.4883 125.706 27.6031 125.128C26.728 124.557 26.0015 123.666 25.4774 122.312L21.7472 123.756ZM31.3125 130.06C34.1735 130.06 36.6923 129.408 38.4999 127.751L35.797 124.802C35.0108 125.523 33.639 126.06 31.3125 126.06V130.06ZM38.5026 127.748C40.3045 126.09 41.3248 123.655 41.7971 120.763L37.8494 120.118C37.4571 122.521 36.6942 123.977 35.7943 124.805L38.5026 127.748ZM41.7916 120.795C42.3074 117.929 42.5527 114.286 42.5527 109.903H38.5527C38.5527 114.167 38.3118 117.548 37.8549 120.086L41.7916 120.795ZM42.5527 109.903C42.5527 104.261 41.3532 99.0546 38.9285 94.3207L35.3684 96.1442C37.4827 100.272 38.5527 104.847 38.5527 109.903H42.5527ZM38.9373 94.338C36.609 89.6813 33.0979 84.9275 28.4633 80.0722L25.5699 82.8341C30.0134 87.4892 33.2569 91.9216 35.3596 96.1268L38.9373 94.338ZM28.4521 80.0605L17.915 69.1992L15.044 71.9844L25.5811 82.8457L28.4521 80.0605ZM17.9192 69.2035C15.0733 66.2522 12.4925 63.1182 10.1758 59.8011L6.89645 62.0915C9.33497 65.583 12.0498 68.8793 15.0398 71.9801L17.9192 69.2035ZM10.188 59.8188C7.97384 56.5748 6.18864 52.958 4.83825 48.9588L1.04847 50.2385C2.50798 54.5609 4.45129 58.5092 6.88423 62.0738L10.188 59.8188ZM4.84792 48.9882C3.57005 45.0012 2.91699 40.5102 2.91699 35.4951H-1.08301C-1.08301 40.8551 -0.385153 45.7664 1.03879 50.2091L4.84792 48.9882ZM2.91699 35.4951C2.91699 28.1343 3.8189 22.0257 5.55811 17.115L1.7876 15.7796C-0.147678 21.2439 -1.08301 27.8338 -1.08301 35.4951H2.91699ZM5.55811 17.115C7.25362 12.3276 10.0788 8.7954 14.0293 6.40558L11.9589 2.98309C7.15555 5.88884 3.76656 10.1919 1.7876 15.7796L5.55811 17.115ZM14.0447 6.39621C17.9888 3.96156 23.5731 2.6416 30.9883 2.6416V-1.3584C23.1652 -1.3584 16.7534 0.023468 11.9436 2.99246L14.0447 6.39621ZM30.9883 2.6416C36.5277 2.6416 40.903 3.50669 44.2186 5.11572L45.965 1.51709C41.9316 -0.440289 36.9046 -1.3584 30.9883 -1.3584V2.6416ZM44.2503 5.13078C47.63 6.69818 50.2119 8.99882 52.0521 12.0496L55.4772 9.98362C53.2106 6.22579 50.0106 3.39297 45.9332 1.50203L44.2503 5.13078ZM52.0717 12.0815C54.0124 15.1667 55.4233 19.0168 56.2535 23.687L60.1918 22.9868C59.2929 17.9305 57.7317 13.567 55.4576 9.9517L52.0717 12.0815ZM56.2542 23.6908C57.093 28.3568 57.5195 33.7463 57.5195 39.8721H61.5195C61.5195 33.5695 61.0814 27.9355 60.1911 22.983L56.2542 23.6908ZM57.5195 39.8721V48.707H61.5195V39.8721H57.5195ZM59.5195 46.707H39.499V50.707H59.5195V46.707ZM41.499 48.707V38.4941H37.499V48.707H41.499ZM41.499 38.4941C41.499 34.1076 41.2531 30.3929 40.7413 27.379L36.7978 28.0487C37.2586 30.7627 37.499 34.2348 37.499 38.4941H41.499ZM40.7471 27.4154C40.2862 24.362 39.3569 21.7964 37.7548 19.9854L34.7588 22.6357C35.6424 23.6345 36.3882 25.3379 36.7919 28.0124L40.7471 27.4154ZM37.7793 20.0136C36.0672 18.0038 33.6365 17.1221 30.8262 17.1221V21.1221C32.771 21.1221 33.9608 21.6994 34.7343 22.6075L37.7793 20.0136ZM30.8262 17.1221C28.2612 17.1221 25.973 17.7038 24.1344 19.0473L26.4945 22.2769C27.4658 21.5671 28.8521 21.1221 30.8262 21.1221V17.1221ZM24.176 19.0177C22.3069 20.3118 21.0645 22.2836 20.3228 24.6941L24.1459 25.8704C24.7011 24.066 25.5121 22.9578 26.4529 22.3065L24.176 19.0177ZM20.3132 24.7261C19.6463 27.0301 19.3428 29.9123 19.3428 33.3066H23.3428C23.3428 30.1085 23.6336 27.6411 24.1555 25.8383L20.3132 24.7261ZM19.3428 33.3066C19.3428 36.4402 19.7406 39.2411 20.5898 41.6675L24.3653 40.3461C23.7015 38.4496 23.3428 36.1171 23.3428 33.3066H19.3428ZM20.5898 41.6675C21.4262 44.0572 22.7012 46.3286 24.3888 48.4818L27.537 46.0143C26.0905 44.1688 25.0419 42.2794 24.3653 40.3461L20.5898 41.6675ZM24.3888 48.4818C26.0012 50.5391 27.987 52.8265 30.3378 55.3414L33.2599 52.6098C30.9636 50.1533 29.0587 47.9557 27.537 46.0143L24.3888 48.4818ZM30.3296 55.3325L42.0825 68.0581L45.021 65.3442L33.2681 52.6186L30.3296 55.3325ZM42.0862 68.0621C47.5877 73.9868 51.8431 80.1178 54.8791 86.4514L58.4861 84.7224C55.2539 77.9792 50.7554 71.5197 45.0173 65.3403L42.0862 68.0621ZM54.8791 86.4514C57.8702 92.6914 59.3838 99.6861 59.3838 107.472H63.3838C63.3838 99.1544 61.7633 91.5592 58.4861 84.7224L54.8791 86.4514ZM59.3838 107.472C59.3838 115.88 58.4774 122.85 56.7202 128.432L60.5356 129.633C62.4529 123.543 63.3838 116.139 63.3838 107.472H59.3838ZM56.7218 128.427C54.9972 133.854 52.1555 137.833 48.2546 140.515L50.5208 143.811C55.2657 140.549 58.5841 135.774 60.534 129.638L56.7218 128.427ZM48.2546 140.515C44.3785 143.18 38.9341 144.621 31.7178 144.621V148.621C39.4156 148.621 45.751 147.09 50.5208 143.811L48.2546 140.515ZM100.76 145H98.7602V147H100.76V145ZM100.76 21.1484H102.76V19.1484H100.76V21.1484ZM84.0629 21.1484H82.0629V23.1484H84.0629V21.1484ZM84.0629 2.34375V0.34375H82.0629V2.34375H84.0629ZM138.451 2.34375H140.451V0.34375H138.451V2.34375ZM138.451 21.1484V23.1484H140.451V21.1484H138.451ZM122.402 21.1484V19.1484H120.402V21.1484H122.402ZM122.402 145V147H124.402V145H122.402ZM102.76 145V21.1484H98.7602V145H102.76ZM100.76 19.1484H84.0629V23.1484H100.76V19.1484ZM86.0629 21.1484V2.34375H82.0629V21.1484H86.0629ZM84.0629 4.34375H138.451V0.34375H84.0629V4.34375ZM136.451 2.34375V21.1484H140.451V2.34375H136.451ZM138.451 19.1484H122.402V23.1484H138.451V19.1484ZM120.402 21.1484V145H124.402V21.1484H120.402ZM122.402 143H100.76V147H122.402V143ZM154.807 145L152.827 144.718L152.502 147H154.807V145ZM175.152 2.34375V0.34375H173.417L173.172 2.06138L175.152 2.34375ZM203.846 2.34375L205.823 2.04377L205.565 0.34375H203.846V2.34375ZM225.487 145V147H227.813L227.464 144.7L225.487 145ZM205.223 145L203.241 145.265L203.473 147H205.223V145ZM201.819 119.549L203.801 119.284L203.569 117.549H201.819V119.549ZM178.8 119.549V117.549H177.027L176.814 119.309L178.8 119.549ZM175.72 145V147H177.492L177.705 145.24L175.72 145ZM180.907 102.122L178.922 101.88L178.648 104.122H180.907V102.122ZM199.55 102.122V104.122H201.834L201.532 101.857L199.55 102.122ZM189.985 30.4697L191.968 30.2051L191.736 28.4697H189.985V30.4697ZM189.661 30.4697V28.4697H187.89L187.676 30.2272L189.661 30.4697ZM156.787 145.282L177.132 2.62612L173.172 2.06138L152.827 144.718L156.787 145.282ZM175.152 4.34375H203.846V0.34375H175.152V4.34375ZM201.868 2.64373L223.51 145.3L227.464 144.7L205.823 2.04377L201.868 2.64373ZM225.487 143H205.223V147H225.487V143ZM207.206 144.735L203.801 119.284L199.837 119.814L203.241 145.265L207.206 144.735ZM201.819 117.549H178.8V121.549H201.819V117.549ZM176.814 119.309L173.734 144.76L177.705 145.24L180.785 119.789L176.814 119.309ZM175.72 143H154.807V147H175.72V143ZM180.907 104.122H199.55V100.122H180.907V104.122ZM201.532 101.857L191.968 30.2051L188.003 30.7343L197.567 102.387L201.532 101.857ZM189.985 28.4697H189.661V32.4697H189.985V28.4697ZM187.676 30.2272L178.922 101.88L182.892 102.365L191.646 30.7123L187.676 30.2272ZM261.135 136.327L259.55 137.547L259.555 137.553L261.135 136.327ZM255.056 24.1475L253.114 23.6673L253.112 23.6772L253.11 23.687L255.056 24.1475ZM260.73 11.4219L259.121 10.2338L259.118 10.2381L260.73 11.4219ZM270.78 3.47852L271.577 5.31304L271.587 5.30865L271.597 5.30415L270.78 3.47852ZM300.933 3.55957L300.068 5.363L300.078 5.36784L300.088 5.37257L300.933 3.55957ZM310.011 11.665L308.289 12.6825L308.298 12.6979L308.308 12.7132L310.011 11.665ZM315.685 52.1924V54.1924H317.685V52.1924H315.685ZM295.421 52.1924H293.421V54.1924H295.421V52.1924ZM293.395 23.5801L291.592 24.4455L291.599 24.4601L291.606 24.4745L293.395 23.5801ZM277.508 24.3096L279.297 25.204L279.303 25.1918L277.508 24.3096ZM277.103 122.224L275.205 122.856L275.211 122.872L275.216 122.888L277.103 122.224ZM294.124 122.062L292.288 121.268L292.283 121.28L294.124 122.062ZM296.718 82.9121H298.718V80.9121H296.718V82.9121ZM285.776 82.9121H283.776V84.9121H285.776V82.9121ZM285.776 67.1064V65.1064H283.776V67.1064H285.776ZM315.685 67.1064H317.685V65.1064H315.685V67.1064ZM315.685 145V147H317.685V145H315.685ZM305.958 145L304.012 145.461L304.377 147H305.958V145ZM302.635 130.978L304.581 130.516L300.691 130.508L302.635 130.978ZM295.016 142.406L293.875 140.763L293.864 140.771L295.016 142.406ZM281.885 144.459C273.908 144.459 267.576 141.365 262.715 135.101L259.555 137.553C265.177 144.799 272.679 148.459 281.885 148.459V144.459ZM262.72 135.107C257.887 128.83 255.273 118.357 255.273 103.257H251.273C251.273 118.633 253.9 130.207 259.55 137.547L262.72 135.107ZM255.273 103.257V41.25H251.273V103.257H255.273ZM255.273 41.25C255.273 34.9941 255.856 29.4521 257.002 24.6079L253.11 23.687C251.878 28.8936 251.273 34.7533 251.273 41.25H255.273ZM256.997 24.6276C258.19 19.8049 259.985 15.8146 262.342 12.6057L259.118 10.2381C256.395 13.9458 254.407 18.4393 253.114 23.6673L256.997 24.6276ZM262.339 12.61C264.718 9.38825 267.785 6.95975 271.577 5.31304L269.984 1.64399C265.563 3.56369 261.929 6.43076 259.121 10.2338L262.339 12.61ZM271.597 5.30415C275.385 3.60966 280.036 2.72266 285.613 2.72266V-1.27734C279.627 -1.27734 274.39 -0.32711 269.964 1.65288L271.597 5.30415ZM285.613 2.72266C291.703 2.72266 296.484 3.64465 300.068 5.363L301.797 1.75614C297.492 -0.308067 292.061 -1.27734 285.613 -1.27734V2.72266ZM300.088 5.37257C303.687 7.0484 306.398 9.48189 308.289 12.6825L311.733 10.6476C309.409 6.71538 306.068 3.74522 301.777 1.74657L300.088 5.37257ZM308.308 12.7132C310.3 15.9503 311.714 20.0078 312.493 24.9457L316.444 24.3219C315.603 18.9928 314.045 14.4045 311.714 10.6168L308.308 12.7132ZM312.493 24.9457C313.284 29.9544 313.685 35.6562 313.685 42.0605H317.685C317.685 35.4961 317.275 29.5801 316.444 24.3219L312.493 24.9457ZM313.685 42.0605V52.1924H317.685V42.0605H313.685ZM315.685 50.1924H295.421V54.1924H315.685V50.1924ZM297.421 52.1924V37.2783H293.421V52.1924H297.421ZM297.421 37.2783C297.421 30.8119 296.759 25.8357 295.184 22.6857L291.606 24.4745C292.733 26.7281 293.421 30.8841 293.421 37.2783H297.421ZM295.198 22.7146C294.379 21.0086 293.148 19.6718 291.513 18.7833C289.902 17.908 288.012 17.5273 285.938 17.5273V21.5273C287.538 21.5273 288.728 21.8222 289.603 22.2978C290.454 22.7602 291.114 23.4497 291.592 24.4455L295.198 22.7146ZM285.938 17.5273C283.652 17.5273 281.577 17.9774 279.804 18.9833C278.015 19.9982 276.655 21.5103 275.713 23.4273L279.303 25.1918C279.928 23.9207 280.757 23.0417 281.778 22.4625C282.814 21.8744 284.171 21.5273 285.938 21.5273V17.5273ZM275.719 23.4151C273.922 27.0091 273.157 33.0292 273.157 41.0879H277.157C277.157 33.0437 277.96 27.8782 279.297 25.204L275.719 23.4151ZM273.157 41.0879V102.933H277.157V41.0879H273.157ZM273.157 102.933C273.157 111.924 273.799 118.636 275.205 122.856L279 121.591C277.813 118.03 277.157 111.881 277.157 102.933H273.157ZM275.216 122.888C276.003 125.122 277.263 126.942 279.068 128.186C280.868 129.427 283.039 129.979 285.451 129.979V125.979C283.649 125.979 282.322 125.571 281.338 124.893C280.361 124.219 279.554 123.162 278.989 121.559L275.216 122.888ZM285.451 129.979C287.835 129.979 289.995 129.401 291.827 128.151C293.653 126.905 295.012 125.089 295.965 122.843L292.283 121.28C291.562 122.979 290.637 124.121 289.573 124.847C288.514 125.569 287.174 125.979 285.451 125.979V129.979ZM295.96 122.855C297.864 118.453 298.718 111.449 298.718 102.122H294.718C294.718 111.383 293.843 117.673 292.289 121.268L295.96 122.855ZM298.718 102.122V82.9121H294.718V102.122H298.718ZM296.718 80.9121H285.776V84.9121H296.718V80.9121ZM287.776 82.9121V67.1064H283.776V82.9121H287.776ZM285.776 69.1064H315.685V65.1064H285.776V69.1064ZM313.685 67.1064V145H317.685V67.1064H313.685ZM315.685 143H305.958V147H315.685V143ZM307.904 144.539L304.581 130.516L300.689 131.439L304.012 145.461L307.904 144.539ZM300.691 130.508C299.609 134.984 297.335 138.361 293.875 140.764L296.157 144.049C300.478 141.048 303.284 136.806 304.579 131.448L300.691 130.508ZM293.864 140.771C290.382 143.224 286.411 144.459 281.885 144.459V148.459C287.194 148.459 291.977 146.992 296.167 144.041L293.864 140.771ZM363.815 143.865L362.95 145.669L362.965 145.676L362.98 145.683L363.815 143.865ZM354.413 135.679L352.718 136.741L352.727 136.756L352.737 136.77L354.413 135.679ZM349.549 122.548L347.584 122.916L347.584 122.92L349.549 122.548ZM348.09 92.1523V90.1523H346.09V92.1523H348.09ZM368.678 92.1523H370.678V90.1523H368.678V92.1523ZM384.16 126.276L385.511 127.751L385.514 127.748L384.16 126.276ZM386.835 120.44L384.866 120.086L384.863 120.102L384.861 120.118L386.835 120.44ZM384.16 95.2324L382.371 96.1268L382.375 96.1355L382.38 96.1442L384.16 95.2324ZM374.028 81.4531L375.475 80.0722L375.469 80.0663L375.463 80.0605L374.028 81.4531ZM363.491 70.5918L362.051 71.9801L362.055 71.9844L363.491 70.5918ZM355.547 60.9463L353.896 62.0738L353.902 62.0827L353.908 62.0915L355.547 60.9463ZM349.955 49.5986L348.05 50.2091L348.055 50.2238L348.06 50.2385L349.955 49.5986ZM360.005 4.69434L361.041 6.40558L361.048 6.40093L361.056 6.39621L360.005 4.69434ZM392.103 3.31641L391.23 5.11572L391.246 5.12339L391.262 5.13078L392.103 3.31641ZM400.776 11.0166L399.063 12.0496L399.073 12.0656L399.083 12.0815L400.776 11.0166ZM405.234 23.3369L403.265 23.687L403.266 23.6908L405.234 23.3369ZM406.531 48.707V50.707H408.531V48.707H406.531ZM386.51 48.707H384.51V50.707H386.51V48.707ZM385.781 27.7139L383.803 28.0124L383.806 28.0306L383.809 28.0487L385.781 27.7139ZM383.268 21.3105L381.746 22.6075L381.758 22.6217L381.77 22.6357L383.268 21.3105ZM372.326 20.6621L373.464 22.3065L373.485 22.292L373.506 22.2769L372.326 20.6621ZM369.246 25.2822L367.334 24.6941L367.329 24.71L367.325 24.7261L369.246 25.2822ZM378.81 53.9756L380.279 52.6186L380.271 52.6098L378.81 53.9756ZM390.563 66.7012L389.094 68.0581L389.098 68.0621L390.563 66.7012ZM405.639 129.032L407.545 129.638L407.547 129.633L405.639 129.032ZM378.729 144.621C372.978 144.621 368.312 143.73 364.65 142.048L362.98 145.683C367.316 147.675 372.593 148.621 378.729 148.621V144.621ZM364.68 142.062C361.056 140.324 358.206 137.837 356.088 134.587L352.737 136.77C355.266 140.653 358.685 143.624 362.95 145.669L364.68 142.062ZM356.107 134.616C353.996 131.248 352.451 127.117 351.514 122.176L347.584 122.92C348.593 128.246 350.29 132.868 352.718 136.741L356.107 134.616ZM351.515 122.179C350.57 117.139 350.09 111.376 350.09 104.878H346.09C346.09 111.565 346.583 117.582 347.584 122.916L351.515 122.179ZM350.09 104.878V92.1523H346.09V104.878H350.09ZM348.09 94.1523H368.678V90.1523H348.09V94.1523ZM366.678 92.1523V106.499H370.678V92.1523H366.678ZM366.678 106.499C366.678 114.203 367.318 120.036 368.758 123.756L372.489 122.312C371.335 119.332 370.678 114.142 370.678 106.499H366.678ZM368.758 123.756C369.531 125.753 370.737 127.374 372.428 128.478C374.11 129.576 376.115 130.06 378.324 130.06V126.06C376.696 126.06 375.5 125.706 374.614 125.128C373.739 124.557 373.013 123.666 372.489 122.312L368.758 123.756ZM378.324 130.06C381.185 130.06 383.704 129.408 385.511 127.751L382.808 124.802C382.022 125.523 380.65 126.06 378.324 126.06V130.06ZM385.514 127.748C387.316 126.09 388.336 123.655 388.808 120.763L384.861 120.118C384.468 122.521 383.706 123.977 382.806 124.805L385.514 127.748ZM388.803 120.795C389.319 117.929 389.564 114.286 389.564 109.903H385.564C385.564 114.167 385.323 117.548 384.866 120.086L388.803 120.795ZM389.564 109.903C389.564 104.261 388.365 99.0546 385.94 94.3207L382.38 96.1442C384.494 100.272 385.564 104.847 385.564 109.903H389.564ZM385.949 94.338C383.62 89.6813 380.109 84.9275 375.475 80.0722L372.581 82.8341C377.025 87.4892 380.268 91.9216 382.371 96.1268L385.949 94.338ZM375.463 80.0605L364.926 69.1992L362.055 71.9844L372.592 82.8457L375.463 80.0605ZM364.931 69.2035C362.085 66.2522 359.504 63.1182 357.187 59.8011L353.908 62.0915C356.346 65.583 359.061 68.8793 362.051 71.9801L364.931 69.2035ZM357.199 59.8188C354.985 56.5748 353.2 52.958 351.85 48.9588L348.06 50.2385C349.519 54.5609 351.463 58.5092 353.896 62.0738L357.199 59.8188ZM351.859 48.9882C350.581 45.0012 349.928 40.5102 349.928 35.4951H345.928C345.928 40.8551 346.626 45.7664 348.05 50.2091L351.859 48.9882ZM349.928 35.4951C349.928 28.1343 350.83 22.0257 352.569 17.115L348.799 15.7796C346.864 21.2439 345.928 27.8338 345.928 35.4951H349.928ZM352.569 17.115C354.265 12.3276 357.09 8.7954 361.041 6.40558L358.97 2.98309C354.167 5.88884 350.778 10.1919 348.799 15.7796L352.569 17.115ZM361.056 6.39621C365 3.96156 370.584 2.6416 378 2.6416V-1.3584C370.177 -1.3584 363.765 0.023468 358.955 2.99246L361.056 6.39621ZM378 2.6416C383.539 2.6416 387.914 3.50669 391.23 5.11572L392.976 1.51709C388.943 -0.440289 383.916 -1.3584 378 -1.3584V2.6416ZM391.262 5.13078C394.641 6.69818 397.223 8.99882 399.063 12.0496L402.489 9.98362C400.222 6.22579 397.022 3.39297 392.945 1.50203L391.262 5.13078ZM399.083 12.0815C401.024 15.1667 402.435 19.0168 403.265 23.687L407.203 22.9868C406.304 17.9305 404.743 13.567 402.469 9.9517L399.083 12.0815ZM403.266 23.6908C404.104 28.3568 404.531 33.7463 404.531 39.8721H408.531C408.531 33.5695 408.093 27.9355 407.202 22.983L403.266 23.6908ZM404.531 39.8721V48.707H408.531V39.8721H404.531ZM406.531 46.707H386.51V50.707H406.531V46.707ZM388.51 48.707V38.4941H384.51V48.707H388.51ZM388.51 38.4941C388.51 34.1076 388.264 30.3929 387.753 27.379L383.809 28.0487C384.27 30.7627 384.51 34.2348 384.51 38.4941H388.51ZM387.758 27.4154C387.298 24.362 386.368 21.7964 384.766 19.9854L381.77 22.6357C382.654 23.6345 383.4 25.3379 383.803 28.0124L387.758 27.4154ZM384.791 20.0136C383.079 18.0038 380.648 17.1221 377.837 17.1221V21.1221C379.782 21.1221 380.972 21.6994 381.746 22.6075L384.791 20.0136ZM377.837 17.1221C375.272 17.1221 372.984 17.7038 371.146 19.0473L373.506 22.2769C374.477 21.5671 375.863 21.1221 377.837 21.1221V17.1221ZM371.187 19.0177C369.318 20.3118 368.076 22.2836 367.334 24.6941L371.157 25.8704C371.712 24.066 372.523 22.9578 373.464 22.3065L371.187 19.0177ZM367.325 24.7261C366.658 27.0301 366.354 29.9123 366.354 33.3066H370.354C370.354 30.1085 370.645 27.6411 371.167 25.8383L367.325 24.7261ZM366.354 33.3066C366.354 36.4402 366.752 39.2411 367.601 41.6675L371.377 40.3461C370.713 38.4496 370.354 36.1171 370.354 33.3066H366.354ZM367.601 41.6675C368.438 44.0572 369.712 46.3286 371.4 48.4818L374.548 46.0143C373.102 44.1688 372.053 42.2794 371.377 40.3461L367.601 41.6675ZM371.4 48.4818C373.013 50.5391 374.998 52.8265 377.349 55.3414L380.271 52.6098C377.975 50.1533 376.07 47.9557 374.548 46.0143L371.4 48.4818ZM377.341 55.3325L389.094 68.0581L392.032 65.3442L380.279 52.6186L377.341 55.3325ZM389.098 68.0621C394.599 73.9868 398.854 80.1178 401.89 86.4514L405.497 84.7224C402.265 77.9792 397.767 71.5197 392.029 65.3403L389.098 68.0621ZM401.89 86.4514C404.882 92.6914 406.395 99.6861 406.395 107.472H410.395C410.395 99.1544 408.775 91.5592 405.497 84.7224L401.89 86.4514ZM406.395 107.472C406.395 115.88 405.489 122.85 403.732 128.432L407.547 129.633C409.464 123.543 410.395 116.139 410.395 107.472H406.395ZM403.733 128.427C402.009 133.854 399.167 137.833 395.266 140.515L397.532 143.811C402.277 140.549 405.595 135.774 407.545 129.638L403.733 128.427ZM395.266 140.515C391.39 143.18 385.945 144.621 378.729 144.621V148.621C386.427 148.621 392.762 147.09 397.532 143.811L395.266 140.515ZM486.743 145H484.743V147H486.743V145ZM486.743 2.34375V0.34375H484.743V2.34375H486.743ZM508.465 2.34375H510.465V0.34375H508.465V2.34375ZM508.465 126.52H506.465V128.52H508.465V126.52ZM535.943 126.52H537.943V124.52H535.943V126.52ZM535.943 145V147H537.943V145H535.943ZM488.743 145V2.34375H484.743V145H488.743ZM486.743 4.34375H508.465V0.34375H486.743V4.34375ZM506.465 2.34375V126.52H510.465V2.34375H506.465ZM508.465 128.52H535.943V124.52H508.465V128.52ZM533.943 126.52V145H537.943V126.52H533.943ZM535.943 143H486.743V147H535.943V143ZM564.296 145H562.296V147H564.296V145ZM564.296 2.34375V0.34375H562.296V2.34375H564.296ZM612.118 2.34375H614.118V0.34375H612.118V2.34375ZM612.118 21.0674V23.0674H614.118V21.0674H612.118ZM586.018 21.0674V19.0674H584.018V21.0674H586.018ZM586.018 62.5674H584.018V64.5674H586.018V62.5674ZM610.821 62.5674H612.821V60.5674H610.821V62.5674ZM610.821 80.8857V82.8857H612.821V80.8857H610.821ZM586.018 80.8857V78.8857H584.018V80.8857H586.018ZM586.018 126.276H584.018V128.276H586.018V126.276ZM613.091 126.276H615.091V124.276H613.091V126.276ZM613.091 145V147H615.091V145H613.091ZM566.296 145V2.34375H562.296V145H566.296ZM564.296 4.34375H612.118V0.34375H564.296V4.34375ZM610.118 2.34375V21.0674H614.118V2.34375H610.118ZM612.118 19.0674H586.018V23.0674H612.118V19.0674ZM584.018 21.0674V62.5674H588.018V21.0674H584.018ZM586.018 64.5674H610.821V60.5674H586.018V64.5674ZM608.821 62.5674V80.8857H612.821V62.5674H608.821ZM610.821 78.8857H586.018V82.8857H610.821V78.8857ZM584.018 80.8857V126.276H588.018V80.8857H584.018ZM586.018 128.276H613.091V124.276H586.018V128.276ZM611.091 126.276V145H615.091V126.276H611.091ZM613.091 143H564.296V147H613.091V143ZM637.31 145L635.33 144.718L635.004 147H637.31V145ZM657.654 2.34375V0.34375H655.919L655.674 2.06138L657.654 2.34375ZM686.348 2.34375L688.325 2.04377L688.067 0.34375H686.348V2.34375ZM707.989 145V147H710.316L709.967 144.7L707.989 145ZM687.726 145L685.743 145.265L685.975 147H687.726V145ZM684.321 119.549L686.304 119.284L686.072 117.549H684.321V119.549ZM661.302 119.549V117.549H659.529L659.316 119.309L661.302 119.549ZM658.222 145V147H659.994L660.207 145.24L658.222 145ZM663.409 102.122L661.424 101.88L661.15 104.122H663.409V102.122ZM682.052 102.122V104.122H684.337L684.034 101.857L682.052 102.122ZM672.487 30.4697L674.47 30.2051L674.238 28.4697H672.487V30.4697ZM672.163 30.4697V28.4697H670.393L670.178 30.2272L672.163 30.4697ZM639.29 145.282L659.634 2.62612L655.674 2.06138L635.33 144.718L639.29 145.282ZM657.654 4.34375H686.348V0.34375H657.654V4.34375ZM684.37 2.64373L706.012 145.3L709.967 144.7L688.325 2.04377L684.37 2.64373ZM707.989 143H687.726V147H707.989V143ZM689.708 144.735L686.304 119.284L682.339 119.814L685.743 145.265L689.708 144.735ZM684.321 117.549H661.302V121.549H684.321V117.549ZM659.316 119.309L656.236 144.76L660.207 145.24L663.287 119.789L659.316 119.309ZM658.222 143H637.31V147H658.222V143ZM663.409 104.122H682.052V100.122H663.409V104.122ZM684.034 101.857L674.47 30.2051L670.505 30.7343L680.07 102.387L684.034 101.857ZM672.487 28.4697H672.163V32.4697H672.487V28.4697ZM670.178 30.2272L661.424 101.88L665.395 102.365L674.148 30.7123L670.178 30.2272ZM737.558 145H735.558V147H737.558V145ZM737.558 2.34375V0.34375H735.558V2.34375H737.558ZM784.408 4.9375L783.566 6.7519L783.576 6.75645L784.408 4.9375ZM797.944 25.2822L795.977 25.6419L795.977 25.6456L797.944 25.2822ZM796.89 69.0518L794.95 68.5667L794.947 68.5782L796.89 69.0518ZM759.281 88.748V86.748H757.281V88.748H759.281ZM759.281 145V147H761.281V145H759.281ZM759.281 70.835H757.281V72.835H759.281V70.835ZM776.951 60.3789L774.971 60.0961L774.969 60.1081L774.968 60.1202L776.951 60.3789ZM777.761 42.5469H779.761L779.761 42.5329L777.761 42.5469ZM775.735 25.0391L773.833 25.6561L773.835 25.6637L775.735 25.0391ZM759.281 19.041V17.041H757.281V19.041H759.281ZM739.558 145V2.34375H735.558V145H739.558ZM737.558 4.34375H770.304V0.34375H737.558V4.34375ZM770.304 4.34375C775.791 4.34375 780.182 5.18224 783.566 6.75188L785.249 3.12312C781.177 1.23442 776.165 0.34375 770.304 0.34375V4.34375ZM783.576 6.75645C787.019 8.3301 789.688 10.6427 791.635 13.7097L795.012 11.5657C792.637 7.82409 789.362 5.00323 785.239 3.11855L783.576 6.75645ZM791.635 13.7097C793.628 16.8472 795.092 20.8048 795.977 25.6419L799.911 24.9226C798.958 19.7089 797.343 15.2368 795.012 11.5657L791.635 13.7097ZM795.977 25.6456C796.868 30.4682 797.322 36.097 797.322 42.5469H801.322C801.322 35.9199 800.857 30.0389 799.911 24.9188L795.977 25.6456ZM797.322 42.5469V45.5459H801.322V42.5469H797.322ZM797.322 45.5459C797.322 54.6248 796.52 62.2876 794.95 68.5667L798.831 69.5368C800.503 62.8472 801.322 54.8394 801.322 45.5459H797.322ZM794.947 68.5782C793.457 74.6925 790.808 79.1602 787.115 82.1729L789.644 85.2724C794.164 81.5845 797.189 76.2717 798.833 69.5253L794.947 68.5782ZM787.115 82.1729C783.486 85.1335 778.215 86.748 771.034 86.748V90.748C778.767 90.748 785.059 89.0123 789.644 85.2724L787.115 82.1729ZM771.034 86.748H759.281V90.748H771.034V86.748ZM757.281 88.748V145H761.281V88.748H757.281ZM759.281 143H737.558V147H759.281V143ZM759.281 72.835H766.738V68.835H759.281V72.835ZM766.738 72.835C770.24 72.835 773.231 71.9425 775.309 69.7934L772.433 67.0133C771.376 68.1064 769.612 68.835 766.738 68.835V72.835ZM775.309 69.7934C777.315 67.7177 778.426 64.5335 778.934 60.6376L774.968 60.1202C774.503 63.6813 773.56 65.8467 772.433 67.0133L775.309 69.7934ZM778.931 60.6618C779.49 56.7454 779.761 51.6139 779.761 45.3027H775.761C775.761 51.528 775.492 56.4473 774.971 60.0961L778.931 60.6618ZM779.761 45.3027V42.5469H775.761V45.3027H779.761ZM779.761 42.5329C779.707 34.7443 779.03 28.6588 777.635 24.4144L773.835 25.6637C775.033 29.3087 775.708 34.895 775.761 42.5609L779.761 42.5329ZM777.637 24.4221C776.878 22.0793 775.581 20.1784 773.677 18.8858C771.789 17.604 769.482 17.041 766.9 17.041V21.041C768.911 21.041 770.373 21.4777 771.43 22.1952C772.471 22.902 773.295 24.0001 773.833 25.6561L777.637 24.4221ZM766.9 17.041H759.281V21.041H766.9V17.041ZM757.281 19.041V70.835H761.281V19.041H757.281Z" fill="#F4BD03"/>
</svg>
