<svg width="991" height="166" viewBox="0 0 991 166" fill="none" xmlns="http://www.w3.org/2000/svg">
<path d="M19.6053 164H17.6053V166H19.6053V164ZM19.6053 23.4956H21.6053V21.4956H19.6053V23.4956ZM0.662969 23.4956H-1.33703V25.4956H0.662969V23.4956ZM0.662969 2.16249V0.162495H-1.33703V2.16249H0.662969ZM62.3635 2.16249H64.3635V0.162495H62.3635V2.16249ZM62.3635 23.4956V25.4956H64.3635V23.4956H62.3635ZM44.1568 23.4956V21.4956H42.1568V23.4956H44.1568ZM44.1568 164V166H46.1568V164H44.1568ZM21.6053 164V23.4956H17.6053V164H21.6053ZM19.6053 21.4956H0.662969V25.4956H19.6053V21.4956ZM2.66297 23.4956V2.16249H-1.33703V23.4956H2.66297ZM0.662969 4.16249H62.3635V0.162495H0.662969V4.16249ZM60.3635 2.16249V23.4956H64.3635V2.16249H60.3635ZM62.3635 21.4956H44.1568V25.4956H62.3635V21.4956ZM42.1568 23.4956V164H46.1568V23.4956H42.1568ZM44.1568 162H19.6053V166H44.1568V162ZM80.9197 164L78.9397 163.718L78.6142 166H80.9197V164ZM104 2.16249V0.162495H102.265L102.02 1.88012L104 2.16249ZM136.551 2.16249L138.529 1.86252L138.271 0.162495H136.551V2.16249ZM161.103 164V166H163.429L163.08 163.7L161.103 164ZM138.115 164L136.132 164.265L136.364 166H138.115V164ZM134.252 135.127L136.235 134.862L136.003 133.127H134.252V135.127ZM108.138 135.127V133.127H106.365L106.152 134.886L108.138 135.127ZM104.644 164V166H106.416L106.629 164.24L104.644 164ZM110.529 115.357L108.543 115.114L108.269 117.357H110.529V115.357ZM131.678 115.357V117.357H133.962L133.66 115.092L131.678 115.357ZM120.827 34.0702L122.81 33.8056L122.578 32.0702H120.827V34.0702ZM120.46 34.0702V32.0702H118.689L118.474 33.8277L120.46 34.0702ZM82.8996 164.282L105.98 2.44486L102.02 1.88012L78.9397 163.718L82.8996 164.282ZM104 4.16249H136.551V0.162495H104V4.16249ZM134.574 2.46247L159.125 164.3L163.08 163.7L138.529 1.86252L134.574 2.46247ZM161.103 162H138.115V166H161.103V162ZM140.097 163.735L136.235 134.862L132.27 135.392L136.132 164.265L140.097 163.735ZM134.252 133.127H108.138V137.127H134.252V133.127ZM106.152 134.886L102.658 163.76L106.629 164.24L110.123 135.367L106.152 134.886ZM104.644 162H80.9197V166H104.644V162ZM110.529 117.357H131.678V113.357H110.529V117.357ZM133.66 115.092L122.81 33.8056L118.845 34.3349L129.695 115.621L133.66 115.092ZM120.827 32.0702H120.46V36.0702H120.827V32.0702ZM118.474 33.8277L108.543 115.114L112.514 115.599L122.445 34.3128L118.474 33.8277ZM194.647 164H192.647V166H194.647V164ZM194.647 2.16249V0.162495H192.647V2.16249H194.647ZM219.291 2.16249H221.291V0.162495H219.291V2.16249ZM219.291 76.6445H217.291L221.189 77.2728L219.291 76.6445ZM243.934 2.16249V0.162495H242.489L242.035 1.53426L243.934 2.16249ZM269.405 2.16249L271.301 2.80019L272.188 0.162495H269.405V2.16249ZM242.555 81.9778L240.659 81.3401L240.439 81.9936L240.669 82.6438L242.555 81.9778ZM271.52 164V166H274.347L273.406 163.334L271.52 164ZM245.497 164L243.606 164.651L244.071 166H245.497V164ZM219.475 88.4145L221.366 87.7635L217.475 88.4145H219.475ZM219.475 164V166H221.475V164H219.475ZM196.647 164V2.16249H192.647V164H196.647ZM194.647 4.16249H219.291V0.162495H194.647V4.16249ZM217.291 2.16249V76.6445H221.291V2.16249H217.291ZM221.189 77.2728L245.833 2.79073L242.035 1.53426L217.392 76.0163L221.189 77.2728ZM243.934 4.16249H269.405V0.162495H243.934V4.16249ZM267.51 1.5248L240.659 81.3401L244.45 82.6155L271.301 2.80019L267.51 1.5248ZM240.669 82.6438L269.634 164.666L273.406 163.334L244.441 81.3118L240.669 82.6438ZM271.52 162H245.497V166H271.52V162ZM247.388 163.349L221.366 87.7635L217.584 89.0656L243.606 164.651L247.388 163.349ZM217.475 88.4145V164H221.475V88.4145H217.475ZM219.475 162H194.647V166H219.475V162ZM303.777 164H301.777V166H303.777V164ZM303.777 2.16249V0.162495H301.777V2.16249H303.777ZM358.03 2.16249H360.03V0.162495H358.03V2.16249ZM358.03 23.4037V25.4037H360.03V23.4037H358.03ZM328.421 23.4037V21.4037H326.421V23.4037H328.421ZM328.421 70.4837H326.421V72.4837H328.421V70.4837ZM356.558 70.4837H358.558V68.4837H356.558V70.4837ZM356.558 91.2651V93.2651H358.558V91.2651H356.558ZM328.421 91.2651V89.2651H326.421V91.2651H328.421ZM328.421 142.759H326.421V144.759H328.421V142.759ZM359.133 142.759H361.133V140.759H359.133V142.759ZM359.133 164V166H361.133V164H359.133ZM305.777 164V2.16249H301.777V164H305.777ZM303.777 4.16249H358.03V0.162495H303.777V4.16249ZM356.03 2.16249V23.4037H360.03V2.16249H356.03ZM358.03 21.4037H328.421V25.4037H358.03V21.4037ZM326.421 23.4037V70.4837H330.421V23.4037H326.421ZM328.421 72.4837H356.558V68.4837H328.421V72.4837ZM354.558 70.4837V91.2651H358.558V70.4837H354.558ZM356.558 89.2651H328.421V93.2651H356.558V89.2651ZM326.421 91.2651V142.759H330.421V91.2651H326.421ZM328.421 144.759H359.133V140.759H328.421V144.759ZM357.133 142.759V164H361.133V142.759H357.133ZM359.133 162H303.777V166H359.133V162ZM439.279 164L437.299 163.718L436.974 166H439.279V164ZM462.36 2.16249V0.162495H460.625L460.38 1.88012L462.36 2.16249ZM494.911 2.16249L496.888 1.86252L496.631 0.162495H494.911V2.16249ZM519.463 164V166H521.789L521.44 163.7L519.463 164ZM496.474 164L494.492 164.265L494.724 166H496.474V164ZM492.612 135.127L494.595 134.862L494.363 133.127H492.612V135.127ZM466.498 135.127V133.127H464.725L464.512 134.886L466.498 135.127ZM463.003 164V166H464.776L464.989 164.24L463.003 164ZM468.888 115.357L466.903 115.114L466.629 117.357H468.888V115.357ZM490.038 115.357V117.357H492.322L492.02 115.092L490.038 115.357ZM479.187 34.0702L481.169 33.8056L480.938 32.0702H479.187V34.0702ZM478.819 34.0702V32.0702H477.049L476.834 33.8277L478.819 34.0702ZM441.259 164.282L464.34 2.44486L460.38 1.88012L437.299 163.718L441.259 164.282ZM462.36 4.16249H494.911V0.162495H462.36V4.16249ZM492.934 2.46247L517.485 164.3L521.44 163.7L496.888 1.86252L492.934 2.46247ZM519.463 162H496.474V166H519.463V162ZM498.457 163.735L494.595 134.862L490.63 135.392L494.492 164.265L498.457 163.735ZM492.612 133.127H466.498V137.127H492.612V133.127ZM464.512 134.886L461.018 163.76L464.989 164.24L468.483 135.367L464.512 134.886ZM463.003 162H439.279V166H463.003V162ZM468.888 117.357H490.038V113.357H468.888V117.357ZM492.02 115.092L481.169 33.8056L477.205 34.3349L488.055 115.621L492.02 115.092ZM479.187 32.0702H478.819V36.0702H479.187V32.0702ZM476.834 33.8277L466.903 115.114L470.874 115.599L480.804 34.3128L476.834 33.8277ZM605.678 164H603.678V166H605.678V164ZM605.678 2.16249V0.162495H603.678V2.16249H605.678ZM630.321 2.16249H632.321V0.162495H630.321V2.16249ZM630.321 143.035H628.321V145.035H630.321V143.035ZM661.493 143.035H663.493V141.035H661.493V143.035ZM661.493 164V166H663.493V164H661.493ZM607.678 164V2.16249H603.678V164H607.678ZM605.678 4.16249H630.321V0.162495H605.678V4.16249ZM628.321 2.16249V143.035H632.321V2.16249H628.321ZM630.321 145.035H661.493V141.035H630.321V145.035ZM659.493 143.035V164H663.493V143.035H659.493ZM661.493 162H605.678V166H661.493V162ZM705.245 160.506L704.126 162.164L704.135 162.17L705.245 160.506ZM693.567 144.69L691.685 145.367L693.567 144.69ZM753.428 12.0934L751.801 13.2559L751.805 13.2621L751.809 13.2682L753.428 12.0934ZM759.405 26.0703L757.453 26.5042L757.455 26.5169L757.458 26.5296L759.405 26.0703ZM757.658 144.69L755.771 144.028L755.768 144.035L755.766 144.042L757.658 144.69ZM735.773 133.38L733.794 133.092L733.792 133.106L733.79 133.12L735.773 133.38ZM734.578 27.3577L732.68 27.9901L732.686 28.0083L732.693 28.0265L734.578 27.3577ZM717.015 27.1737L718.85 27.969L718.854 27.9579L717.015 27.1737ZM715.359 133.564L713.376 133.819L713.378 133.837L713.381 133.855L715.359 133.564ZM718.578 141.839L717.089 143.174L717.101 143.188L717.114 143.202L718.578 141.839ZM725.842 163.839C717.718 163.839 711.271 162.12 706.354 158.842L704.135 162.17C709.885 166.003 717.17 167.839 725.842 167.839V163.839ZM706.363 158.848C701.5 155.568 697.843 150.671 695.449 144.013L691.685 145.367C694.317 152.686 698.445 158.333 704.126 162.164L706.363 158.848ZM695.449 144.013C693.037 137.308 691.797 128.91 691.797 118.759H687.797C687.797 129.206 689.069 138.095 691.685 145.367L695.449 144.013ZM691.797 118.759V44.7368H687.797V118.759H691.797ZM691.797 44.7368C691.797 35.5844 693.002 27.8635 695.35 21.5236L691.599 20.1344C689.043 27.0357 687.797 35.2533 687.797 44.7368H691.797ZM695.35 21.5236C697.671 15.2567 701.316 10.5264 706.262 7.22886L704.043 3.90066C698.323 7.71417 694.182 13.16 691.599 20.1344L695.35 21.5236ZM706.262 7.22886C711.17 3.95659 717.735 2.23148 726.118 2.23148V-1.76852C717.214 -1.76852 709.801 0.0618896 704.043 3.90066L706.262 7.22886ZM726.118 2.23148C732.419 2.23148 737.607 3.21376 741.754 5.08837L743.401 1.44349C738.598 -0.727837 732.813 -1.76852 726.118 -1.76852V2.23148ZM741.754 5.08837C745.919 6.97134 749.254 9.69112 751.801 13.2559L755.056 10.931C752.085 6.77168 748.186 3.60646 743.401 1.44349L741.754 5.08837ZM751.809 13.2682C754.378 16.8072 756.274 21.2009 757.453 26.5042L761.357 25.6364C760.084 19.9053 757.995 14.9812 755.047 10.9186L751.809 13.2682ZM757.458 26.5296C758.703 31.8034 759.336 37.8668 759.336 44.7368H763.336C763.336 37.6299 762.682 31.249 761.352 25.611L757.458 26.5296ZM759.336 44.7368V118.759H763.336V44.7368H759.336ZM759.336 118.759C759.336 128.914 758.125 137.317 755.771 144.028L759.545 145.352C762.095 138.086 763.336 129.202 763.336 118.759H759.336ZM755.766 144.042C753.49 150.695 749.924 155.582 745.128 158.854L747.383 162.158C753.009 158.319 757.044 152.662 759.55 145.337L755.766 144.042ZM745.128 158.854C740.344 162.119 733.969 163.839 725.842 163.839V167.839C734.512 167.839 741.746 166.004 747.383 162.158L745.128 158.854ZM725.842 146.506C729.321 146.506 732.261 145.445 734.275 143.028L731.202 140.467C730.151 141.728 728.493 142.506 725.842 142.506V146.506ZM734.275 143.028C736.152 140.775 737.242 137.557 737.756 133.64L733.79 133.12C733.323 136.681 732.39 139.041 731.202 140.467L734.275 143.028ZM737.752 133.667C738.323 129.737 738.601 124.851 738.601 119.035H734.601C734.601 124.744 734.327 129.421 733.794 133.092L737.752 133.667ZM738.601 119.035V43.6334H734.601V119.035H738.601ZM738.601 43.6334C738.601 36.4996 737.924 30.8074 736.463 26.6888L732.693 28.0265C733.929 31.5093 734.601 36.6676 734.601 43.6334H738.601ZM736.475 26.7252C735.721 24.462 734.462 22.6192 732.627 21.3627C730.804 20.1141 728.587 19.5646 726.118 19.5646V23.5646C728.001 23.5646 729.371 23.9806 730.367 24.663C731.352 25.3375 732.147 26.3913 732.68 27.9901L736.475 26.7252ZM726.118 19.5646C723.604 19.5646 721.341 20.0909 719.437 21.2642C717.519 22.4457 716.11 24.1947 715.175 26.3895L718.854 27.9579C719.513 26.4134 720.418 25.3578 721.535 24.6696C722.665 23.9731 724.157 23.5646 726.118 23.5646V19.5646ZM715.18 26.3785C713.422 30.4348 712.624 36.2191 712.624 43.5414H716.624C716.624 36.3964 717.42 31.269 718.85 27.969L715.18 26.3785ZM712.624 43.5414V119.035H716.624V43.5414H712.624ZM712.624 119.035C712.624 124.965 712.87 129.902 713.376 133.819L717.343 133.308C716.868 129.624 716.624 124.874 716.624 119.035H712.624ZM713.381 133.855C713.959 137.775 715.121 140.98 717.089 143.174L720.067 140.504C718.847 139.143 717.863 136.831 717.338 133.272L713.381 133.855ZM717.114 143.202C719.256 145.503 722.281 146.506 725.842 146.506V142.506C723.027 142.506 721.21 141.731 720.042 140.476L717.114 143.202ZM816.03 160.506L814.911 162.164L814.92 162.17L816.03 160.506ZM804.352 144.69L802.47 145.367L804.352 144.69ZM864.213 12.0934L862.586 13.2559L862.59 13.2621L862.595 13.2682L864.213 12.0934ZM870.19 26.0703L868.238 26.5042L868.241 26.5169L868.244 26.5296L870.19 26.0703ZM868.443 144.69L866.556 144.028L866.553 144.035L866.551 144.042L868.443 144.69ZM846.558 133.38L844.579 133.092L844.577 133.106L844.575 133.12L846.558 133.38ZM845.363 27.3577L843.465 27.9901L843.472 28.0083L843.478 28.0265L845.363 27.3577ZM827.8 27.1737L829.635 27.969L829.64 27.9579L827.8 27.1737ZM826.145 133.564L824.161 133.819L824.163 133.837L824.166 133.855L826.145 133.564ZM829.363 141.839L827.874 143.174L827.886 143.188L827.899 143.202L829.363 141.839ZM836.627 163.839C828.503 163.839 822.056 162.12 817.139 158.842L814.92 162.17C820.67 166.003 827.955 167.839 836.627 167.839V163.839ZM817.148 158.848C812.285 155.568 808.628 150.671 806.234 144.013L802.47 145.367C805.102 152.686 809.231 158.333 814.911 162.164L817.148 158.848ZM806.234 144.013C803.822 137.308 802.582 128.91 802.582 118.759H798.582C798.582 129.206 799.854 138.095 802.47 145.367L806.234 144.013ZM802.582 118.759V44.7368H798.582V118.759H802.582ZM802.582 44.7368C802.582 35.5844 803.787 27.8635 806.135 21.5236L802.384 20.1344C799.828 27.0357 798.582 35.2533 798.582 44.7368H802.582ZM806.135 21.5236C808.456 15.2567 812.101 10.5264 817.047 7.22886L814.828 3.90066C809.108 7.71417 804.967 13.16 802.384 20.1344L806.135 21.5236ZM817.047 7.22886C821.956 3.95659 828.52 2.23148 836.903 2.23148V-1.76852C827.999 -1.76852 820.587 0.0618896 814.828 3.90066L817.047 7.22886ZM836.903 2.23148C843.204 2.23148 848.392 3.21376 852.539 5.08837L854.187 1.44349C849.383 -0.727837 843.598 -1.76852 836.903 -1.76852V2.23148ZM852.539 5.08837C856.704 6.97134 860.039 9.69112 862.586 13.2559L865.841 10.931C862.87 6.77168 858.971 3.60646 854.187 1.44349L852.539 5.08837ZM862.595 13.2682C865.163 16.8072 867.059 21.2009 868.238 26.5042L872.143 25.6364C870.869 19.9053 868.78 14.9812 865.832 10.9186L862.595 13.2682ZM868.244 26.5296C869.488 31.8034 870.121 37.8668 870.121 44.7368H874.121C874.121 37.6299 873.467 31.249 872.137 25.611L868.244 26.5296ZM870.121 44.7368V118.759H874.121V44.7368H870.121ZM870.121 118.759C870.121 128.914 868.91 137.317 866.556 144.028L870.33 145.352C872.88 138.086 874.121 129.202 874.121 118.759H870.121ZM866.551 144.042C864.275 150.695 860.709 155.582 855.914 158.854L858.168 162.158C863.794 158.319 867.83 152.662 870.335 145.337L866.551 144.042ZM855.914 158.854C851.129 162.119 844.754 163.839 836.627 163.839V167.839C845.297 167.839 852.531 166.004 858.168 162.158L855.914 158.854ZM836.627 146.506C840.106 146.506 843.046 145.445 845.06 143.028L841.987 140.467C840.936 141.728 839.279 142.506 836.627 142.506V146.506ZM845.06 143.028C846.937 140.775 848.028 137.557 848.541 133.64L844.575 133.12C844.108 136.681 843.175 139.041 841.987 140.467L845.06 143.028ZM848.537 133.667C849.108 129.737 849.386 124.851 849.386 119.035H845.386C845.386 124.744 845.112 129.421 844.579 133.092L848.537 133.667ZM849.386 119.035V43.6334H845.386V119.035H849.386ZM849.386 43.6334C849.386 36.4996 848.709 30.8074 847.248 26.6888L843.478 28.0265C844.714 31.5093 845.386 36.6676 845.386 43.6334H849.386ZM847.26 26.7252C846.506 24.462 845.247 22.6192 843.412 21.3627C841.589 20.1141 839.373 19.5646 836.903 19.5646V23.5646C838.786 23.5646 840.156 23.9806 841.152 24.663C842.137 25.3375 842.932 26.3913 843.465 27.9901L847.26 26.7252ZM836.903 19.5646C834.389 19.5646 832.126 20.0909 830.222 21.2642C828.304 22.4457 826.895 24.1947 825.96 26.3895L829.64 27.9579C830.298 26.4134 831.203 25.3578 832.32 24.6696C833.451 23.9731 834.942 23.5646 836.903 23.5646V19.5646ZM825.965 26.3785C824.207 30.4348 823.409 36.2191 823.409 43.5414H827.409C827.409 36.3964 828.205 31.269 829.635 27.969L825.965 26.3785ZM823.409 43.5414V119.035H827.409V43.5414H823.409ZM823.409 119.035C823.409 124.965 823.656 129.902 824.161 133.819L828.128 133.308C827.653 129.624 827.409 124.874 827.409 119.035H823.409ZM824.166 133.855C824.744 137.775 825.906 140.98 827.874 143.174L830.852 140.504C829.632 139.143 828.648 136.831 828.123 133.272L824.166 133.855ZM827.899 143.202C830.041 145.503 833.067 146.506 836.627 146.506V142.506C833.813 142.506 831.995 141.731 830.827 140.476L827.899 143.202ZM913.39 164H911.39V166H913.39V164ZM913.39 2.16249V0.162495H911.39V2.16249H913.39ZM938.033 2.16249H940.033V0.162495H938.033V2.16249ZM938.033 76.6445H936.033L939.932 77.2728L938.033 76.6445ZM962.677 2.16249V0.162495H961.232L960.778 1.53426L962.677 2.16249ZM988.148 2.16249L990.043 2.80019L990.931 0.162495H988.148V2.16249ZM961.297 81.9778L959.402 81.3401L959.182 81.9936L959.411 82.6438L961.297 81.9778ZM990.263 164V166H993.09L992.148 163.334L990.263 164ZM964.24 164L962.349 164.651L962.813 166H964.24V164ZM938.217 88.4145L940.108 87.7635L936.217 88.4145H938.217ZM938.217 164V166H940.217V164H938.217ZM915.39 164V2.16249H911.39V164H915.39ZM913.39 4.16249H938.033V0.162495H913.39V4.16249ZM936.033 2.16249V76.6445H940.033V2.16249H936.033ZM939.932 77.2728L964.575 2.79073L960.778 1.53426L936.134 76.0163L939.932 77.2728ZM962.677 4.16249H988.148V0.162495H962.677V4.16249ZM986.252 1.5248L959.402 81.3401L963.193 82.6155L990.043 2.80019L986.252 1.5248ZM959.411 82.6438L988.377 164.666L992.148 163.334L963.183 81.3118L959.411 82.6438ZM990.263 162H964.24V166H990.263V162ZM966.131 163.349L940.108 87.7635L936.326 89.0656L962.349 164.651L966.131 163.349ZM936.217 88.4145V164H940.217V88.4145H936.217ZM938.217 162H913.39V166H938.217V162Z" fill="#F4BD03"/>
</svg>
