<svg width="141" height="70" viewBox="0 0 141 70" fill="none" xmlns="http://www.w3.org/2000/svg">
<path d="M46.2325 44.45C44.2492 47.1333 41.6825 49.9333 38.2992 52.0333C35.0325 54.1333 31.2992 55.7667 26.8658 55.7667C22.7825 55.7667 19.3992 53.6667 17.5325 51.9167C14.7325 49.2333 13.2158 45.3833 12.7492 41.7667C11.4658 30.5667 18.3492 15.8667 28.9658 9.33334C31.4158 7.81667 34.0992 7.11667 36.6658 7.11667C41.7992 7.11667 45.6492 10.7333 46.1158 15.1667C46.5825 19.1333 45.0658 22.5167 40.6325 24.7333C38.4158 25.9 37.2492 25.7833 36.8992 25.3167C36.6658 24.9667 36.7825 24.3833 37.2492 24.0333C41.3325 20.65 41.4492 17.85 40.9825 13.8833C40.6325 11.3167 38.9992 9.68334 37.1325 9.68334C29.0825 9.68334 17.4158 27.7667 19.0492 40.8333C19.6325 45.9667 22.7825 51.9167 29.3158 51.9167C31.4158 51.9167 33.7492 51.3333 35.7325 50.2833C40.2825 47.95 42.2658 46.3167 44.9492 42.5833C45.2992 42.1167 45.6492 41.5333 45.9992 41.0667C46.2325 40.6 46.6992 40.4833 47.0492 40.4833C47.3992 40.4833 47.8658 40.8333 47.8658 41.4167C47.8658 41.7667 47.7492 42.4667 47.2825 43.05C47.0492 43.2833 46.5825 43.9833 46.2325 44.45Z" fill="#24BECA"/>
<path d="M58.483 51.1C56.4997 51.1 55.333 50.05 54.8664 48.4167C53.583 50.1667 51.7164 51.1 49.8497 51.1C46.6997 51.1 43.783 48.4167 43.3164 44.9167C42.6164 38.7333 47.8664 30.8 55.7997 30.8C59.183 30.8 61.983 32.2 62.333 34.8833C62.7997 38.2667 59.883 38.9667 58.833 38.9667C57.8997 38.9667 56.383 38.7333 56.2664 37.8C56.1497 36.8667 58.2497 37.45 58.0164 35.2333C57.8997 33.8333 56.4997 33.3667 55.0997 33.3667C50.1997 33.3667 47.5164 40.1333 48.0997 44.3333C48.333 46.2 49.2664 48.0667 51.0164 48.0667C52.4164 48.0667 54.5164 46.0833 55.2164 43.05C55.683 41.0667 57.6664 39.6667 59.0664 39.6667C59.7664 39.6667 60.3497 40.0167 60.4664 40.7167C60.4664 40.95 60.4664 41.3 60.3497 41.7667C60.233 42.7 59.533 45.5 59.533 46.2C59.533 46.7833 59.883 47.4833 60.8164 47.4833C61.8664 47.4833 66.6497 44.6833 69.333 40.95C69.5664 40.6 70.033 40.3667 70.383 40.3667C70.733 40.3667 71.1997 40.6 71.1997 41.0667C71.3164 41.5333 71.083 42.1167 70.4997 42.9333C67.4664 47.3667 60.8164 51.1 58.483 51.1Z" fill="#24BECA"/>
<path d="M125.332 48.7667C125.565 50.75 126.499 52.0333 127.315 52.7333C127.665 52.9667 127.782 53.3167 127.782 53.55C127.899 54.1333 127.432 54.6 126.732 54.6C126.499 54.6 126.265 54.6 126.032 54.4833C122.532 53.0833 121.132 50.75 120.665 48.5333C119.382 50.1667 117.515 51.2167 115.765 51.2167C112.615 51.2167 109.699 48.5333 109.232 45.0333C108.532 38.9667 114.015 31.0333 121.832 31.0333C125.099 31.0333 128.015 32.3167 128.365 35C128.832 38.3833 125.799 39.0833 124.865 39.0833C123.815 39.0833 122.299 38.85 122.182 37.9167C122.065 37.1 124.282 37.5667 124.049 35.4667C123.932 34.0667 122.415 33.6 121.132 33.6C116.582 33.6 113.549 39.55 114.132 44.45C114.365 46.4333 115.299 48.3 117.049 48.3C118.449 48.3 120.549 46.3167 121.365 43.2833C121.832 41.3 123.815 39.9 125.215 39.9C125.915 39.9 126.499 40.25 126.615 41.0667C126.615 41.4167 126.499 42.35 125.799 45.5C125.215 46.6667 125.215 47.8333 125.332 48.7667Z" fill="#24BECA"/>
<path d="M83.3335 47.6C84.3835 47.6 87.8835 46.3167 90.6835 42.4667C91.0335 42.1167 91.3835 41.8833 91.7335 41.8833C92.2001 41.8833 92.5501 42.1167 92.6668 42.5833C92.6668 42.9333 92.4335 43.6333 91.8501 44.45C88.7001 48.8833 83.3335 51.1 81.0001 51.1C78.5501 51.1 77.2668 49.5833 77.0335 47.3667C76.9168 46.6667 76.9168 45.7333 77.1501 44.8C77.9668 39.7833 79.8335 36.75 79.7168 35.8167C79.7168 35.5833 79.4835 35.4667 79.3668 35.4667C77.8501 35.4667 72.3668 41.0667 71.5501 44.8L70.8501 47.7167C70.3835 49.8167 68.4001 51.1 67.0001 51.1C66.3001 51.1 65.8335 50.75 65.7168 50.05C65.7168 49.8167 65.7168 49.4667 65.8335 49C65.8335 49 68.5168 35.2333 68.6335 34.5333C68.9835 32.9 69.5668 31.2667 72.8335 31.2667C73.5335 31.2667 74.0001 31.6167 74.1168 32.4333C74.1168 32.6667 74.1168 33.0167 74.0001 33.4833L73.0668 37.6833C75.9835 33.8333 80.4168 31.0333 83.2168 31.0333C84.3835 31.0333 85.2001 31.6167 85.4335 32.9C85.5501 33.6 85.3168 34.7667 84.8501 36.05C83.9168 38.7333 82.8668 42.5833 82.0501 45.9667C81.8168 46.4333 82.0501 47.6 83.3335 47.6Z" fill="#24BECA"/>
<path d="M101.766 31.5C101.766 33.3667 102.7 35.35 103.866 36.6333C104.333 35.35 104.566 34.0667 104.566 32.7833C104.566 30.3333 103.633 29.2833 102.933 29.2833C102.116 29.2833 101.766 30.45 101.766 31.5ZM105.966 41.5333C105.616 41.5333 105.266 41.5333 104.8 41.4167C101.766 45.85 98.6164 48.8833 96.1664 50.1667C95.1164 50.75 94.1831 50.9833 93.4831 50.9833C92.8997 50.9833 92.3164 50.8667 92.0831 50.4C91.0331 48.5333 90.5664 44.9167 90.5664 41.0667C90.5664 38.2667 90.7997 35.9333 91.2664 34.3C91.8497 32.55 94.0664 30.9167 95.4664 30.9167C96.1664 30.9167 96.7497 31.2667 96.7497 32.0833C96.7497 32.3167 96.6331 32.6667 96.5164 33.0167C95.4664 35.9333 94.9997 38.7333 94.9997 41.5333C94.9997 43.05 95.3497 45.6167 95.6997 46.9C95.8164 47.1333 95.8164 47.4833 96.0497 47.4833C96.5164 47.4833 99.6664 44.3333 102 40.6C100.016 39.3167 98.8497 36.9833 98.8497 34.0667C98.8497 29.1667 101.766 26.7167 104.566 26.7167C106.783 26.7167 108.766 28.35 108.766 31.6167C108.766 33.6 107.95 35.9333 106.783 38.15C106.783 38.15 107.25 38.2667 107.483 38.2667C109.233 38.2667 110.633 37.45 111.333 36.6333C111.916 36.05 112.383 35.5833 112.85 35.5833C113.2 35.5833 113.316 35.8167 113.316 36.1667C113.316 36.4 113.2 36.75 113.083 37.1C111.45 39.7833 108.416 41.5333 105.966 41.5333Z" fill="#24BECA"/>
</svg>
