<svg width="71" height="70" viewBox="0 0 71 70" fill="none" xmlns="http://www.w3.org/2000/svg">
<g clip-path="url(#clip0_1665_5241)">
<path d="M12.8959 0.875H58.1043C64.9584 0.875 70.5 6.41662 70.5 13.2709V56.7293C70.5 63.5834 64.9584 69.1251 58.1041 69.1251H12.8959C6.04162 69.125 0.5 63.5834 0.5 56.7291V13.2709C0.5 6.41662 6.04162 0.875 12.8959 0.875Z" fill="#5D3C16"/>
<path d="M34.4218 41.825H23.5718L21.3552 48.6791C21.2968 48.9416 21.0636 49.1166 20.8011 49.0875H15.3177C14.9968 49.0875 14.9093 48.9125 14.9968 48.5625L24.3884 21.525C24.4759 21.2334 24.5634 20.9125 24.68 20.5625C24.7967 19.95 24.855 19.3084 24.855 18.6666C24.8259 18.5207 24.9425 18.375 25.0884 18.3457H25.1759H32.6425C32.8759 18.3457 32.9925 18.4332 33.0217 18.5791L43.6675 48.6207C43.755 48.9416 43.6675 49.0874 43.3759 49.0874H37.28C37.0759 49.1165 36.8717 48.9707 36.8134 48.7665L34.4218 41.825ZM25.2634 35.9041H32.6718L28.9384 23.7416L25.2634 35.9041Z" fill="#DF871E"/>
<path d="M50.0267 23.3334C49.0642 23.3625 48.1308 22.9834 47.4308 22.3125C46.7599 21.5834 46.4099 20.6209 46.4392 19.6291C46.4101 18.6375 46.7892 17.7041 47.4892 17.0332C48.1892 16.3624 49.1226 16.0124 50.0851 16.0124C51.2226 16.0124 52.0976 16.3624 52.7392 17.0332C53.3808 17.7332 53.7308 18.6666 53.7017 19.6291C53.7308 20.6207 53.3808 21.5832 52.6808 22.3125C52.0101 23.0125 51.0183 23.3916 50.0267 23.3334Z" fill="#DF871E"/>
<path d="M46.7598 48.65V26.1916C46.7598 25.9 46.8764 25.7832 47.1389 25.7832H52.9139C53.1764 25.7832 53.293 25.9291 53.293 26.1916V48.65C53.293 48.9709 53.1764 49.1166 52.9139 49.1166H47.1973C46.9055 49.1166 46.7598 48.9416 46.7598 48.65Z" fill="#DF871E"/>
</g>
<defs>
<clipPath id="clip0_1665_5241">
<rect width="70" height="70" fill="white" transform="translate(0.5)"/>
</clipPath>
</defs>
</svg>
