<svg width="71" height="70" viewBox="0 0 71 70" fill="none" xmlns="http://www.w3.org/2000/svg">
<g clip-path="url(#clip0_1670_5433)">
<path d="M12.8959 0.875H58.1043C64.9584 0.875 70.5 6.41662 70.5 13.2709V56.7293C70.5 63.5834 64.9584 69.1251 58.1041 69.1251H12.8959C6.04162 69.125 0.5 63.5834 0.5 56.7291V13.2709C0.5 6.41662 6.04162 0.875 12.8959 0.875Z" fill="#54001A"/>
<path d="M25.9338 18.725V48.65C25.9338 48.9709 25.7879 49.1166 25.5254 49.1166H19.8088C19.5463 49.1166 19.4297 48.9707 19.4297 48.65V18.725C19.4297 18.4625 19.5756 18.3459 19.8381 18.3459H25.5256C25.7006 18.3168 25.8756 18.4334 25.9047 18.6375C25.9338 18.6666 25.9338 18.6959 25.9338 18.725Z" fill="#FF3068"/>
<path d="M42.7333 49.5834C40.575 49.6125 38.4167 49.175 36.4625 48.2709C34.625 47.425 33.1083 46.025 32.0583 44.3043C30.9792 42.5251 30.4542 40.3084 30.4542 37.6543C30.4251 35.4959 30.9792 33.3668 32.0583 31.5002C33.1667 29.6043 34.7708 28.0293 36.6958 26.9793C38.7375 25.8418 41.1875 25.2877 44.075 25.2877C44.2208 25.2877 44.425 25.2877 44.6875 25.3168C44.95 25.3459 45.2416 25.3459 45.5916 25.3752V16.1585C45.5916 15.9544 45.6791 15.8377 45.8832 15.8377H51.8041C51.95 15.8085 52.0666 15.9252 52.0957 16.0418V16.1002V43.8668C52.0957 44.3918 52.1248 44.9751 52.1541 45.6168C52.2125 46.2293 52.2416 46.8127 52.2707 47.3084C52.2707 47.5125 52.1832 47.6875 51.9791 47.775C50.4625 48.4166 48.8582 48.8834 47.225 49.175C45.7666 49.4375 44.25 49.5834 42.7333 49.5834ZM45.5916 43.75V30.9166C45.3291 30.8583 45.0666 30.8 44.8041 30.7708C44.4832 30.7416 44.1625 30.7124 43.8416 30.7124C42.7041 30.7124 41.5666 30.9458 40.5457 31.4708C39.5541 31.9666 38.7082 32.6958 38.0666 33.6291C37.425 34.5625 37.1041 35.8166 37.1041 37.3333C37.075 38.3541 37.25 39.3749 37.6 40.3374C37.8916 41.1249 38.3291 41.8249 38.9125 42.4083C39.4666 42.9333 40.1375 43.3416 40.8958 43.5749C41.6833 43.8374 42.5 43.954 43.3167 43.954C43.7542 43.954 44.1626 43.9249 44.5417 43.8956C44.9208 43.925 45.2708 43.8666 45.5916 43.75Z" fill="#FF3068"/>
</g>
<defs>
<clipPath id="clip0_1670_5433">
<rect width="70" height="70" fill="white" transform="translate(0.5)"/>
</clipPath>
</defs>
</svg>
