<svg width="71" height="70" viewBox="0 0 71 70" fill="none" xmlns="http://www.w3.org/2000/svg">
<g clip-path="url(#clip0_1665_5235)">
<path d="M12.8959 0.875H58.1043C64.9584 0.875 70.5 6.41662 70.5 13.2709V56.7293C70.5 63.5834 64.9584 69.1251 58.1041 69.1251H12.8959C6.04162 69.125 0.5 63.5834 0.5 56.7291V13.2709C0.5 6.41662 6.04162 0.875 12.8959 0.875Z" fill="#001834"/>
<path d="M16.25 48.7375V18.725C16.25 18.5209 16.3375 18.4041 16.5416 18.4041C17.0375 18.4041 17.5041 18.4041 18.175 18.375C18.875 18.3459 19.6041 18.3459 20.3916 18.3166C21.1791 18.2874 22.025 18.2875 22.9291 18.2582C23.8332 18.2291 24.7082 18.2291 25.5832 18.2291C27.9749 18.2291 29.9582 18.5207 31.5916 19.1332C33.05 19.6291 34.3916 20.4457 35.5 21.5249C36.4334 22.4582 37.1625 23.5957 37.6291 24.8499C38.0666 26.0749 38.3 27.329 38.3 28.6415C38.3 31.1499 37.7166 33.2206 36.55 34.854C35.3834 36.4874 33.75 37.7124 31.8541 38.4124C29.8707 39.1415 27.6832 39.404 25.2916 39.404C24.5916 39.404 24.125 39.404 23.8332 39.3749C23.5416 39.3457 23.1332 39.3457 22.5791 39.3457V48.7082C22.6082 48.9124 22.4625 49.0874 22.2582 49.1166C22.2291 49.1166 22.1999 49.1166 22.1416 49.1166H16.6C16.3666 49.1166 16.25 49 16.25 48.7375ZM22.6084 24.0334V33.8334C23.0168 33.8625 23.3959 33.8918 23.7459 33.8918H25.2918C27.3058 33.8918 29.6318 33.4184 31.0375 31.821C32.2473 30.4462 32.2507 27.7197 31.2709 26.221C30.1077 24.4419 27.7815 23.9265 25.7875 23.9751C25.0291 23.9751 24.3584 23.9751 23.8041 24.0043C23.2209 23.975 22.8125 24.0041 22.6084 24.0334Z" fill="#00A9FF"/>
<path d="M56.5008 32.0541C55.6258 31.5875 54.6924 31.2666 53.7008 31.0625C52.6217 30.8291 51.5424 30.6834 50.4342 30.6834C49.8508 30.6543 49.2383 30.7418 48.6842 30.8875C48.3051 30.975 47.9842 31.1791 47.7801 31.4709C47.6342 31.7043 47.5467 31.9959 47.5467 32.2584C47.5467 32.5209 47.6633 32.7834 47.8383 33.0168C48.1008 33.3377 48.4508 33.6002 48.8299 33.8043C49.5008 34.1543 50.2008 34.4752 50.9008 34.7668C52.4758 35.2918 53.9924 36.0209 55.3924 36.8959C56.3549 37.5084 57.1424 38.325 57.6965 39.3168C58.1632 40.2502 58.3965 41.2709 58.3674 42.3209C58.3965 43.6918 57.9883 45.0625 57.2299 46.2C56.4133 47.3666 55.2758 48.2709 53.9633 48.7959C52.5342 49.4084 50.7842 49.7293 48.6842 49.7293C47.3426 49.7293 46.0301 49.6127 44.7176 49.3502C43.6967 49.1752 42.6759 48.8543 41.7426 48.4168C41.5384 48.3002 41.3926 48.0959 41.4217 47.8627V42.7877C41.4217 42.7002 41.4508 42.5835 41.5383 42.5252C41.6258 42.4668 41.7133 42.496 41.8008 42.5543C42.9383 43.2252 44.1342 43.6918 45.4174 43.9834C46.5258 44.275 47.6924 44.4209 48.859 44.4209C49.9674 44.4209 50.7549 44.275 51.2799 44.0125C51.7465 43.8084 52.0674 43.3125 52.0674 42.7875C52.0674 42.3791 51.834 42 51.3674 41.6209C50.9008 41.2418 49.9383 40.8043 48.509 40.25C47.0215 39.725 45.6507 39.025 44.3674 38.15C43.4633 37.5084 42.7049 36.6625 42.1508 35.6709C41.6842 34.7375 41.4508 33.7168 41.4799 32.6959C41.4799 31.4418 41.8299 30.2459 42.4715 29.1668C43.2007 28.0002 44.2799 27.0668 45.534 26.4834C46.9049 25.7834 48.6257 25.4625 50.6965 25.4625C51.8924 25.4625 53.1174 25.55 54.3132 25.725C55.1882 25.8416 56.034 26.075 56.8215 26.3959C56.9382 26.425 57.0549 26.5418 57.1132 26.6584C57.1423 26.775 57.1715 26.8918 57.1715 27.0084V31.7625C57.1715 31.8791 57.1132 31.9959 57.0257 32.0541C56.7633 32.1125 56.6174 32.1125 56.5008 32.0541Z" fill="#00A9FF"/>
</g>
<defs>
<clipPath id="clip0_1665_5235">
<rect width="70" height="70" fill="white" transform="translate(0.5)"/>
</clipPath>
</defs>
</svg>
