<svg width="70" height="70" viewBox="0 0 70 70" fill="none" xmlns="http://www.w3.org/2000/svg">
<g clip-path="url(#clip0_1708_7086)">
<path d="M51.0404 16.0476C50.235 16.0476 49.582 16.7006 49.582 17.506V26.256C49.582 27.0614 50.235 27.7144 51.0404 27.7144H59.7904C60.5958 27.7144 61.2488 27.0614 61.2488 26.256C61.2487 20.6181 56.6783 16.0476 51.0404 16.0476Z" fill="#FF5722"/>
<path d="M51.041 30.631C48.6247 30.631 46.666 28.6722 46.666 26.256V19.1131C41.097 19.9053 37.2247 25.062 38.0169 30.631C38.809 36.2 43.9658 40.0723 49.5347 39.2801C54.0207 38.6419 57.5456 35.117 58.1838 30.631H51.041Z" fill="#FF5722"/>
<path d="M40.2851 1.77925C39.939 1.49816 39.4835 1.39069 39.0484 1.48763L1.13182 10.2376C0.464498 10.391 -0.00636081 10.9879 6.49696e-05 11.6726V61.256C0.000338407 61.9756 0.525475 62.5875 1.23669 62.6969L39.1533 68.5303C39.9494 68.6526 40.694 68.1066 40.8164 67.3106C40.8276 67.2375 40.8333 67.1635 40.8333 67.0895V2.92263C40.8347 2.47788 40.6327 2.05692 40.2851 1.77925Z" fill="#FF5722"/>
<path d="M68.5431 62.7143H39.3763C38.5709 62.7143 37.918 62.0613 37.918 61.2559C37.918 60.4505 38.5709 59.7975 39.3763 59.7975H67.0847V10.2143H39.3763C38.5709 10.2143 37.918 9.56129 37.918 8.75588C37.918 7.95047 38.5709 7.29764 39.3763 7.29764H68.543C69.3484 7.29764 70.0013 7.95061 70.0013 8.75602V61.256C70.0013 62.0614 69.3485 62.7143 68.5431 62.7143Z" fill="#FF5722"/>
<path d="M59.7931 53.9642H39.3763C38.5709 53.9642 37.918 53.3113 37.918 52.5059C37.918 51.7005 38.5709 51.0475 39.3763 51.0475H59.793C60.5984 51.0475 61.2513 51.7005 61.2513 52.5059C61.2513 53.3114 60.5985 53.9642 59.7931 53.9642Z" fill="#FF5722"/>
<path d="M59.7931 45.2142H39.3763C38.5709 45.2142 37.918 44.5613 37.918 43.7559C37.918 42.9505 38.5709 42.2975 39.3763 42.2975H59.793C60.5984 42.2975 61.2513 42.9505 61.2513 43.7559C61.2513 44.5614 60.5985 45.2142 59.7931 45.2142Z" fill="#FF5722"/>
<path d="M13.1263 48.131C12.3209 48.131 11.668 47.4781 11.668 46.6726V23.3393C11.668 22.5339 12.3209 21.8809 13.1263 21.8809H18.9597C22.9868 21.8809 26.2513 25.1455 26.2513 29.1725V32.0891C26.2513 36.1162 22.9868 39.3808 18.9597 39.3808H14.5847V46.6724C14.5847 47.4781 13.9319 48.131 13.1263 48.131ZM14.5847 36.4643H18.9597C21.376 36.4643 23.3347 34.5055 23.3347 32.0893V29.1726C23.3347 26.7564 21.376 24.7976 18.9597 24.7976H14.5847V36.4643Z" fill="#FAFAFA"/>
</g>
<defs>
<clipPath id="clip0_1708_7086">
<rect width="70" height="70" fill="white"/>
</clipPath>
</defs>
</svg>
