<svg width="518" height="143" viewBox="0 0 518 143" fill="none" xmlns="http://www.w3.org/2000/svg">
<path d="M0.199219 143H-1.80078V145H0.199219V143ZM0.199219 0.34375V-1.65625H-1.80078V0.34375H0.199219ZM21.9219 0.34375H23.9219V-1.65625H21.9219V0.34375ZM21.9219 124.52H19.9219V126.52H21.9219V124.52ZM49.3994 124.52H51.3994V122.52H49.3994V124.52ZM49.3994 143V145H51.3994V143H49.3994ZM2.19922 143V0.34375H-1.80078V143H2.19922ZM0.199219 2.34375H21.9219V-1.65625H0.199219V2.34375ZM19.9219 0.34375V124.52H23.9219V0.34375H19.9219ZM21.9219 126.52H49.3994V122.52H21.9219V126.52ZM47.3994 124.52V143H51.3994V124.52H47.3994ZM49.3994 141H0.199219V145H49.3994V141ZM78.2387 143H76.2387V145H78.2387V143ZM78.2387 0.34375V-1.65625H76.2387V0.34375H78.2387ZM99.9613 0.34375H101.961V-1.65625H99.9613V0.34375ZM99.9613 143V145H101.961V143H99.9613ZM80.2387 143V0.34375H76.2387V143H80.2387ZM78.2387 2.34375H99.9613V-1.65625H78.2387V2.34375ZM97.9613 0.34375V143H101.961V0.34375H97.9613ZM99.9613 141H78.2387V145H99.9613V141ZM138.446 143H136.446V145H138.446V143ZM138.446 0.34375V-1.65625H136.446V0.34375H138.446ZM160.169 0.34375H162.169V-1.65625H160.169V0.34375ZM160.169 124.52H158.169V126.52H160.169V124.52ZM187.646 124.52H189.646V122.52H187.646V124.52ZM187.646 143V145H189.646V143H187.646ZM140.446 143V0.34375H136.446V143H140.446ZM138.446 2.34375H160.169V-1.65625H138.446V2.34375ZM158.169 0.34375V124.52H162.169V0.34375H158.169ZM160.169 126.52H187.646V122.52H160.169V126.52ZM185.646 124.52V143H189.646V124.52H185.646ZM187.646 141H138.446V145H187.646V141ZM262.427 143H260.427V145H262.427V143ZM262.427 0.34375V-1.65625H260.427V0.34375H262.427ZM311.871 4.7207L310.761 6.3848L310.768 6.38957L310.776 6.39428L311.871 4.7207ZM321.354 17.2031L319.47 17.8746L319.473 17.8829L319.476 17.8911L321.354 17.2031ZM324.353 36.9805H322.353V36.983L324.353 36.9805ZM324.434 101.338H326.434V101.335L324.434 101.338ZM321.354 124.682L319.455 124.054L319.452 124.064L321.354 124.682ZM284.15 126.141H282.15V128.141H284.15V126.141ZM297.605 124.601L296.584 122.881L296.572 122.888L296.56 122.895L297.605 124.601ZM301.415 119.17L299.513 118.549L299.509 118.561L299.506 118.573L301.415 119.17ZM302.712 107.984H304.712V107.982L302.712 107.984ZM302.63 37.5479H300.63V37.5502L302.63 37.5479ZM284.15 17.041V15.041H282.15V17.041H284.15ZM264.427 143V0.34375H260.427V143H264.427ZM262.427 2.34375H294.444V-1.65625H262.427V2.34375ZM294.444 2.34375C301.434 2.34375 306.815 3.75404 310.761 6.3848L312.98 3.0566C308.172 -0.148575 301.936 -1.65625 294.444 -1.65625V2.34375ZM310.776 6.39428C314.748 8.99342 317.655 12.7814 319.47 17.8746L323.238 16.5316C321.163 10.7095 317.747 6.17585 312.966 3.04713L310.776 6.39428ZM319.476 17.8911C321.373 23.0691 322.353 29.4152 322.353 36.9805H326.353C326.353 29.0913 325.334 22.2525 323.232 16.5152L319.476 17.8911ZM322.353 36.983L322.434 101.34L326.434 101.335L326.353 36.978L322.353 36.983ZM322.434 101.338C322.434 110.556 321.42 118.109 319.455 124.054L323.253 125.309C325.395 118.826 326.434 110.816 326.434 101.338H322.434ZM319.452 124.064C317.562 129.886 314.555 134.073 310.509 136.803L312.746 140.119C317.67 136.797 321.147 131.797 323.256 125.299L319.452 124.064ZM310.509 136.803C306.458 139.536 300.919 141 293.714 141V145C301.424 145 307.827 143.438 312.746 140.119L310.509 136.803ZM293.714 141H262.427V145H293.714V141ZM284.15 128.141H291.283V124.141H284.15V128.141ZM291.283 128.141C294.085 128.141 296.581 127.574 298.65 126.306L296.56 122.895C295.279 123.681 293.56 124.141 291.283 124.141V128.141ZM298.626 126.32C300.91 124.964 302.418 122.664 303.324 119.766L299.506 118.573C298.79 120.863 297.759 122.183 296.584 122.881L298.626 126.32ZM303.316 119.791C304.277 116.848 304.712 112.875 304.712 107.984H300.712C300.712 112.712 300.282 116.196 299.513 118.549L303.316 119.791ZM304.712 107.982L304.63 37.5455L300.63 37.5502L300.712 107.987L304.712 107.982ZM304.63 37.5479C304.63 30.1887 303.748 24.5067 301.701 20.8469L298.21 22.7995C299.73 25.5161 300.63 30.3172 300.63 37.5479H304.63ZM301.701 20.8469C299.479 16.8734 295.568 15.041 290.553 15.041V19.041C294.509 19.041 296.866 20.3968 298.21 22.7995L301.701 20.8469ZM290.553 15.041H284.15V19.041H290.553V15.041ZM282.15 17.041V126.141H286.15V17.041H282.15ZM352.301 143L350.321 142.718L349.995 145H352.301V143ZM372.646 0.34375V-1.65625H370.91L370.666 0.0613785L372.646 0.34375ZM401.339 0.34375L403.316 0.0437737L403.058 -1.65625H401.339V0.34375ZM422.98 143V145H425.307L424.958 142.7L422.98 143ZM402.717 143L400.734 143.265L400.966 145H402.717V143ZM399.312 117.549L401.295 117.284L401.063 115.549H399.312V117.549ZM376.293 117.549V115.549H374.52L374.307 117.309L376.293 117.549ZM373.213 143V145H374.985L375.198 143.24L373.213 143ZM378.4 100.122L376.415 99.8795L376.141 102.122H378.4V100.122ZM397.043 100.122V102.122H399.328L399.025 99.8575L397.043 100.122ZM387.479 28.4697L389.461 28.2051L389.229 26.4697H387.479V28.4697ZM387.154 28.4697V26.4697H385.384L385.169 28.2272L387.154 28.4697ZM354.281 143.282L374.625 0.626122L370.666 0.0613785L350.321 142.718L354.281 143.282ZM372.646 2.34375H401.339V-1.65625H372.646V2.34375ZM399.361 0.643726L421.003 143.3L424.958 142.7L403.316 0.0437737L399.361 0.643726ZM422.98 141H402.717V145H422.98V141ZM404.699 142.735L401.295 117.284L397.33 117.814L400.734 143.265L404.699 142.735ZM399.312 115.549H376.293V119.549H399.312V115.549ZM374.307 117.309L371.227 142.76L375.198 143.24L378.278 117.789L374.307 117.309ZM373.213 141H352.301V145H373.213V141ZM378.4 102.122H397.043V98.1221H378.4V102.122ZM399.025 99.8575L389.461 28.2051L385.496 28.7343L395.061 100.387L399.025 99.8575ZM387.479 26.4697H387.154V30.4697H387.479V26.4697ZM385.169 28.2272L376.415 99.8795L380.386 100.365L389.14 28.7123L385.169 28.2272ZM452.549 143H450.549V145H452.549V143ZM452.549 0.34375V-1.65625H450.549V0.34375H452.549ZM469.571 0.34375L471.457 -0.322357L470.985 -1.65625H469.571V0.34375ZM499.804 85.9375L497.918 86.6036L501.803 85.8584L499.804 85.9375ZM498.264 47.0312H496.264V47.0708L496.266 47.1104L498.264 47.0312ZM498.264 0.34375V-1.65625H496.264V0.34375H498.264ZM517.798 0.34375H519.798V-1.65625H517.798V0.34375ZM517.798 143V145H519.798V143H517.798ZM502.398 143L500.51 143.661L500.979 145H502.398V143ZM471.354 54.4072L473.241 53.7458L469.355 54.4721L471.354 54.4072ZM472.57 91.8545H474.57V91.822L474.569 91.7896L472.57 91.8545ZM472.57 143V145H474.57V143H472.57ZM454.549 143V0.34375H450.549V143H454.549ZM452.549 2.34375H469.571V-1.65625H452.549V2.34375ZM467.685 1.00986L497.918 86.6036L501.69 85.2714L471.457 -0.322357L467.685 1.00986ZM501.803 85.8584L500.263 46.9521L496.266 47.1104L497.806 86.0166L501.803 85.8584ZM500.264 47.0312V0.34375H496.264V47.0312H500.264ZM498.264 2.34375H517.798V-1.65625H498.264V2.34375ZM515.798 0.34375V143H519.798V0.34375H515.798ZM517.798 141H502.398V145H517.798V141ZM504.285 142.339L473.241 53.7458L469.466 55.0686L500.51 143.661L504.285 142.339ZM469.355 54.4721L470.571 91.9194L474.569 91.7896L473.353 54.3423L469.355 54.4721ZM470.57 91.8545V143H474.57V91.8545H470.57ZM472.57 141H452.549V145H472.57V141Z" fill="#F4BD03"/>
</svg>
