<svg width="196" height="77" viewBox="0 0 196 77" fill="none" xmlns="http://www.w3.org/2000/svg">
<path d="M165.709 67.148C165.523 68.7846 165.092 71.4691 164.074 73.2062C163.414 74.3259 162.438 75.3882 161.09 75.3882C160.2 75.3882 159.555 74.7996 159.784 73.9096C159.942 73.3354 160.344 73.1057 160.76 73.0913C161.004 73.0769 161.262 73.1631 161.506 73.2205C161.836 73.2923 162.008 73.2779 162.238 73.12C162.467 72.9621 162.668 72.6463 162.668 72.3304C162.668 71.9428 162.524 71.627 162.051 71.4691C161.707 71.3543 161.262 71.4835 161.262 71.4835C163.199 69.5598 164.433 67.8371 165.824 66.0426C165.824 66.0426 165.738 66.9183 165.709 67.1624V67.148ZM191.834 56.7257C192.637 55.5629 193.355 54.6297 193.929 54.6297C194.488 54.6297 194.431 55.3906 194.287 55.9218C194.086 56.6683 193.613 57.8885 192.264 59.4533C190.844 61.0899 189.826 61.8938 188.793 62.6403C188.477 62.87 187.788 63.3581 187.501 63.5303C187.946 62.7982 190.772 58.3048 191.863 56.7257H191.834ZM191.26 72.7181C190.012 73.7804 188.721 74.7422 187.946 74.7422C187.587 74.7422 187.473 74.3546 187.702 73.7947C188.176 72.6606 189.424 70.9092 190.528 68.9999C191.045 68.0955 191.318 67.3059 191.303 66.6743C191.289 65.6981 190.572 65.1095 189.51 65.1095C188.391 65.1095 187.501 65.5689 186.282 66.5738C185.479 67.2485 184.116 68.7415 184.116 68.7415H183.987C183.987 68.7415 186.512 65.1956 186.712 64.9085C188.233 63.7744 189.696 63.0279 191.604 61.2047C193.67 59.238 194.66 57.4578 195.005 56.4673C195.794 54.0699 194.445 53.8115 193.771 53.8115C192.58 53.8115 190.815 54.8164 188.721 57.7162C187.243 59.7404 185.837 62.0948 184.603 64.2194C183.685 65.7986 182.825 67.4925 181.318 69.287C178.851 72.2156 176.11 74.0388 174.346 74.8858C173.872 75.1011 173.27 75.3452 172.639 75.3452C171.921 75.3452 171.706 74.8284 171.649 74.3546C171.548 73.3497 172.05 71.9428 172.581 70.9092C173.471 69.2152 174.432 68.0955 175.164 67.3346C176.326 66.1144 177.33 65.7124 177.975 65.7124C178.578 65.7124 178.851 65.9852 178.851 66.4015C178.851 66.8896 178.449 67.1193 178.105 67.2341C177.818 67.3346 177.416 67.4351 177.186 67.7653C177.043 67.9663 177 68.1386 177 68.3539C177 68.7702 177.316 69.0717 177.775 69.0717C178.033 69.0717 178.492 69.043 179.037 68.5692C179.511 68.1529 179.812 67.5356 179.869 66.8609C179.912 66.4733 179.84 66.0857 179.64 65.7555C179.238 65.1382 178.521 64.9659 177.674 64.9659C176.326 64.9803 174.891 65.6119 173.743 66.3584C171.95 67.5356 170.587 69.1291 169.741 70.6795C168.923 71.5552 167.445 72.919 166.47 73.565C166.47 73.565 166.886 72.675 167.13 71.7849C167.531 70.3206 167.417 68.8276 167.144 67.2629C167.015 66.502 167.001 66.3297 167.001 65.8416C167.001 65.1525 167.345 64.7793 167.775 64.3773C168.134 64.0328 168.292 63.7026 168.292 63.4155C168.292 63.0997 168.105 62.8269 167.804 62.7838C167.23 62.7121 166.814 63.1284 166.312 63.8605C164.791 66.3584 162.596 69.043 160.502 71.0958C159.297 72.2874 157.79 73.5794 156.384 74.3977C156.026 74.613 155.437 74.9001 155.064 74.9001C154.548 74.9001 154.849 74.0101 155.064 73.5938C156.011 71.7562 160.272 65.3679 160.272 65.3679L157.546 65.5402C157.546 65.5402 155.351 68.9281 154.505 70.1053C153.716 71.1963 152.353 72.6032 151.836 73.12C150.933 74.0101 149.642 74.9719 148.996 74.9719C148.537 74.9719 148.465 74.7135 148.508 74.3546C148.537 74.0244 148.738 73.4358 149.355 72.4022C150.215 70.9666 153.859 65.3535 153.859 65.3535L151.162 65.5114C150.388 66.7317 147.246 71.1389 146.442 72.919C145.825 74.2685 146.012 75.2016 146.342 75.6179C146.686 76.0342 147.102 76.1491 147.69 76.1491C148.594 76.1491 149.412 75.7471 150.215 75.2447C151.076 74.6992 151.951 73.8952 152.554 73.3066L152.597 73.3354C152.496 73.522 152.396 73.8091 152.324 74.0101C152.023 74.9288 152.195 76.1491 153.458 76.1491C154.433 76.1491 155.15 75.8476 155.911 75.46C156.929 74.9576 157.919 74.2254 158.737 73.5794C158.737 73.5794 158.034 76.2352 161.578 76.2352C163.543 76.2352 165.207 75.259 166.039 74.7135C167.029 74.0531 168.406 72.9765 169.167 72.1725C169.081 72.5171 169.023 73.0482 169.009 73.2205C168.909 75.1873 169.985 76.2783 171.62 76.2783C172.969 76.2783 173.944 75.905 175.336 75.1585C177.029 74.2398 178.42 72.9908 179.697 71.9141L179.74 71.9428C179.181 72.8473 177.029 76.0055 177.029 76.0055L179.812 75.9481C179.812 75.9481 180.056 75.5461 180.17 75.3739C181.519 73.12 182.724 71.5122 183.915 70.0192C185.091 68.5262 187.344 66.1144 188.434 66.1144C188.993 66.1144 189.036 66.5307 188.993 66.8465C188.893 67.5787 188.348 68.3539 187.487 69.6459C185.952 71.9141 185.077 73.0052 184.761 74.0388C184.431 75.1442 184.761 76.2209 185.981 76.2209C186.626 76.2209 187.301 76.0342 187.917 75.7758C188.922 75.3452 190.371 74.4551 191.848 73.1487C192.867 72.2443 194.244 70.8949 194.746 69.8756C195.177 69.0286 194.961 68.7415 194.961 68.7415C194.244 69.7608 192.307 71.7849 191.231 72.7037L191.26 72.7181ZM121.293 68.3395C121.006 69.1004 119.772 69.1291 119.098 69.1291C117.405 69.1291 115.971 69.0573 114.321 68.9855C115.024 68.5262 115.727 68.1242 116.602 67.7509C117.721 67.2629 118.61 67.1049 119.471 67.0762C120.375 67.0332 120.935 67.2485 121.193 67.55C121.394 67.794 121.394 68.0955 121.308 68.3395H121.293ZM86.7329 67.1767C86.5895 69.287 86.03 71.7849 85.1262 73.2062C84.4375 74.2972 83.4476 75.4169 82.1134 75.4169C81.224 75.4169 80.5784 74.8284 80.8079 73.9383C80.9657 73.3641 81.3674 73.1344 81.7835 73.12C82.0274 73.1057 82.2856 73.1918 82.5295 73.2492C82.8594 73.321 83.0316 73.3066 83.2611 73.1487C83.4907 72.9908 83.6915 72.675 83.6915 72.3592C83.6915 71.9716 83.5481 71.6557 83.0746 71.4978C82.7447 71.383 82.2856 71.5122 82.2856 71.5122C84.2223 69.5885 85.4561 67.8658 86.8477 66.0713C86.8477 66.0713 86.7473 66.947 86.7329 67.1911V67.1767ZM24.6278 70.3924L24.5991 70.3637C24.886 69.4019 25.3164 65.8703 23.6522 63.0279C24.2261 62.1522 25.2447 60.7453 25.9907 59.7978C28.6591 56.3812 31.8009 53.7684 34.8424 53.2229C35.0002 53.1942 35.6601 53.0793 35.6888 53.2516C35.7175 53.4095 35.4019 53.6392 34.5554 54.7159C31.8583 58.1326 28.8312 63.3437 24.6421 70.3781L24.6278 70.3924ZM24.0252 69.9187C23.7957 71.6557 23.0784 72.675 23.0784 72.675C20.8547 72.7468 18.1576 71.7993 17.096 71.0815C17.6268 70.5934 18.7314 69.5598 20.2665 67.6935C21.2851 66.4446 22.605 64.5927 23.1788 63.7457C23.1788 63.7457 24.5417 65.9278 24.0252 69.9043V69.9187ZM15.3744 69.8613C14.7719 69.3875 13.409 68.0094 12.8925 66.2436C12.1608 63.7313 13.036 61.377 14.4276 60.3577C15.2596 59.7548 16.1635 59.5969 17.0386 59.5969C18.8462 59.5969 20.8404 60.8171 21.8016 62.0948C21.1416 62.87 19.5635 64.8941 18.6884 65.9708C16.7803 68.2965 15.3744 69.8613 15.3744 69.8613ZM57.5526 56.6826C58.3559 55.5198 59.0733 54.5867 59.6471 54.5867C60.2066 54.5867 60.1492 55.3475 60.0058 55.8787C59.8049 56.6252 59.3315 57.8454 57.9829 59.4102C56.5627 61.0468 55.5441 61.8507 54.5111 62.5972C54.1955 62.8269 53.5069 63.315 53.22 63.4873C53.6647 62.7551 56.4909 58.2618 57.5812 56.6826H57.5526ZM62.3729 69.4736C62.9181 68.641 63.5493 67.7509 64.4388 66.8752C65.1131 66.2149 65.816 65.8129 66.4329 65.8273C66.8203 65.8273 67.1502 66.0713 67.1502 66.5738C67.1502 66.904 67.0068 67.349 66.6481 67.9089C66.103 68.7415 65.2852 69.5598 63.951 70.0909C62.8894 70.5073 61.713 70.6221 61.713 70.6221C61.713 70.6221 62.1864 69.7751 62.3873 69.4736H62.3729ZM94.3078 69.4736C94.853 68.641 95.4842 67.7509 96.3737 66.8752C97.0479 66.2149 97.7509 65.8129 98.3678 65.8273C99.0421 65.8416 99.5155 66.502 98.5973 67.9089C98.0522 68.7415 97.3636 69.4449 95.8715 70.1053C94.9534 70.5073 93.6335 70.6221 93.6335 70.6221C93.6335 70.6221 94.1069 69.7751 94.3078 69.4736ZM121.781 67.1049C121.408 66.6599 120.777 66.4159 119.615 66.4159C118.725 66.4159 117.52 66.6599 116.372 67.148C115.21 67.6361 114.206 68.239 113.259 68.9281C112.398 68.9138 111.595 68.9138 111.193 68.9712C109.917 69.1722 109.214 69.8182 108.898 70.4355C108.798 70.6221 108.668 71.0097 108.841 71.1389C108.855 71.1389 108.898 71.0097 109.041 70.8949C109.328 70.6365 109.673 70.5934 110.204 70.5934C110.318 70.5934 110.663 70.5934 111.136 70.5934C111.007 70.6939 110.892 70.7944 110.763 70.9092C110.074 71.4835 109.4 72.029 108.697 72.6032C108.037 73.1344 107.349 73.6512 106.603 74.1249C106.201 74.3833 105.57 74.7279 105.039 74.7279C104.68 74.7279 104.58 74.3403 104.809 73.7804C105.283 72.6463 106.531 70.8949 107.636 68.9855C108.152 68.0811 108.425 67.2916 108.41 66.6599C108.396 65.6837 107.679 65.2387 106.617 65.1956C105.971 65.1669 105.871 65.1956 105.512 65.1238C104.924 65.0233 104.809 64.6645 105.225 64.162C105.512 63.8175 105.656 63.516 105.656 63.2719C105.656 62.8987 105.441 62.5972 104.967 62.5972C104.551 62.5972 103.963 62.8843 103.633 63.4586C102.944 64.6357 103.518 65.454 103.518 65.454C102.758 66.7604 101.624 68.4974 100.678 69.732C99.9172 70.7226 98.3821 72.7611 96.1585 74.3115C95.4555 74.7996 94.193 75.4887 93.2749 75.4887C92.4715 75.4887 92.3854 74.8427 92.3854 74.3546C92.3854 73.6512 92.658 72.6463 93.2892 71.3686C94.1213 71.2681 94.7669 71.182 95.5846 70.9236C98.2387 70.0909 99.9602 68.2103 99.9602 66.7317C99.9602 66.0139 99.6733 65.0951 98.1096 65.0951C96.9188 65.0951 95.5272 65.7411 94.3939 66.5881C93.1027 67.55 91.7255 69.0286 90.8934 70.5647C90.09 71.426 88.5262 72.9047 87.4933 73.5794C87.4933 73.5794 87.9093 72.6893 88.1532 71.7993C88.5549 70.335 88.4402 68.842 88.1676 67.2772C88.0385 66.5163 88.0241 66.3441 88.0241 65.856C88.0241 65.1669 88.3684 64.7937 88.8132 64.3917C89.1718 64.0472 89.3296 63.717 89.3296 63.4299C89.3296 63.114 89.1431 62.8413 88.8418 62.7982C88.268 62.7264 87.852 63.1427 87.3498 63.8749C85.8291 66.3728 83.6198 69.1291 81.5539 71.1102C80.3345 72.2874 78.8281 73.5938 77.4365 74.412C77.0779 74.6274 76.4897 74.9145 76.1167 74.9145C75.6002 74.9145 75.9015 74.0244 76.1167 73.6081C77.0635 71.7706 81.3244 65.3822 81.3244 65.3822L78.5986 65.5258C78.5986 65.5258 76.4036 68.9425 75.5572 70.1197C74.7681 71.2107 73.4052 72.6176 72.8888 73.1344C71.9849 74.0244 70.6507 74.9863 70.0482 74.9863C69.5891 74.9863 69.5317 74.7279 69.5604 74.369C69.5891 74.0388 69.7756 73.4502 70.4068 72.4166C71.2676 70.981 74.9116 65.3822 74.9116 65.3822L72.2145 65.5258C71.4398 66.746 70.8085 67.8084 69.9765 68.7989C69.0726 69.89 66.2608 72.8042 64.0514 74.369C63.2624 74.9288 62.2008 75.4887 61.3256 75.4887C60.4649 75.4887 60.4218 74.8427 60.4218 74.3546C60.4218 73.6799 60.6944 72.6463 61.3256 71.3686C62.1577 71.2681 62.7746 71.1533 63.6067 70.9236C66.2895 70.1484 67.968 68.2247 67.968 66.6886C67.968 66.0857 67.7528 65.0951 66.1747 65.0951C64.9839 65.0951 63.6928 65.7411 62.6598 66.4302C61.2396 67.3777 59.5897 69.1291 58.7003 70.9954C57.0504 72.6606 54.8268 74.6561 53.6504 74.6561C53.2917 74.6561 53.1769 74.2685 53.4065 73.7086C53.8799 72.5745 55.128 70.8231 56.2327 68.9138C56.7492 68.0094 57.0217 67.2198 57.0074 66.5881C56.9931 65.6119 56.2757 65.0233 55.2141 65.0233C54.0951 65.0233 53.2056 65.4827 52.0005 66.4876C51.1828 67.1624 49.8342 68.6554 49.8342 68.6554H49.7051C49.7051 68.6554 52.2301 65.1095 52.4309 64.8224C53.9516 63.6883 55.415 62.9418 57.323 61.1186C59.3889 59.1518 60.3788 57.3717 60.7231 56.3812C61.5121 53.9837 60.1636 53.7253 59.475 53.7253C58.2412 53.7253 56.5053 54.7302 54.3964 57.6301C52.7322 59.9127 51.4697 62.1809 50.3077 64.1333C49.2891 65.856 48.3422 67.6792 46.5776 69.8182C45.0856 71.6414 41.456 74.6417 40.1074 74.6417C39.7488 74.6417 39.634 74.2541 39.8636 73.6942C40.337 72.5601 41.5851 70.8087 42.6898 68.8994C43.2062 67.995 43.4788 67.2054 43.4645 66.5738C43.4501 65.5976 42.7328 65.009 41.6712 65.009C40.5522 65.009 39.7058 65.3535 38.4576 66.4733C37.7833 67.0762 36.4635 68.641 36.4635 68.641H36.3487C36.6356 68.1242 37.1951 67.1624 37.2095 66.2723C37.2238 65.6119 36.8795 65.1382 36.0187 65.1382C35.5166 65.1382 35.0432 65.3248 34.1968 65.9421C33.5655 66.4159 32.7334 67.2198 31.6001 68.2821C29.7781 69.9905 27.7696 71.5839 26.3063 72.072C26.3063 72.072 27.3966 70.2632 27.8557 69.4019C30.3663 64.7075 33.1495 58.8647 36.3487 53.5387C36.4204 53.4095 36.5065 53.2803 36.5783 53.1655C36.7361 52.9071 36.7791 52.7061 36.7074 52.5912C36.6069 52.4477 36.3774 52.419 36.0044 52.4333C33.0634 52.5769 29.9359 54.3857 27.8127 56.051C25.7038 57.7019 24.2117 59.2092 22.4041 61.3339C21.0842 59.7404 18.7745 58.2187 16.393 58.2761C15.3314 58.3048 14.2984 58.5345 13.3229 59.1805C11.7878 60.1998 11.1853 61.9656 11.1709 63.5734C11.1566 66.0857 12.5338 68.6841 14.7288 70.4642C14.7288 70.4642 13.3516 72.0433 11.8883 73.2636C10.138 74.7135 7.51264 76.307 5.03072 76.1204C4.19864 76.063 3.26613 75.905 2.67793 75.1729C2.40535 74.8284 2.33362 74.4551 2.43404 74.168C2.57751 73.7804 2.86443 73.7086 3.3809 73.6799C4.19864 73.6512 4.39949 73.0339 4.39949 72.5171C4.39949 71.828 3.7826 71.4404 3.12267 71.4404C1.96061 71.4404 0.942027 72.273 0.870295 73.5507C0.726832 75.8476 2.80705 76.8812 5.00203 76.8812C8.8038 76.8812 12.8638 74.8427 16.3356 71.6557C17.9424 72.6463 20.6108 73.2636 22.4615 73.3497L20.7543 75.9768L24.097 75.8907C24.097 75.8907 25.4599 73.6512 25.8759 72.9765C27.2818 72.5314 28.9604 71.6988 31.3992 69.4736C32.7048 68.2821 33.752 67.1767 34.6559 66.4876C34.9715 66.2436 35.3158 66.0139 35.5166 66.0139C35.8322 66.0139 35.7462 66.3297 35.4449 66.9183C34.8567 67.995 33.9816 69.3444 31.141 73.6655C30.8828 74.0675 29.6203 75.9912 29.6203 75.9912L32.3031 75.9194C32.3031 75.9194 33.5799 74.0388 33.9529 73.5076C34.4407 72.7611 34.7276 72.23 36.5352 69.689C37.5251 68.2821 39.5336 66.0426 40.6239 66.0426C41.1834 66.0426 41.2552 66.4015 41.1978 66.7173C41.0973 67.4638 40.5665 68.2534 39.6771 69.5741C38.142 71.8424 37.2669 72.9334 36.9513 73.967C36.6069 75.0724 36.98 76.1491 38.2137 76.1491C38.8593 76.1491 39.4762 75.9768 40.1074 75.7184C41.1117 75.3021 42.4029 74.4407 43.6653 73.4646C44.2248 73.0195 45.3008 72.0433 45.3008 72.0433L45.3438 72.072C44.7843 72.9765 42.7615 75.9912 42.7615 75.9912L45.5447 75.905C45.5447 75.905 45.8029 75.5031 45.9034 75.3308C47.2519 73.0769 48.457 71.4691 49.6477 69.9761C50.8241 68.4831 53.0909 66.0713 54.1668 66.0713C54.7263 66.0713 54.7694 66.4876 54.7263 66.8035C54.6259 67.5356 54.0807 68.3108 53.22 69.6028C51.6849 71.8711 50.8098 72.9621 50.4942 73.9957C50.1499 75.1011 50.4942 76.1778 51.7136 76.1778C52.3592 76.1778 53.0191 76.0055 53.6504 75.7328C55.1424 75.0868 56.8783 73.6799 58.2268 72.3735L58.2555 72.3879C58.1981 72.5314 58.1264 72.9334 58.0977 73.0482C57.7964 75.1729 59.0015 76.2926 60.594 76.2926C62.1003 76.2926 63.2767 75.7041 64.4101 74.9432C65.5865 74.1536 67.1646 72.6319 68.1545 71.6557L68.1975 71.6844C67.9536 72.0577 67.6093 72.6319 67.4659 72.9621C66.849 74.2972 67.0355 75.2447 67.3654 75.661C67.7097 76.0773 68.1258 76.1922 68.714 76.1922C69.6178 76.1922 70.4355 75.7902 71.2389 75.2877C72.0997 74.7422 72.9748 73.9383 73.5774 73.3497L73.6204 73.3784C73.52 73.565 73.4196 73.8522 73.3478 74.0531C73.0466 74.9719 73.2187 76.1922 74.4812 76.1922C75.4567 76.1922 76.1741 75.8907 76.9344 75.5031C77.953 75.0006 78.9429 74.2685 79.7606 73.6225C79.7606 73.6225 79.0577 76.2783 82.6012 76.2783C84.6671 76.2783 86.1591 75.3595 87.0629 74.7709C87.895 74.2111 89.4157 73.0195 90.1904 72.23L90.2334 72.2443C90.1904 72.3879 90.0756 72.7898 90.0326 73.0913C89.7744 75.3739 91.1373 76.2926 92.6006 76.2926C94.2074 76.2926 95.4985 75.6036 96.4884 74.9288C98.3104 73.6942 99.9029 71.9285 101.323 70.0622C102.055 69.086 102.7 68.0668 103.36 67.0332C103.432 66.9327 104.106 65.8273 104.106 65.8273C104.565 65.9278 105.01 65.9708 105.311 66.0139C106.029 66.1144 106.187 66.4159 106.129 66.8178C106.029 67.593 105.455 68.3539 104.565 69.6746C103.03 71.9428 102.155 73.0339 101.84 74.0675C101.51 75.1729 101.84 76.2496 103.059 76.2496C103.705 76.2496 104.365 76.106 104.996 75.8333C106.057 75.3882 107.162 74.5987 108.066 73.8952C109.128 73.0769 110.62 71.828 111.107 71.426C111.452 71.1389 111.767 70.8805 112.069 70.6365C113.718 70.6508 115.698 70.7226 116.387 70.737C116.989 70.7513 117.879 70.7226 118.352 70.6939C120.791 70.536 121.795 69.5454 121.996 68.5262C122.097 67.995 121.982 67.4638 121.709 67.1336L121.781 67.1049ZM141.493 64.4491C140.618 64.4491 140.058 64.1476 140.058 63.6452C140.058 63.1571 140.532 62.6403 141.593 62.7551C142.224 62.8269 142.655 63.0422 143.042 63.2863C143.444 63.5447 143.673 63.9467 143.673 63.9467C142.999 64.2912 142.239 64.4491 141.493 64.4491ZM144.721 53.6966C145.768 53.0075 147.117 52.663 147.418 52.663C147.418 52.663 147.231 52.3902 146.457 52.4046C145.754 52.419 144.62 52.8066 143.645 53.4382C142.927 53.309 142.009 53.2085 141.134 53.1655C136.242 52.9358 131.651 54.0555 127.993 56.1658C124.464 58.2043 122.039 61.0037 121.824 63.5734C121.752 64.4922 121.939 65.3392 122.613 65.8847C123.158 66.3297 123.876 66.5164 124.794 66.5307C126.759 66.5307 129.241 65.6406 131.694 63.7887C133.473 62.4537 134.822 60.8458 135.51 59.5681C136.429 57.8885 135.898 56.898 135.898 56.898C135.338 58.7068 133.172 61.2334 130.604 63.114C128.567 64.607 126.4 65.7124 124.464 65.7124C122.828 65.7124 122.556 64.7362 122.67 63.6595C122.914 61.3339 124.923 59.1231 127.491 57.4291C131.479 54.802 136.285 53.6536 141.278 53.9837C141.737 54.0124 142.239 54.0699 142.641 54.1417C142.54 54.2134 142.44 54.2996 142.339 54.3857C140.603 55.8356 138.867 57.8024 137.289 60.1137C134.779 63.8175 133.201 66.6456 131.12 69.5167C129.385 71.9428 127.462 74.2111 124.88 75.3021C123.89 75.7184 122.785 75.8763 121.767 75.8476C120.748 75.8189 120.031 75.6179 119.414 75.1729C119.199 75.015 118.897 74.6704 118.926 74.3259C118.983 73.7517 119.399 73.7517 119.844 73.7947C120.633 73.8809 120.949 73.2923 120.92 72.7468C120.877 72.1008 120.375 71.6414 119.557 71.6414C118.797 71.6414 117.621 72.1582 117.52 73.6225C117.362 76.1634 120.418 76.6085 122.269 76.6085C125.984 76.6085 129.327 74.9719 132.024 72.0433C136.386 67.3203 138.451 61.7502 139.929 59.2954C141.062 57.4004 142.067 55.6777 143.63 54.4288C146.27 55.1466 147.317 57.0272 147.174 58.9365C147.059 60.5156 146.342 62.1378 144.807 63.2863C144.219 62.7982 143.071 62.023 141.464 62.023C139.757 62.023 139.183 62.9992 139.197 63.7457C139.212 64.7075 140.202 65.2674 141.536 65.2674C142.87 65.2674 143.917 64.8798 143.917 64.8798C144.19 65.6406 144.075 67.0475 143.803 68.0668C143.1 70.7082 141.679 72.7755 140.029 74.1106C138.035 75.7184 136.845 75.7615 136.386 75.7615C135.324 75.7471 134.994 75.015 135.066 74.1536C135.166 72.9334 135.797 71.5983 136.572 70.6221C138.222 68.5692 139.8 67.9519 140.273 67.6935C140.273 67.6935 140.101 67.4064 139.427 67.6074C138.638 67.8371 137.82 68.2821 136.888 69.1578C135.281 70.6508 134.334 72.474 134.219 73.9239C134.147 74.7996 134.377 75.6179 134.951 76.0773C135.396 76.4506 136.027 76.6803 136.959 76.6803C138.279 76.6803 139.786 76.1634 141.005 75.4026C143.975 73.5507 145.825 70.8087 146.241 68.0381C146.457 66.5594 146.241 65.2243 145.567 64.162C146.141 63.8605 148.924 62.1091 149.225 59.0944C149.441 56.941 148.164 54.6585 144.706 53.7253L144.721 53.6966Z" fill="black"/>
<path d="M96.1016 6.75317L92.8307 4.38446H96.862L98.1101 0.537109L99.3582 4.38446H103.39L100.119 6.75317L101.367 10.6005L98.0958 8.23182L94.8248 10.6005L96.0729 6.75317H96.1016ZM126.717 13.9885C124.78 14.4909 123.374 15.2805 121.667 16.3716C120.117 17.3765 117.765 19.5585 115.44 22.5158C113.604 24.8271 111.524 26.3632 110.161 26.6072C110.161 26.6072 111.825 25.1286 112.915 23.7074C114.321 21.8555 116.502 18.4388 120.763 15.7543C124.091 13.6583 126.831 13.3138 127.936 13.2563C129.069 13.1846 130.547 13.3281 130.834 13.6583C130.834 13.6583 128.696 13.4717 126.702 13.9885H126.717ZM108.497 21.8124C108.497 21.8124 108.812 20.8362 109.716 19.9461C110.391 19.2714 111.036 19.0992 111.122 19.3288C111.122 19.3288 110.649 19.6734 110.032 20.2046C109.458 20.707 108.497 21.798 108.497 21.798V21.8124ZM110.405 17.6636C111.194 17.0893 111.624 16.9745 111.739 17.1755C111.854 17.3765 111.639 17.6636 110.85 18.2091C109.931 18.8551 108.798 19.5729 108.798 19.5729C108.798 19.5729 109.028 18.6828 110.419 17.6492L110.405 17.6636ZM113.231 16.3716C113.963 15.826 114.393 15.7686 114.494 15.9696C114.594 16.1562 114.379 16.429 113.618 16.9171C112.729 17.4913 111.481 18.4531 111.481 18.4531C111.481 18.4531 112.112 17.2042 113.231 16.3716ZM116.158 15.0365C116.932 14.534 117.363 14.5197 117.449 14.7206C117.535 14.9216 117.305 15.1657 116.502 15.6107C115.57 16.1132 114.479 16.8453 114.479 16.8453C114.479 16.8453 114.981 15.7973 116.158 15.0365ZM114.766 18.5106C114.766 18.5106 115.297 17.4339 116.488 16.5438C117.377 15.8691 118.152 15.7686 118.209 16.0557C118.209 16.0557 117.621 16.3716 116.803 16.9027C116.057 17.3908 114.766 18.5106 114.766 18.5106ZM111.581 20.0466C111.581 20.0466 112.04 18.9987 113.145 18.0799C113.977 17.3908 114.709 17.2616 114.766 17.5344C114.766 17.5344 114.207 17.8646 113.461 18.4101C112.772 18.9125 111.581 20.0466 111.581 20.0466ZM113.647 19.4868C114.508 18.5967 115.024 18.7403 115.096 18.9987C115.096 18.9987 114.551 19.3576 113.834 19.9318C113.174 20.463 112.571 21.0946 112.571 21.0946C112.571 21.0946 113.016 20.1471 113.647 19.4868ZM120.031 13.687C120.964 13.3138 121.365 13.4286 121.351 13.644C121.322 13.8593 121.265 13.9167 120.318 14.2469C119.041 14.6776 117.822 15.3092 117.822 15.3092C117.822 15.3092 118.625 14.2613 120.046 13.7014L120.031 13.687ZM123.819 12.9979C124.78 12.7539 125.182 12.8687 125.139 13.0267C125.096 13.1846 125.024 13.242 124.048 13.443C122.743 13.7157 121.452 14.1464 121.452 14.1464C121.452 14.1464 122.341 13.3712 123.819 12.9979ZM110.764 30.8278C110.95 30.7274 111.137 30.6269 111.323 30.5264C112.428 29.9091 113.905 29.0047 114.809 28.9185C115.369 28.8755 115.613 29.0908 115.67 29.3205C115.727 29.5215 115.742 29.6937 115.598 30.1388C115.527 30.3828 115.383 30.6412 115.268 30.7704C115.268 30.7704 115.182 30.2536 114.723 30.311C114.078 30.3972 113.59 31.0719 112.844 31.6031C112.241 32.0481 111.653 32.3352 111.38 32.4788C111.38 32.4788 111.567 32.5793 111.969 32.4357C112.399 32.2778 113.002 31.962 113.346 31.6748C113.332 31.962 113.489 32.1916 113.791 32.1342C114.092 32.0768 114.307 31.8184 114.393 31.5026C114.465 31.2585 114.422 30.8135 114.364 30.8422C114.852 30.5982 115.11 31.0575 115.11 31.4021C115.11 31.5169 115.096 31.7753 115.053 31.8471C115.053 31.8471 115.182 31.8184 115.354 31.5887C115.527 31.3734 115.785 30.9858 115.971 30.2823C116.086 29.866 116.072 29.6363 116.043 29.4497C116.359 29.2631 116.803 28.9903 117.09 28.8755C117.851 28.5883 118.468 28.6027 118.697 29.0764C118.841 29.3923 118.783 29.6076 118.783 29.6076C118.711 29.3636 118.539 29.2774 118.31 29.2918C117.75 29.3205 117.162 30.0239 116.732 30.6412C116.359 31.1867 116.244 31.5026 115.813 31.962C115.699 32.0912 115.412 32.2634 115.469 32.45C115.527 32.6654 115.799 32.4213 115.986 32.2921C116.273 32.0912 116.717 31.9045 116.975 31.7897C117.765 31.4021 117.994 31.0001 117.994 31.0001C118.037 31.1724 117.951 31.9332 117.219 32.651C116.287 33.5411 113.963 34.6034 113.26 35.0628C112.959 35.2494 112.686 35.4504 112.413 35.6514C111.581 36.283 110.878 36.9721 110.19 37.532C109.013 38.4938 107.062 39.7141 104.968 40.3314C103.691 40.7046 103.576 40.317 103.562 40.317C103.963 40.2309 105.011 40.0012 106.747 39.1255C109.157 37.9053 110.835 36.4553 111.897 35.5222C112.026 35.4073 112.155 35.2925 112.27 35.2064C113.045 34.5316 113.26 34.3019 113.375 34.1871C113.977 33.5411 114.192 33.2253 114.207 33.0817C114.006 33.254 113.303 33.9287 112.672 34.4599C112.571 34.546 112.399 34.6896 112.155 34.8905C111.725 35.2494 111.079 35.7662 110.319 36.3118C108.54 37.3741 105.556 38.2067 103.662 38.1493C102.859 38.0919 102.012 37.9627 102.012 37.9627C102.902 37.6899 103.777 37.2592 104.322 36.9578C105.197 36.9003 106.761 36.7568 107.335 36.2974L107.407 36.24C106.302 36.4553 105.068 36.6563 104.351 36.5989C103.375 36.4984 102.127 36.1682 102.127 36.1682C102.5 36.1251 103.347 35.7662 104.006 35.4504C104.738 35.4935 106.417 35.1489 106.517 35.1202L106.589 35.0772C105.886 35.1059 105.025 35.0341 104.566 34.991C103.748 34.8331 102.744 34.4024 102.744 34.4024C103.39 34.2589 103.978 34.0148 104.379 33.8282C105.125 33.8426 106.187 33.699 106.273 33.6846L106.345 33.6416C105.843 33.6272 104.91 33.498 104.58 33.455C103.906 33.1966 103.088 32.7085 103.088 32.7085C103.791 32.5793 104.351 32.3926 104.695 32.2778C105.427 32.3496 106.431 32.3639 106.517 32.3496L106.56 32.3208C106.101 32.2778 105.269 32.1055 104.896 32.0194C103.92 31.2872 103.59 30.6269 103.59 30.6269C103.59 30.6269 106.359 31.6748 107.722 31.6892C108.927 31.7035 109.831 31.3159 110.735 30.8422L110.764 30.8278ZM111.352 41.0061L111.84 41.7383C111.868 41.7813 111.897 41.8244 111.926 41.8531C112.399 41.2071 113.159 40.7908 114.02 40.7908C115.455 40.7908 116.617 41.9536 116.617 43.3892C116.617 44.3366 116.1 45.1693 115.34 45.6287C115.383 45.6574 115.412 45.7005 115.44 45.7292L116.086 46.3034C117.219 47.3083 118.295 48.1409 119.099 48.7295H113.102C112.959 48.2989 112.729 47.8969 112.399 47.5811C111.854 47.0355 111.137 46.7341 110.362 46.7341C109.587 46.7341 108.87 47.0355 108.325 47.5811C107.995 47.9112 107.751 48.2989 107.622 48.7295H102.701C103.476 47.9974 104.107 47.1935 104.566 46.3321C105.039 45.442 105.341 44.4946 105.427 43.5327C105.498 42.7288 105.441 41.9105 105.255 41.0779C105.498 41.0061 105.728 40.92 105.958 40.8338C106.015 40.8195 106.072 40.7908 106.13 40.7764C106.632 42.8293 106.388 44.8965 105.384 46.7628C105.197 47.1073 104.982 47.4519 104.752 47.782H106.976H107.034C107.708 46.5474 108.985 45.7866 110.376 45.7866C111.782 45.7866 113.059 46.5474 113.719 47.782H116.402C115.44 46.9781 114.537 46.1455 113.705 45.2985L113.389 44.9827L113.834 45.0401C113.905 45.0544 113.963 45.0544 114.02 45.0544C114.938 45.0544 115.684 44.3079 115.684 43.3892C115.684 42.4704 114.938 41.7239 114.02 41.7239C113.102 41.7239 112.356 42.4704 112.356 43.3892L112.37 43.8629L112.083 43.5184C110.835 42.0254 109.874 40.5467 109.185 39.0824C109.228 39.0394 109.286 39.0106 109.329 38.9676C109.358 38.9389 109.386 38.9245 109.429 38.8958C109.616 38.7522 109.774 38.6087 109.931 38.4938C110.304 39.3121 110.778 40.1591 111.337 40.9917L111.352 41.0061ZM101.898 39.5992C102.5 39.427 103.088 39.1542 103.576 38.8958C105.054 38.7953 106.617 38.3933 107.736 38.0201C107.22 38.3072 106.704 38.5656 106.201 38.7666C103.777 39.7141 101.883 39.6136 101.883 39.6136L101.898 39.5992ZM100.406 31.8758C99.6739 31.7753 99.2004 31.5456 98.9565 31.359C98.9565 31.359 99.3295 31.115 100.449 31.3447C101.037 31.4595 101.682 31.7035 101.826 31.8184C101.826 31.8184 101.266 31.9763 100.406 31.8615V31.8758ZM98.8561 33.5124C98.7987 33.455 98.727 33.3975 98.6696 33.3401C98.5405 33.2109 98.4257 33.0673 98.311 32.9238C98.0814 32.6367 97.8662 32.3352 97.651 32.0337C97.2206 31.4164 96.8189 30.7848 96.4316 30.1388L95.2408 28.2151C94.8391 27.5834 94.4518 26.9374 94.0214 26.3058L93.964 26.3488C94.337 26.9948 94.6813 27.6696 95.0256 28.3443L95.5565 29.3492C95.743 29.6794 95.9295 30.0096 96.116 30.3254C96.5033 30.9714 96.8907 31.6174 97.3067 32.2634C97.5219 32.5793 97.7371 32.8951 97.9666 33.1966C98.0671 33.3258 98.1675 33.455 98.2823 33.5842C98.1675 33.5267 98.0384 33.4693 97.8949 33.3975C97.3928 33.1391 96.7616 32.5362 96.159 31.7323C95.0974 30.311 93.3041 26.9948 92.7446 26.1191C92.1707 25.2147 90.5639 22.4441 87.2786 22.4441C83.8786 22.4441 81.038 24.2529 79.7755 25.0712C78.1974 26.1048 76.0311 27.8849 75.8733 28.0285C76.1746 27.727 76.4902 27.4255 76.8058 27.124C77.3223 26.636 77.8675 26.1766 78.4126 25.7315C78.9578 25.2865 79.5316 24.8702 80.1198 24.4826C80.708 24.095 81.3106 23.7217 81.9418 23.3915C82.5731 23.0614 83.2043 22.7742 83.8786 22.5302C84.5385 22.3005 85.2271 22.1139 85.9301 22.0277C86.6331 21.9416 87.336 21.9272 88.039 22.0134C88.742 22.0995 89.4306 22.3005 90.0331 22.6594L90.0762 22.602C89.4736 22.2144 88.7707 21.9847 88.0533 21.8698C87.336 21.755 86.6187 21.755 85.9014 21.8268C85.1841 21.8985 84.4811 22.0708 83.7925 22.2861C83.1039 22.5158 82.4439 22.7886 81.7984 23.1044C81.4827 23.2623 81.1528 23.4346 80.8515 23.6069C80.6937 23.693 80.5502 23.7935 80.3924 23.8796L80.1629 24.0232L79.9333 24.1668C79.3308 24.5544 78.7426 24.985 78.1831 25.4301C77.5232 25.9469 76.8919 26.5067 76.2894 27.081C76.4472 26.8369 76.6767 26.5642 76.9923 26.2483C77.7383 25.5162 78.5991 24.6405 80.8802 23.0901C83.7208 21.152 86.1022 20.6065 88.5124 20.8075C92.5294 21.152 94.0788 24.4108 94.7674 25.5306C95.3987 26.5642 97.2206 30.8278 98.1675 32.4213C98.5118 32.9956 98.7557 33.3258 98.8848 33.498C98.8705 33.4837 98.8561 33.4837 98.8418 33.4693L98.8561 33.5124ZM96.9481 40.317C96.9337 40.5037 96.9194 40.7477 96.7759 40.7621H96.7616C96.6181 40.7477 96.4603 40.2596 96.4172 39.9725C96.3599 39.6279 96.3455 39.3695 96.3455 39.1255C96.3455 38.8097 96.4603 38.5513 96.4459 38.5656C96.575 38.6948 96.7902 39.0106 96.8907 39.5275C96.9337 39.8002 96.9767 40.0156 96.9481 40.317ZM95.4704 36.9865C95.3556 37.2736 95.2552 37.4459 95.0256 37.5607C94.7818 37.6899 94.3944 37.5033 94.3944 37.5033C94.5666 37.3597 94.7387 37.0008 94.8105 36.8573C94.9683 36.5702 95.0256 36.3979 95.2552 36.1108C95.5134 35.7806 95.7717 35.6514 95.7717 35.6514C95.6569 35.9242 95.6138 36.6276 95.4704 37.0008V36.9865ZM95.5708 40.5324C95.5278 40.7621 95.4704 41.0635 95.2839 41.0635C95.0974 41.0635 94.997 40.4032 94.9826 40.0443C94.9683 39.6136 94.9826 39.2834 95.0113 38.9819C95.0543 38.58 95.1978 38.2785 95.1835 38.2929C95.3269 38.4651 95.5565 38.8958 95.5995 39.5418C95.6282 39.8864 95.6425 40.1591 95.5708 40.5324ZM94.0788 36.1682C93.8779 36.4697 93.7201 36.6419 93.4476 36.7281C93.1319 36.8142 92.7159 36.5271 92.7159 36.5271C92.9454 36.3979 93.218 36.0246 93.3471 35.8811C93.591 35.5796 93.6914 35.4073 94.0214 35.1346C94.3944 34.8188 94.7244 34.7326 94.7244 34.7326C94.5379 35.0197 94.337 35.7949 94.0788 36.1826V36.1682ZM94.1792 39.3121L93.9353 40.3744C93.8493 40.6185 93.7201 40.9343 93.5336 40.8913C93.3471 40.8482 93.3902 40.1304 93.4476 39.7284C93.5193 39.2547 93.6197 38.8097 93.7201 38.4938C93.8493 38.0775 94.0358 37.8191 94.0214 37.8191C94.1218 38.0345 94.2509 38.6087 94.1649 39.2978L94.1792 39.3121ZM92.7876 38.58C92.6585 38.9532 92.5437 39.2691 92.2998 39.6279C92.1564 39.8576 91.9699 40.1304 91.7834 40.0873C91.5825 40.0443 91.7977 39.2547 91.9412 38.8671C92.1133 38.3933 92.2712 38.1062 92.4433 37.7904C92.6729 37.3884 92.9167 37.1588 92.9024 37.1731C92.9598 37.4172 93.0172 37.8765 92.7733 38.58H92.7876ZM91.5969 37.934C91.3817 38.3359 91.0087 38.7953 90.7791 39.0681C90.5783 39.2978 90.3774 39.4413 90.2483 39.3839C90.0331 39.2834 90.4061 38.5656 90.65 38.1637C90.9513 37.6756 91.2382 37.3023 91.4821 37.0008C91.8264 36.5989 92.0703 36.4984 92.0703 36.4984C92.0847 36.7855 91.9555 37.288 91.5969 37.9483V37.934ZM91.6543 46.3321C92.1133 47.1935 92.7446 47.9974 93.5193 48.7295H88.5985C88.455 48.2989 88.2255 47.8969 87.8955 47.5811C87.3504 47.0355 86.6331 46.7341 85.8584 46.7341C85.0837 46.7341 84.3663 47.0355 83.8212 47.5811C83.4912 47.9112 83.2473 48.2989 83.1182 48.7295H83.0178H82.1427H77.1215C77.9248 48.1409 79.0008 47.3083 80.1342 46.3034L80.7798 45.7292C80.8085 45.7005 80.8515 45.6717 80.8802 45.6287C80.1198 45.1693 79.6034 44.3366 79.6034 43.3892C79.6034 41.9536 80.7654 40.7908 82.2 40.7908C83.0608 40.7908 83.8355 41.2071 84.2946 41.8531C84.3233 41.81 84.352 41.767 84.3807 41.7383L84.8685 41.0061C85.6432 39.8433 86.2457 38.6948 86.6617 37.5751C86.7191 37.4172 86.7909 37.2305 86.8626 37.0295C86.8339 37.3741 86.9774 37.7761 87.3647 37.8335C87.4221 37.8335 87.4938 37.8335 87.5656 37.8335C87.5512 37.8622 87.5512 37.8765 87.5369 37.9053C86.8769 39.7428 85.7292 41.6378 84.1368 43.5471L83.8499 43.8916L83.8642 43.4179C83.8642 42.4848 83.1182 41.7383 82.2 41.7383C81.2819 41.7383 80.5359 42.4848 80.5359 43.4035C80.5359 44.3223 81.2819 45.0688 82.2 45.0688C82.2574 45.0688 82.3148 45.0688 82.3865 45.0544L82.8313 44.997L82.5157 45.3128C81.6836 46.1455 80.7798 46.9925 79.8186 47.7964H82.5013C83.1756 46.5618 84.4524 45.8009 85.844 45.8009C87.2499 45.8009 88.5268 46.5618 89.1867 47.7964H91.4678C91.2239 47.4662 91.023 47.1217 90.8365 46.7771C89.7175 44.6812 89.531 42.3555 90.2914 40.0586L90.3201 39.9868C90.4061 39.9438 90.4779 39.9007 90.5639 39.8433C90.7074 39.7428 90.8509 39.6279 90.9513 39.5275C91.2669 39.226 91.3673 39.0968 91.3673 39.0968C91.3673 39.0968 91.2526 39.4557 91.1378 39.8433C91.0948 40.0156 91.0804 40.274 91.1378 40.4893C90.8222 41.5086 90.7074 42.5135 90.7935 43.5184C90.8939 44.4802 91.1808 45.4277 91.6543 46.3178V46.3321ZM80.2489 39.9725C80.2489 39.9438 80.335 39.872 80.3781 39.8289C80.665 39.5705 81.4253 39.1399 82.4009 38.6518C83.5056 38.1062 84.2946 37.8191 84.6676 37.7186C84.4811 37.9483 83.9073 38.4221 82.7022 39.0681C82.0996 39.3839 81.5975 39.6567 80.6363 39.9438C80.3781 40.0156 80.2633 40.0012 80.2489 39.9725ZM79.0008 39.4126C78.6565 39.4987 78.5417 39.4844 78.4987 39.4557C78.4844 39.4557 78.4844 39.4413 78.4844 39.4413C78.47 39.3983 78.5991 39.3121 78.6709 39.2691C79.0582 38.9819 80.4928 38.3216 81.7984 37.8191C83.3047 37.2449 84.3376 36.9578 84.8254 36.8716C84.5815 37.1157 83.8355 37.6181 82.157 38.3216C81.368 38.6518 80.3781 39.0681 79.0008 39.3983V39.4126ZM78.0253 38.5369C77.5949 38.623 77.4514 38.6087 77.4084 38.5656C77.394 38.5513 77.394 38.5513 77.394 38.5513C77.3797 38.4938 77.5375 38.3933 77.6379 38.3359C78.1257 38.0057 79.9046 37.2592 81.5258 36.7137C83.4195 36.0677 84.7107 35.7806 85.2988 35.7088C85.0119 35.9959 84.0794 36.5845 81.9418 37.3741C80.9519 37.7473 79.7325 38.1924 78.0253 38.5369ZM85.1984 34.6465C85.2558 34.4742 85.8153 34.0292 86.2601 33.6272C87.1208 32.8377 87.2786 32.7372 87.7664 32.4788C88.2685 32.2204 88.5411 32.2634 88.5411 32.2634C88.3546 32.4644 88.0246 33.0817 87.3217 33.699C86.8913 34.0723 86.3461 34.4599 85.8584 34.6465C85.4997 34.79 85.1554 34.8044 85.1984 34.6465ZM84.8398 33.5698C84.4811 33.7134 84.1368 33.7564 84.1798 33.5985C84.2229 33.4837 84.7967 32.9525 85.2415 32.5793C86.0449 31.8758 86.1166 31.804 86.547 31.56C87.0348 31.2729 87.3791 31.3303 87.3791 31.3303C87.1926 31.5313 87.0061 32.005 86.3031 32.6223C85.8727 32.9956 85.3275 33.3832 84.8398 33.5698ZM83.3191 32.852C82.9604 32.9956 82.6161 33.0386 82.6591 32.8807C82.7022 32.7659 83.2904 32.2491 83.7208 31.8615C84.5815 31.0719 84.7824 30.914 85.2702 30.6699C85.7723 30.4115 86.1022 30.4402 86.1022 30.4402C85.8584 30.6699 85.4854 31.2872 84.7824 31.9045C84.352 32.2778 83.8068 32.6654 83.3191 32.852ZM81.411 32.7085C80.995 32.9094 80.8228 32.9094 80.7941 32.8089C80.7511 32.6941 81.1384 32.3783 81.8701 31.6031C82.7739 30.6412 83.1899 30.2536 83.7494 29.9234C84.3233 29.5789 84.725 29.6076 84.725 29.6076C84.3376 29.8947 83.8929 30.5982 83.1182 31.4021C82.6448 31.8902 81.9849 32.45 81.4253 32.7085H81.411ZM79.6321 32.5075C79.4456 32.5793 79.3451 32.6223 79.216 32.6367C78.9147 32.6941 79.0152 32.5649 79.0726 32.5075C79.4312 32.2204 80.3207 31.3016 80.4355 31.1724C81.6405 29.7799 81.8988 29.4928 82.53 29.0764C83.0321 28.7463 83.4912 28.7175 83.4912 28.7175C83.1182 29.019 82.3722 30.1101 81.6118 30.9283C81.1528 31.4308 80.2059 32.2634 79.6321 32.5075ZM78.513 33.8138C77.8818 34.4168 77.4227 34.6465 77.2075 34.7613C77.0067 34.8762 76.7628 34.9623 76.7198 34.8762C76.6911 34.8188 76.7628 34.6321 76.8345 34.5173C77.0784 34.1297 77.2362 33.9431 77.4801 33.7421C78.4413 32.9525 79.1156 33.0961 79.1156 33.0961C79.1156 33.0961 79.0439 33.297 78.513 33.8138ZM78.2835 31.4595C79.7755 29.5645 80.1485 29.1626 80.9519 28.5883C81.5832 28.129 82.114 28.0572 82.114 28.0572C81.6405 28.4735 80.5933 29.9521 79.6464 31.0719C79.0726 31.7466 78.4126 32.407 77.681 32.7659C77.1358 33.0243 76.6624 33.053 76.6624 33.053C77.0497 32.8664 78.0827 31.7035 78.2835 31.4595ZM80.8658 26.6647C80.3924 26.9231 79.9907 26.9805 79.589 26.9518C79.1443 26.9087 78.9291 26.7077 78.9291 26.7077C79.2304 26.5929 79.7181 26.3345 79.9907 26.2196C80.4928 25.9899 80.8515 25.789 81.4971 25.6454C82.2287 25.4731 82.7165 25.6741 82.7165 25.6741C82.2431 25.9182 81.4971 26.3488 80.8658 26.679V26.6647ZM83.3191 26.4206C83.9503 26.2627 84.3663 26.4206 84.3663 26.4206C83.9646 26.636 83.3191 27.0236 82.7882 27.3107C82.3865 27.5404 82.0422 27.5978 81.6979 27.5834C81.3106 27.5547 81.1241 27.3968 81.1241 27.3968C81.3823 27.2963 81.7984 27.0666 82.0279 26.9518C82.4583 26.7508 82.7596 26.5642 83.3191 26.435V26.4206ZM85.514 25.5593C84.8972 25.8033 84.395 25.832 83.9216 25.7315C83.3764 25.6167 82.8313 25.2578 82.8313 25.2578C83.3334 25.3296 84.1655 25.0281 84.5098 24.9276C85.2271 24.7266 85.4997 24.6118 86.3748 24.4969C87.293 24.3677 87.9099 24.6261 87.9099 24.6261C87.293 24.8558 86.3174 25.2434 85.514 25.5593ZM87.3791 26.6072C86.8196 26.8226 86.3748 26.8513 85.9444 26.7652C85.4567 26.6647 84.9689 26.3058 84.9689 26.3058C85.4136 26.3632 86.174 26.1048 86.4752 26.0043C87.1065 25.832 87.4795 25.6454 88.2112 25.5593C89.0432 25.4588 89.5454 25.7315 89.5454 25.7315C89.0002 25.9469 88.1251 26.3201 87.3791 26.6072ZM88.5411 27.8275C88.039 28.0572 87.623 28.1002 87.2213 28.0428C86.7622 27.971 86.2887 27.6121 86.2887 27.6121C86.7048 27.6409 87.3934 27.3681 87.6803 27.2676C88.2542 27.0666 88.5411 26.9231 89.2154 26.8226C89.9757 26.7077 90.5066 26.8656 90.5066 26.8656C90.0044 27.081 89.2154 27.526 88.5411 27.8275ZM85.9014 29.5932C86.2027 29.5071 86.4322 29.421 86.8339 29.3779C87.2786 29.3348 87.5369 29.4928 87.5369 29.4928C87.2356 29.5932 86.7622 29.7799 86.3748 29.9234C86.0736 30.0383 85.844 30.0383 85.6145 29.9809C85.3562 29.9234 85.2558 29.7942 85.2558 29.7942C85.4423 29.7512 85.7436 29.6363 85.9157 29.5932H85.9014ZM83.3478 28.3156C82.9747 28.2869 82.8169 28.129 82.8169 28.129C83.0608 28.0428 83.4625 27.8275 83.6777 27.727C84.0794 27.5404 84.3376 27.4399 84.8685 27.3107C85.471 27.1671 85.8584 27.325 85.8584 27.325C85.471 27.526 84.9115 27.8131 84.395 28.0859C84.0077 28.2869 83.6777 28.3443 83.3621 28.3156H83.3478ZM84.9545 28.6314C85.3275 28.4878 85.514 28.4017 86.0018 28.3299C86.547 28.2438 86.8913 28.4161 86.8913 28.4161C86.5326 28.574 85.9014 28.9329 85.471 29.0764C85.098 29.2056 84.8828 29.2056 84.5959 29.1626C84.2659 29.1051 84.1225 28.9472 84.1225 28.9472C84.352 28.8755 84.7393 28.7032 84.9402 28.6314H84.9545ZM89.5023 29.1626C89.0576 29.4066 88.6702 29.4784 88.2972 29.4497C87.8668 29.421 87.4078 29.0334 87.4078 29.0334C87.7951 29.0334 88.412 28.7319 88.6702 28.6171C89.1867 28.4017 89.4449 28.2438 90.0618 28.1002C90.7648 27.9423 91.2526 28.0572 91.2526 28.0572C90.8078 28.3012 90.1049 28.8467 89.5023 29.1626ZM90.3057 30.6556C89.9184 30.9283 89.6171 31.0862 89.2297 31.0432C88.785 31.0001 88.3546 30.6269 88.3546 30.6269C88.7133 30.5838 89.2441 30.2393 89.4736 30.1101C89.9327 29.8516 90.1479 29.6794 90.6931 29.4928C91.3243 29.2631 91.7834 29.3205 91.7834 29.3205C91.396 29.5932 90.8222 30.2823 90.3057 30.6412V30.6556ZM91.0661 32.206C90.7218 32.4931 90.4205 32.6797 90.0762 32.651C89.6314 32.6367 89.2154 32.2634 89.2154 32.2634C89.5597 32.206 90.0331 31.8327 90.234 31.6892C90.65 31.4164 90.8365 31.2442 91.353 31.0145C91.9268 30.7561 92.3716 30.7704 92.3716 30.7704C92.0273 31.0575 91.5251 31.8184 91.0661 32.1916V32.206ZM89.3589 37.2018C89.7606 36.6276 90.0188 36.3118 90.3344 36.0103C90.7361 35.594 91.0087 35.5222 91.0087 35.5222C91.0087 35.8237 90.7648 36.3692 90.3201 37.0583C90.0475 37.4746 89.6314 37.9483 89.3302 38.2067C89.0719 38.4221 88.8567 38.5226 88.7563 38.4077C88.6846 38.3072 89.0289 37.6899 89.3589 37.2162V37.2018ZM86.8913 35.9098C86.547 36.0677 86.2457 36.1395 86.2314 35.9385C86.2314 35.8237 86.8052 35.2494 87.2213 34.8044C88.0103 33.9718 88.2398 33.8138 88.7276 33.5267C89.201 33.2396 89.488 33.254 89.488 33.254C89.2728 33.6272 88.9572 34.1727 88.2972 34.8331C87.8955 35.2351 87.3791 35.6945 86.9056 35.9098H86.8913ZM88.1968 35.9959C88.6702 35.4217 89.0002 35.0915 89.3589 34.8044C89.8323 34.4168 90.1336 34.3737 90.1336 34.3737C90.0618 34.6465 89.7892 35.2494 89.2297 35.9242C88.8998 36.3261 88.455 36.7999 88.0246 37.0439C87.709 37.2305 87.4938 37.288 87.4364 37.1588C87.3791 37.0295 87.8381 36.4266 88.1968 35.9959ZM93.9066 33.4837C93.6484 33.7851 93.3184 34.6034 92.9741 35.0197C92.7159 35.3356 92.4577 35.5222 92.1564 35.5796C91.7834 35.637 91.3386 35.3069 91.3386 35.3069C91.6256 35.192 91.9986 34.79 92.1564 34.6465C92.4864 34.3307 92.6298 34.144 93.0315 33.8713C93.5049 33.5554 93.9066 33.498 93.9066 33.498V33.4837ZM92.0129 33.6703C91.7117 33.9718 91.4391 34.1727 91.1235 34.2015C90.7218 34.2445 90.277 33.8569 90.277 33.8569C90.5926 33.7564 90.9943 33.3688 91.1808 33.2109C91.5395 32.9094 91.7117 32.7228 92.1564 32.45C92.6729 32.1486 93.1032 32.1199 93.1032 32.1199C92.802 32.4213 92.4146 33.254 92.0129 33.6703ZM75.1704 33.455C74.5248 33.7995 73.9366 33.8426 73.9366 33.8426C74.3957 33.6129 75.4573 32.3639 75.6725 32.0768C77.4227 29.7224 78.2979 28.818 79.2591 28.0859C80.0051 27.5117 80.5789 27.4542 80.5789 27.4542C80.0338 27.971 78.3983 30.1675 77.2936 31.56C76.6193 32.407 76.0311 32.9956 75.156 33.455H75.1704ZM75.3712 34.747C74.6252 35.5222 73.7931 36.1826 73.5492 36.3261C73.3053 36.484 73.0328 36.6707 72.961 36.5702C72.918 36.5127 73.0041 36.3261 73.0758 36.1969C73.3627 35.7232 73.6066 35.3786 74.1518 34.8475C75.3856 33.6272 76.4185 33.5411 76.4185 33.5411C76.4185 33.5411 76.3754 33.699 75.3712 34.747ZM71.8994 36.4266C71.1964 37.3167 70.393 38.1062 70.1491 38.2929C69.9053 38.4795 69.647 38.7092 69.561 38.6087C69.5036 38.5513 69.5753 38.4077 69.647 38.2641C69.9053 37.733 70.1635 37.3884 70.6656 36.7711C71.7272 35.4648 73.0328 34.7613 73.0328 34.7613C73.0328 34.7613 72.8463 35.2351 71.8851 36.4553L71.8994 36.4266ZM68.8149 37.9053C67.9685 39.226 66.5913 40.5611 66.1178 40.963C65.8309 41.2214 65.587 41.3506 65.544 41.3363C65.544 41.3363 65.544 41.3363 65.544 41.3219C65.5583 41.2214 65.7161 41.0205 65.8309 40.8482C65.8596 40.8051 65.8883 40.7764 65.9026 40.7333L65.9313 40.7046C66.6343 39.6423 67.1795 38.824 67.4664 38.4221C68.901 36.3692 69.7044 35.8093 69.934 35.6801C69.8909 35.8954 69.6901 36.5415 68.8149 37.9196V37.9053ZM71.0673 34.2589C71.799 33.2109 72.3298 32.5218 73.9653 30.7561C75.859 28.7175 77.4084 27.6409 78.2548 27.2963C78.054 27.5117 77.8962 27.7413 77.6379 28.1146C77.3653 28.5166 76.978 29.0764 76.2894 29.9665C74.8691 31.8184 73.5492 33.254 72.215 34.3594C71.8564 34.6608 70.8808 35.4648 70.5652 35.4361C70.5365 35.4361 70.5222 35.4217 70.5078 35.4073C70.4791 35.3643 70.4361 35.1777 71.0817 34.2732L71.0673 34.2589ZM101.654 30.268C102.242 30.4115 102.887 30.6699 103.017 30.7991C103.017 30.7991 102.457 30.9427 101.596 30.7991C100.865 30.6843 100.406 30.4259 100.162 30.2393C100.162 30.2393 100.549 30.0096 101.654 30.268ZM98.9565 22.1139L98.1245 19.6734L97.2924 22.1139C97.1919 22.401 96.575 24.2242 95.786 26.6072C95.5852 26.1766 95.4273 25.8464 95.3269 25.631C95.3126 25.588 95.2839 25.5593 95.2695 25.5306C95.2552 25.4875 95.2265 25.4588 95.2122 25.4157L98.1245 16.7161L102.572 29.9952C102.5 29.9809 102.428 29.9521 102.357 29.9378C102.07 29.866 101.783 29.7942 101.51 29.7368C100.248 25.9756 99.0857 22.5015 98.9565 22.1139ZM97.8662 29.622C97.608 29.6794 97.4071 29.7368 97.278 29.7942C96.9481 29.1195 96.6181 28.4304 96.3312 27.7988C97.3067 24.8702 98.0814 22.5589 98.1388 22.4153C98.1818 22.5445 98.727 24.1811 99.4874 26.435C99.2435 26.8082 98.4544 28.0859 97.8806 29.6363L97.8662 29.622ZM93.5049 18.8551L93.7632 18.166L93.8493 17.9363C92.515 17.8502 91.4534 16.7448 91.4534 15.381C91.4534 14.6345 91.769 13.9741 92.2712 13.5004L91.9125 12.9549L91.8264 12.8257H95.8434C96.1877 13.7875 97.0772 14.534 98.1388 14.534C99.2004 14.534 100.09 13.7732 100.434 12.8257H104.451L104.365 12.9549L104.006 13.5004C104.509 13.9741 104.824 14.6345 104.824 15.381C104.824 16.7448 103.763 17.8502 102.428 17.9363L102.514 18.166L102.773 18.8551C104.006 22.2431 105.785 27.124 107.249 31.1437C106.99 31.1006 106.704 31.0575 106.402 30.9858C106.331 30.9714 106.259 30.957 106.187 30.9427C103.978 24.8702 101.195 17.2473 101.152 17.1324L101.108 17.0032H102.271C103.174 17.0032 103.892 16.2711 103.892 15.381C103.892 14.4766 103.16 13.7588 102.271 13.7588H101.008C100.377 14.8211 99.2722 15.4815 98.1388 15.4815C96.9911 15.4815 95.9008 14.8211 95.2695 13.7588H94.0071C93.1032 13.7588 92.3859 14.4909 92.3859 15.381C92.3859 16.2854 93.1176 17.0032 94.0071 17.0032H95.1691L95.1261 17.1324C95.0974 17.1898 94.2796 19.4437 93.1893 22.4584C93.1463 22.4153 93.0889 22.3579 93.0459 22.3149C92.8594 22.1282 92.6585 21.956 92.4433 21.7837C92.8307 20.7357 93.1893 19.7452 93.5049 18.8551ZM133.373 14.1177C131.953 13.2133 130.275 12.9692 129.658 12.9118C129.93 12.6534 129.514 12.4668 128.998 12.4094C127.793 12.2802 126.43 12.4955 125.641 12.7108C125.755 12.4668 125.483 12.194 124.436 12.3376C124.106 12.3806 122.872 12.6534 121.753 13.1702C121.796 12.84 121.365 12.7252 120.505 12.9692C120.031 13.0984 118.754 13.687 117.894 14.4335C118.037 14.2182 117.664 13.8736 116.846 14.2182C116.057 14.5484 115.469 15.0078 114.824 15.6107C114.781 15.3666 114.637 15.137 113.905 15.4671C113.102 15.826 112.141 16.7448 112.141 16.7448C112.141 16.3716 111.682 16.4433 111.165 16.6874C110.261 17.1324 109.63 17.7354 109.3 18.1373C109.3 17.8502 109.056 17.6923 108.612 17.965C107.837 18.4244 107.019 19.5873 107.019 19.5873C107.019 19.1709 106.704 19.2284 106.244 19.5155C105.585 19.9461 104.509 21.109 104.509 21.109C104.179 20.2046 103.863 19.3288 103.576 18.5393C104.853 18.0081 105.685 16.7735 105.685 15.3666C105.685 14.6632 105.47 13.9885 105.082 13.4143L106.058 11.9213H99.6882C99.6882 12.8257 98.9996 13.6296 98.1245 13.6296C97.2493 13.6296 96.5607 12.8113 96.5607 11.9213H90.1909L91.1665 13.4143C90.7648 13.9885 90.5639 14.6632 90.5639 15.3666C90.5639 16.7735 91.396 18.0081 92.6729 18.5393C92.3716 19.3719 92.0416 20.2763 91.683 21.2382C90.65 20.5922 89.3589 20.1471 87.7664 20.1471C83.1899 20.1471 79.3164 23.5495 77.8818 24.7841C77.3797 25.2147 76.7485 25.8607 76.0455 26.6216C76.0455 26.6216 76.0455 26.6216 76.0311 26.636C75.9594 26.7221 75.8877 26.7939 75.8016 26.88C74.367 28.373 70.8808 30.8566 68.485 32.0337C67.825 32.3639 66.62 32.9812 65.8309 33.2253C65.7305 33.254 65.6444 33.2827 65.5583 33.297C65.4005 33.3258 65.3862 33.4837 65.5009 33.5554C65.5727 33.5985 65.6874 33.6416 65.8453 33.6559C66.4478 33.7277 67.5525 33.3114 68.3989 32.8951C69.3027 32.45 70.6082 31.6461 70.6082 31.6461L70.6513 31.6892C70.6513 31.6892 68.485 33.6416 67.3229 34.5316C66.1609 35.4217 64.9988 36.3692 63.2773 37.1731C62.9043 37.3454 62.6173 37.4028 62.6317 37.4746C62.646 37.6181 62.9473 37.6468 63.3347 37.5607C64.2241 37.3597 64.8697 37.0152 65.6874 36.5271C67.2082 35.6227 68.5854 34.345 68.858 34.1584L68.901 34.2158C68.901 34.2158 66.7921 36.685 65.9744 37.4602C65.1566 38.2354 63.7937 39.4126 62.4452 40.3744C62.1152 40.6041 61.9287 40.7477 62.0291 40.8482C62.1152 40.9343 62.2156 40.8913 62.5026 40.8195C63.0334 40.6616 64.0663 40.073 65.6301 38.781C66.9212 37.7186 68.0833 36.4697 68.7576 35.6801C68.7576 35.6801 68.9154 35.4504 69.1449 35.1489C67.452 37.6325 65.0132 41.2502 64.6976 41.6952C64.3963 42.1259 64.1237 42.4848 64.0663 42.657C64.0089 42.8293 64.095 42.9441 64.3389 42.9154C64.6976 42.8867 65.5583 42.4417 66.6773 41.3937C67.739 40.3888 69.1593 38.3216 69.1593 38.3216L69.231 38.3646C69.231 38.3646 68.9441 38.9676 68.8436 39.2116C68.7576 39.4413 68.6284 39.7284 68.8293 39.8002C69.1162 39.9007 69.647 39.5562 70.1061 39.1829C71.1821 38.2929 72.6741 36.2687 72.6741 36.2687L72.7171 36.3118C72.7171 36.3118 72.5163 36.7137 72.4159 36.9721C72.3154 37.2305 72.3011 37.5176 72.545 37.5464C72.7889 37.5751 73.2336 37.3454 73.9366 36.8142C74.7687 36.1969 76.5476 34.2015 76.5476 34.2015L76.5906 34.2445C76.5906 34.2445 76.3754 34.6034 76.232 34.8905C76.1172 35.1489 76.1316 35.4073 76.3181 35.4648C76.605 35.5509 77.0497 35.4361 78.1113 34.7039C79.2304 33.9287 79.962 32.9238 80.292 32.5936L80.335 32.6223C80.335 32.6223 80.1198 32.9669 80.0481 33.1678C79.9764 33.3832 79.9333 33.6416 80.1485 33.6703C80.4498 33.699 80.9519 33.498 81.5688 33.0961C82.1283 32.7372 82.5444 32.407 82.5444 32.407L82.5874 32.45C82.4152 32.6367 82.2718 32.8807 82.157 33.0673C82.0709 33.1966 81.9562 33.4406 82.114 33.5698C82.2718 33.699 82.6591 33.5842 83.1182 33.4119C83.6203 33.2253 84.4811 32.7085 84.4811 32.7085L84.5385 32.7659C84.4381 32.852 83.9933 33.2827 83.8355 33.4837C83.6777 33.6703 83.5486 33.9287 83.6203 34.0866C83.7064 34.2445 84.022 34.2589 84.4668 34.1584C85.0119 34.0435 85.9444 33.5554 85.9444 33.5554C85.9444 33.5554 85.2128 34.1297 84.8972 34.4311C84.6389 34.6752 84.4955 35.0197 84.5959 35.1777C84.6246 35.2207 84.6676 35.2494 84.725 35.2638C84.6963 35.2781 84.6533 35.2781 84.6246 35.2925C83.2473 35.6945 80.1342 36.6276 77.7097 37.7761C76.232 38.4795 76.0598 38.8097 76.1603 39.0537C76.2463 39.2403 76.9206 39.1829 77.4084 39.0968C77.8962 39.0106 79.0008 38.7379 79.1299 38.6948L79.1873 38.7522C79.1873 38.7522 78.4413 39.0537 78.1831 39.2116C77.9248 39.3695 77.5375 39.6136 77.6092 39.8433C77.681 40.073 78.5848 39.8864 79.0008 39.8002C79.6751 39.6567 80.5072 39.3121 80.5789 39.2547L80.6076 39.3121C80.6076 39.3121 79.4456 39.9725 79.5029 40.3744C79.5316 40.5754 79.9477 40.5324 80.3637 40.4462C79.3738 41.0635 78.7139 42.1546 78.7139 43.4035C78.7139 44.2362 79.0008 45.0257 79.5316 45.6574C77.2219 47.7103 75.1847 49.0023 75.156 49.0166L74.1948 49.6196H83.8212C83.8212 48.5142 84.725 47.6241 85.8153 47.6241C86.92 47.6241 87.8095 48.5142 87.8095 49.6196H96.1303H96.116C93.0459 47.7964 90.6644 44.6238 91.9699 40.6616C92.1133 40.5467 92.2425 40.4319 92.3429 40.317C92.7015 39.9438 93.0889 39.1686 93.0889 39.1686L93.1606 39.2116C93.1319 39.4413 92.9885 40.1017 92.9741 40.4749C92.9598 40.7908 92.9454 41.4368 93.3902 41.4942C93.6484 41.5229 94.0214 41.2502 94.2366 40.7046L94.8105 40.9487C94.8678 41.2932 95.0256 41.6378 95.3413 41.6378C95.6138 41.6378 95.7573 41.4081 95.8147 41.1353C96.2738 41.2358 98.4114 41.6952 100.75 41.6952C101.969 41.6952 103.203 41.5803 104.408 41.2932C105.269 44.9396 102.974 47.8682 100.076 49.5909H100.061H108.382C108.382 48.4855 109.286 47.5954 110.376 47.5954C111.481 47.5954 112.37 48.4855 112.37 49.5909H121.997L121.036 48.9879C121.021 48.9736 118.984 47.6816 116.66 45.6287C117.191 44.997 117.478 44.2074 117.478 43.3748C117.478 41.4511 115.914 39.8864 113.991 39.8864C113.288 39.8864 112.614 40.1017 112.04 40.4893C111.452 39.6136 110.964 38.7379 110.606 37.8909C111.753 36.9003 111.94 36.5702 113.102 35.7232C114.494 34.7183 116.029 34.101 117.133 33.1678C117.707 32.6797 118.08 31.9763 118.181 31.5026C118.353 30.7561 118.037 30.3828 118.037 30.3828C117.937 30.5694 117.836 30.914 117.234 31.2298C116.832 31.4451 116.66 31.5026 116.66 31.5026C116.961 31.115 116.961 31.115 117.291 30.6269C117.722 29.9952 118.066 29.7368 118.324 29.7368C118.726 29.7368 118.683 30.2393 118.683 30.2393C118.97 30.0813 119.099 29.6794 119.113 29.1913C119.113 28.9185 118.912 28.3012 117.994 28.2869C117.119 28.2582 116.115 28.9759 115.957 29.1051C115.9 28.7175 115.469 28.3874 114.881 28.4448C114.307 28.5022 113.748 28.5596 112.413 29.3492C111.639 29.8086 109.946 31.0288 108.138 31.158C108.153 31.158 110.089 30.5551 112.141 28.3586C114.737 25.5736 116.975 21.152 120.691 18.2809C122.872 16.6012 124.579 15.9265 126.085 15.8547C127.821 15.783 127.893 16.2854 128.051 16.1993C128.209 16.1132 128.237 15.8117 127.663 15.5533C126.473 15.0365 124.651 15.381 124.651 15.381C124.966 15.0795 126.243 14.6201 127.663 14.7063C128.797 14.7781 129.643 15.0365 130.145 15.5533C130.318 15.7255 130.375 15.9265 130.533 15.8835C130.691 15.8404 130.734 15.5389 130.576 15.3236C129.858 14.2756 127.793 14.2182 127.793 14.2182C128.668 14.0459 129.772 14.2469 130.375 14.4192C130.963 14.5914 131.365 14.7637 131.853 15.0939C132.097 15.2518 132.24 15.4671 132.412 15.4241C132.67 15.3523 132.498 15.0221 132.283 14.8068C131.738 14.2613 130.748 13.9311 130.748 13.9311C131.092 13.9024 131.767 13.9741 132.599 14.3474C133.517 14.7637 133.904 15.2087 134.033 15.1226C134.291 14.9647 133.775 14.3761 133.302 14.0746L133.373 14.1177Z" fill="#E4B308"/>
</svg>
