<svg width="172" height="30" viewBox="0 0 172 30" fill="none" xmlns="http://www.w3.org/2000/svg">
<g clip-path="url(#clip0_368_5995)">
<path d="M38.7725 8.26416H44.6523C47.7672 8.26416 49.0914 9.64456 49.0914 11.6634V11.7382C49.0914 13.1934 48.3389 14.1539 46.8631 14.5335C48.4847 14.8038 49.4997 15.7701 49.4997 17.5646V17.6394C49.4997 19.9631 47.9714 21.2572 44.7106 21.2572H38.7783V8.26416H38.7725ZM43.894 13.4234C45.0723 13.4234 45.5156 13.0266 45.5156 12.0948V12.02C45.5156 11.1285 45.0373 10.7316 43.894 10.7316H42.459V13.4177H43.894V13.4234ZM44.0223 18.7667C45.2181 18.7667 45.7723 18.2203 45.7723 17.2598V17.185C45.7723 16.2015 45.2356 15.6953 43.9115 15.6953H42.4532V18.7667H44.0223Z" fill="black"/>
<path d="M50.4326 18.623C50.4326 16.3914 52.3517 15.5171 55.5541 15.5171H56.4758V15.2986C56.4758 14.3898 56.2541 13.7916 55.2041 13.7916C54.3 13.7916 53.9675 14.3208 53.8975 14.9189H50.8001C50.9459 12.6298 52.7717 11.5024 55.4083 11.5024C58.0449 11.5024 59.754 12.5723 59.754 15.0972V21.2573H56.5458V20.1472C56.085 20.8374 55.2391 21.4759 53.6875 21.4759C51.9551 21.4759 50.4268 20.6419 50.4268 18.623H50.4326ZM56.4758 17.9328V17.3519H55.6125C54.2883 17.3519 53.6933 17.605 53.6933 18.3872C53.6933 18.9336 54.0608 19.2787 54.8367 19.2787C55.7758 19.2787 56.4758 18.7496 56.4758 17.9328Z" fill="black"/>
<path d="M61.7256 7.57397H65.0038V21.2515H61.7256V7.57397Z" fill="black"/>
<path d="M66.498 18.623C66.498 16.3914 68.4171 15.5171 71.6196 15.5171H72.5412V15.2986C72.5412 14.3898 72.3195 13.7916 71.2696 13.7916C70.3654 13.7916 70.0329 14.3208 69.9629 14.9189H66.8655C67.0113 12.6298 68.8371 11.5024 71.4737 11.5024C74.1103 11.5024 75.8195 12.5723 75.8195 15.0972V21.2573H72.6112V20.1472C72.1504 20.8374 71.3046 21.4759 69.7529 21.4759C68.0205 21.4759 66.4922 20.6419 66.4922 18.623H66.498ZM72.5412 17.9328V17.3519H71.6721C70.3479 17.3519 69.7588 17.605 69.7588 18.3872C69.7588 18.9336 70.1263 19.2787 70.9021 19.2787C71.8412 19.2787 72.5412 18.7496 72.5412 17.9328Z" fill="black"/>
<path d="M77.6973 11.7554H80.993V13.2796C81.5063 12.2961 82.5563 11.4966 84.1604 11.4966C86.0212 11.4966 87.3104 12.6412 87.3104 15.0741V21.2514H84.0146V15.7298C84.0146 14.66 83.5888 14.1309 82.6321 14.1309C81.6755 14.1309 80.993 14.7118 80.993 15.9311V21.2514H77.6973V11.7554Z" fill="black"/>
<path d="M88.6758 16.6214V16.4776C88.6758 13.3142 90.9799 11.5024 93.8148 11.5024C96.1714 11.5024 98.3472 12.5205 98.5339 15.4078H95.4364C95.2906 14.5163 94.8473 14.0274 93.8906 14.0274C92.7298 14.0274 92.0473 14.8442 92.0473 16.4431V16.5869C92.0473 18.2377 92.6948 19.0947 93.9431 19.0947C94.8648 19.0947 95.5064 18.5483 95.6173 17.513H98.5863C98.493 19.9114 96.8539 21.4759 93.739 21.4759C90.8632 21.4759 88.6699 19.8251 88.6699 16.6272L88.6758 16.6214Z" fill="black"/>
<path d="M99.4199 16.6214V16.4776C99.4199 13.4235 101.724 11.5024 104.635 11.5024C107.271 11.5024 109.535 12.9921 109.535 16.4086V17.2599H102.757C102.85 18.5137 103.585 19.2385 104.763 19.2385C105.848 19.2385 106.309 18.7496 106.443 18.1111H109.541C109.249 20.2565 107.569 21.4701 104.658 21.4701C101.747 21.4701 99.4258 19.7274 99.4258 16.6214H99.4199ZM106.326 15.4251C106.268 14.2805 105.702 13.6421 104.629 13.6421C103.631 13.6421 102.955 14.2805 102.786 15.4251H106.321H106.326Z" fill="black"/>
<path d="M114.872 8.26416H120.752C123.867 8.26416 125.191 9.64456 125.191 11.6634V11.7382C125.191 13.1934 124.439 14.1539 122.963 14.5335C124.584 14.8038 125.599 15.7701 125.599 17.5646V17.6394C125.599 19.9631 124.071 21.2572 120.81 21.2572H114.878V8.26416H114.872ZM119.994 13.4234C121.172 13.4234 121.615 13.0266 121.615 12.0948V12.02C121.615 11.1285 121.137 10.7316 119.994 10.7316H118.559V13.4177H119.994V13.4234ZM120.122 18.7667C121.318 18.7667 121.872 18.2203 121.872 17.2598V17.185C121.872 16.2015 121.335 15.6953 120.011 15.6953H118.553V18.7667H120.122Z" fill="black"/>
<path d="M127.011 17.9501V11.7555H130.306V17.4209C130.306 18.4907 130.732 19.0199 131.671 19.0199C132.669 19.0199 133.311 18.439 133.311 17.2196V11.7498H136.606V21.2515H133.311V19.7791C132.797 20.7626 131.852 21.4701 130.254 21.4701C128.393 21.4701 127.011 20.3428 127.011 17.9443V17.9501Z" fill="black"/>
<path d="M138.561 11.7554H141.856V13.2796C142.37 12.2961 143.42 11.4966 145.024 11.4966C146.885 11.4966 148.174 12.6412 148.174 15.0741V21.2514H144.878V15.7298C144.878 14.66 144.452 14.1309 143.495 14.1309C142.539 14.1309 141.856 14.7118 141.856 15.9311V21.2514H138.561V11.7554Z" fill="black"/>
<path d="M150.058 11.7554H153.353V13.2796C153.867 12.2961 154.917 11.4966 156.521 11.4966C158.382 11.4966 159.671 12.6412 159.671 15.0741V21.2514H156.375V15.7298C156.375 14.66 155.949 14.1309 154.992 14.1309C154.036 14.1309 153.353 14.7118 153.353 15.9311V21.2514H150.058V11.7554Z" fill="black"/>
<path d="M164.203 20.291L160.354 11.7498H163.929L165.918 16.817L167.762 11.7498H170.912L165.755 24.4322H162.605L164.209 20.291H164.203Z" fill="black"/>
<path d="M19.1438 22.005C17.1197 22.5514 14.4889 22.885 11.6073 22.885C8.72571 22.885 6.09494 22.5571 4.07083 22.0107V26.7904C4.06499 27.5208 4.28082 27.8199 4.70664 28.1823C5.43579 28.8034 7.04575 29.7467 11.3156 29.7467C15.5855 29.7467 17.6388 28.6712 18.508 28.119C19.0505 27.7739 19.1788 27.308 19.138 26.7271V22.005H19.1438ZM8.92404 1.03431C8.01406 1.54621 7.32575 2.73106 6.82993 4.65212C6.36327 6.44665 6.3516 8.6783 6.78909 11.2896C6.96409 12.3249 7.19158 13.3544 7.48324 14.361C6.78326 15.0569 6.32244 15.8392 6.02495 16.5696C2.4667 17.185 0.0517578 18.3756 0.0517578 19.7445C0.0517578 21.7461 5.2258 23.3681 11.6015 23.3681C17.9772 23.3681 23.1512 21.7461 23.1512 19.7445C23.1512 18.4044 20.8413 17.2368 17.4055 16.6099C17.4172 14.522 17.6097 12.043 18.3096 10.3578C18.5371 9.81714 18.7821 9.27648 19.0213 8.75883C19.5521 7.60274 20.0479 6.50992 20.2579 5.52063C20.5088 4.30702 20.2813 3.38675 19.5579 2.6908C18.893 2.05811 18.0355 1.8568 17.1488 2.12138C16.3439 2.3687 15.5797 2.98413 14.9381 3.91015C14.2672 4.87644 13.7539 6.15906 13.4506 7.61999C13.1064 9.28223 12.8906 10.6454 12.8148 11.6692C12.7798 12.0603 12.7739 12.4572 12.7914 12.8483C12.389 12.8138 11.9865 12.7965 11.5781 12.8023C11.5256 10.5879 11.7181 9.05791 12.2723 5.7622C12.5406 4.16323 12.4706 2.90936 12.0623 2.04086C11.6656 1.20111 11.0648 0.948035 10.8257 0.879015C10.3648 0.746726 9.66486 0.614438 8.91821 1.03431H8.92404ZM10.534 1.86255C10.6157 1.88556 10.9015 2.00059 11.1232 2.47223C11.3448 2.93812 11.5431 3.85839 11.2515 5.5954C10.6857 8.94288 10.4873 10.5764 10.5457 12.9C10.4115 12.923 10.2832 12.9518 10.1607 12.9863C10.0323 13.0208 9.90985 13.0611 9.79319 13.1129C9.53653 13.2164 9.4082 13.4982 9.50153 13.757C9.59486 14.0159 9.88069 14.1539 10.1432 14.0734C10.1432 14.0734 10.289 14.0331 10.4465 13.9814C10.5223 13.9583 10.8782 13.8951 11.1582 13.8548C12.1673 13.7685 13.2698 13.9411 13.2814 13.9468C13.4331 13.9699 13.5848 13.9296 13.7014 13.8318C13.8181 13.734 13.8823 13.5902 13.8823 13.4407C13.8823 13.3487 13.8706 13.2566 13.8589 13.1646C13.8064 12.6872 13.6839 11.5772 14.4656 7.83856C14.7456 6.50416 15.2006 5.35383 15.7955 4.49683C16.2972 3.77787 16.8863 3.28322 17.458 3.11067C17.6038 3.06466 17.7497 3.04165 17.9013 3.04165C18.2455 3.04165 18.5663 3.17394 18.8405 3.43276C19.3013 3.87564 19.4296 4.45656 19.2488 5.31932C19.068 6.19933 18.5896 7.24038 18.088 8.33895C17.8488 8.86811 17.598 9.41452 17.3647 9.97243C16.8397 11.2378 16.5189 13.0093 16.4197 15.241C16.338 17.0125 16.408 18.669 16.4839 19.7503C16.5014 19.9804 16.2447 20.2162 16.0755 20.2564C14.2731 20.6878 9.93902 20.9179 6.82993 20.1989C6.52077 20.1299 6.48577 19.8653 6.51493 19.2729C6.51493 19.2211 6.51493 19.1694 6.52077 19.1234C6.53827 18.5137 6.7366 16.3971 8.42239 14.8959C8.57405 14.7636 8.63238 14.5508 8.56822 14.361C8.55072 14.3092 6.81243 8.86811 7.83907 4.9052C8.1249 3.79512 8.63822 2.37445 9.4432 1.92582C9.83402 1.70726 10.219 1.77053 10.5457 1.86831L10.534 1.86255ZM10.4873 19.2959C10.4698 19.503 10.7265 19.6928 11.0648 19.7215C11.3973 19.7445 11.6831 19.6008 11.7006 19.3937C11.7181 19.1866 11.4615 18.9968 11.1232 18.9681C10.7907 18.9451 10.5048 19.0889 10.4873 19.2959ZM12.9898 17.9615C12.9606 18.3641 13.1414 18.7035 13.3981 18.7207C13.6548 18.738 13.8881 18.4332 13.9173 18.0305C13.9464 17.6279 13.7656 17.2886 13.5089 17.2713C13.2523 17.2541 13.0189 17.5589 12.9898 17.9615ZM8.77821 17.72C8.74905 18.1226 8.92987 18.4619 9.18653 18.4792C9.4432 18.4964 9.67652 18.1916 9.70569 17.789C9.73486 17.3864 9.55403 17.047 9.29737 17.0297C9.04071 17.0125 8.80738 17.3173 8.77821 17.72Z" fill="black"/>
</g>
<defs>
<clipPath id="clip0_368_5995">
<rect width="171" height="29" fill="white" transform="translate(0.0576172 0.752441)"/>
</clipPath>
</defs>
</svg>
