<svg width="232" height="24" viewBox="0 0 232 24" fill="none" xmlns="http://www.w3.org/2000/svg">
<path d="M25.3081 19.8225H28.2228C28.5847 19.8234 28.9405 19.9104 29.2566 20.0753C29.5728 20.2401 29.8391 20.4775 30.0304 20.7651C30.2217 21.0526 30.3319 21.381 30.3505 21.7193C30.3691 22.0576 30.2955 22.3948 30.1368 22.6992C29.9594 23.0322 29.6863 23.3123 29.3482 23.5079C29.0101 23.7036 28.6203 23.8071 28.2228 23.8067H25.3081C24.9654 23.8082 24.6274 23.7318 24.3231 23.5842C24.0188 23.4366 23.7573 23.2222 23.5609 22.9593C23.3397 22.6599 23.21 22.3097 23.1858 21.9464C23.1616 21.5831 23.2438 21.2205 23.4236 20.8977C23.6034 20.5749 23.8739 20.3042 24.206 20.1147C24.5381 19.9252 24.9192 19.8242 25.3081 19.8225Z" fill="black"/>
<path d="M43.3155 5.47919H29.3443C28.9339 5.47817 28.532 5.35025 28.1848 5.1101C27.8376 4.86994 27.5591 4.52728 27.3814 4.12143C27.2036 3.71559 27.1338 3.26299 27.1798 2.81557C27.2258 2.36816 27.3859 1.94404 27.6417 1.59188C27.8461 1.31221 28.1053 1.08663 28.4001 0.931926C28.6948 0.777218 29.0176 0.697347 29.3443 0.69825H43.3155C43.7837 0.699481 44.2391 0.865745 44.6145 1.17252C44.9899 1.47929 45.2655 1.91031 45.4007 2.402C45.5358 2.89369 45.5232 3.41999 45.3649 3.90326C45.2065 4.38653 44.9107 4.80117 44.5212 5.086C44.1647 5.34745 43.7444 5.48451 43.3155 5.47919Z" fill="black"/>
<path d="M33.7452 11.8541H25.3546C24.952 11.8529 24.5576 11.7293 24.2151 11.4971C23.8726 11.2649 23.5955 10.9331 23.4144 10.5386C23.2334 10.1441 23.1555 9.7023 23.1894 9.26218C23.2233 8.82206 23.3677 8.40085 23.6066 8.04529C23.8085 7.74471 24.0718 7.50021 24.3753 7.33137C24.6789 7.16253 25.0143 7.07404 25.3546 7.07301H33.7452C34.2147 7.07134 34.6722 7.23611 35.0495 7.54278C35.4267 7.84945 35.7036 8.28162 35.8389 8.77492C35.9741 9.26821 35.9605 9.79624 35.8001 10.2804C35.6396 10.7645 35.341 11.1788 34.9485 11.4616C34.5914 11.7196 34.1728 11.8561 33.7452 11.8541Z" fill="#EF6C22"/>
<path d="M2.20453 11.0574H5.11589C5.47715 11.0568 5.83258 11.1598 6.14863 11.3565C6.46468 11.5533 6.73093 11.8373 6.92225 12.1819C7.11357 12.5264 7.22366 12.9202 7.24211 13.3258C7.26056 13.7315 7.18678 14.1358 7.02772 14.5005C6.85242 14.9024 6.58028 15.2409 6.24228 15.4775C5.90428 15.714 5.51401 15.8391 5.11589 15.8385H2.20453C1.86244 15.8387 1.52532 15.7464 1.22158 15.5694C0.91785 15.3925 0.65641 15.136 0.459296 14.8216C0.235412 14.4631 0.103459 14.0422 0.0778431 13.6051C0.0522273 13.168 0.13393 12.7313 0.31404 12.3428C0.49415 11.9543 0.765737 11.629 1.09913 11.4023C1.43253 11.1756 1.81491 11.0563 2.20453 11.0574Z" fill="black"/>
<path d="M26.5021 14.55H26.4529C26.2497 14.3464 26.0057 14.1843 25.7356 14.0735C25.4655 13.9628 25.1748 13.9056 24.881 13.9055H20.3536C20.0026 13.906 19.6565 13.8255 19.3445 13.671C19.0325 13.5164 18.7637 13.2923 18.5607 13.0173L16.1046 9.69238L13.6485 6.37532C13.4436 6.0997 13.1735 5.87473 12.8604 5.71895C12.5472 5.56316 12.2 5.481 11.8474 5.47925H4.651C4.35332 5.47924 4.05879 5.53782 3.78561 5.65138C3.51243 5.76495 3.26641 5.93109 3.06273 6.13952C2.76887 6.4383 2.57244 6.81306 2.49764 7.21767C2.42283 7.62228 2.47292 8.03905 2.64174 8.41667C2.81055 8.79429 3.09071 9.11627 3.44772 9.34294C3.80472 9.56961 4.22299 9.69107 4.651 9.69238H9.17022C9.52003 9.69252 9.86469 9.77326 10.1753 9.92782C10.4858 10.0824 10.7532 10.3062 10.955 10.5806L15.9654 17.3483C16.1692 17.6239 16.4395 17.8479 16.7532 18.0013C17.0668 18.1546 17.4146 18.2326 17.7665 18.2287L24.9138 18.1658C25.3551 18.1771 25.7897 18.0602 26.1608 17.8306C26.5319 17.6009 26.8222 17.2692 26.9938 16.8786C27.1653 16.488 27.2102 16.0568 27.1224 15.6414C27.0347 15.226 26.8185 14.8456 26.5021 14.55Z" fill="black"/>
<path d="M63.8213 23.0101V2.29199H74.8304C77.1895 2.29199 80.5551 3.75529 80.5551 8.68893C80.5551 13.6226 75.9628 15.0859 74.8304 15.0859H68.2407V22.9941L63.8213 23.0101ZM68.2013 11.6475H73.8003C74.2163 11.6814 74.6346 11.6229 75.0261 11.4761C75.4177 11.3292 75.7732 11.0975 76.0679 10.7971C76.3627 10.4966 76.5896 10.1345 76.733 9.736C76.8765 9.33746 76.9329 8.91197 76.8985 8.48903C76.8985 5.42649 73.8003 5.56242 73.8003 5.56242H68.2013V11.6475Z" fill="black"/>
<path d="M168.209 23.0101V2.29199H179.742C182.214 2.29199 185.74 3.75529 185.74 8.68893C185.74 13.6226 180.929 15.0859 179.742 15.0859H172.839V22.9941L168.209 23.0101ZM172.798 11.6475H178.663C179.099 11.6814 179.537 11.6229 179.947 11.4761C180.358 11.3292 180.73 11.0975 181.039 10.7971C181.348 10.4966 181.585 10.1345 181.736 9.736C181.886 9.33746 181.945 8.91197 181.909 8.48903C181.909 5.42649 178.663 5.56242 178.663 5.56242H172.798V11.6475Z" fill="black"/>
<path d="M82.9463 23.0101V2.29199H97.3472V6.0262H87.4106V10.2882H97.3472V14.0544H87.4106V19.2439H98.8833V23.0101H82.9463Z" fill="black"/>
<path d="M101.273 23.0101V2.29199H105.918V19.2439H117.21V23.0101H101.273Z" fill="black"/>
<path d="M119.601 23.0101V2.29199H124.382V23.0101H119.601Z" fill="black"/>
<path d="M145.257 5.83183H138.798C137.805 5.79953 136.816 5.96603 135.891 6.32122C134.965 6.67642 134.123 7.2129 133.415 7.89807C132.156 9.13831 131.437 10.8116 131.412 12.5636C131.386 14.3155 132.055 16.0086 133.276 17.2842C133.937 17.937 134.731 18.4456 135.605 18.7767C136.479 19.1079 137.415 19.2543 138.35 19.2063H148.287V23.0024H138.293C136.773 23.0577 135.257 22.8134 133.835 22.2839C132.412 21.7543 131.112 20.9503 130.01 19.9191C128.989 18.9972 128.175 17.8769 127.618 16.6293C127.06 15.3817 126.772 14.0339 126.772 12.6712C126.772 11.3086 127.06 9.96078 127.618 8.71317C128.175 7.46556 128.989 6.34532 130.01 5.42339C131.126 4.3911 132.439 3.58752 133.874 3.05952C135.309 2.53153 136.836 2.28967 138.367 2.34805L145.249 2.29199L145.257 5.83183Z" fill="black"/>
<path d="M145.897 23.0101L153.697 2.29199H158.705L166.616 23.0101H161.632L159.986 18.5802H152.076L150.652 22.9781L145.897 23.0101ZM158.942 15.1258L156.648 8.43305C156.585 8.24114 156.498 7.8973 156.395 7.41753C156.292 6.93776 156.189 6.34605 156.079 5.65038C155.952 6.31406 155.841 6.92177 155.73 7.44952C155.62 7.97727 155.533 8.34509 155.477 8.52101L153.262 15.1258H158.942Z" fill="black"/>
<path d="M180.162 11.854L186.537 23.0099H181.401L176.975 13.9838" fill="black"/>
<path d="M199.214 11.9364H208.559C208.568 12.0698 208.568 12.2036 208.559 12.3369C208.566 12.4597 208.566 12.5827 208.559 12.7054C208.559 15.8134 207.767 18.3126 205.93 20.1149C204.089 21.8996 201.659 22.93 199.111 23.0066C197.662 23.0431 196.221 22.7894 194.87 22.2601C193.519 21.7308 192.285 20.9364 191.238 19.9227C190.216 18.9641 189.41 17.7938 188.876 16.4916C188.341 15.1894 188.091 13.786 188.142 12.377C188.074 11.0295 188.303 9.68369 188.812 8.43683C189.322 7.18996 190.099 6.0733 191.088 5.16769C193.163 3.11705 196.117 2.29199 199.285 2.29199H220.004V5.85658H199.808C197.775 5.77667 195.79 6.49087 194.264 7.85115C193.636 8.41863 193.144 9.12327 192.826 9.91161C192.508 10.7 192.371 11.5513 192.426 12.401C192.426 14.4997 193.163 16.6465 194.533 17.7679C195.903 18.8894 197.345 19.1297 199.285 19.1297C200.535 19.1898 201.768 18.8292 202.794 18.1043C203.689 17.4235 204.14 15.3328 204.14 15.3328H199.214V11.9364Z" fill="black"/>
<path d="M231.956 12.6472C231.958 14.0176 231.681 15.3746 231.143 16.6391C230.611 17.8908 229.823 19.0213 228.826 19.9603C227.807 20.9287 226.605 21.6934 225.289 22.2117C224 22.7371 222.619 23.0084 221.223 23.0101C219.994 23.011 218.773 22.8058 217.613 22.4033C216.437 21.9974 215.337 21.4011 214.361 20.6389C213.128 19.692 212.134 18.4796 211.454 17.0953C210.775 15.711 210.428 14.1918 210.442 12.6552C210.437 11.2845 210.714 9.92694 211.255 8.66333C211.792 7.40805 212.586 6.27478 213.588 5.33412C215.105 3.88389 217.019 2.89758 219.096 2.49506C221.173 2.09253 223.325 2.29114 225.289 3.06674C226.594 3.58981 227.786 4.35106 228.802 5.31017C229.801 6.25466 230.592 7.39049 231.127 8.64737C231.67 9.9136 231.952 11.2732 231.956 12.6472ZM221.223 19.2498C222.071 19.2743 222.914 19.1186 223.694 18.7934C224.474 18.4682 225.174 17.9811 225.744 17.3656C226.898 16.0533 227.534 14.3772 227.534 12.6432C227.534 10.9093 226.898 9.23317 225.744 7.92085C225.164 7.31473 224.464 6.83169 223.686 6.5015C222.909 6.17131 222.071 6.00097 221.223 6.00097C220.376 6.00097 219.538 6.17131 218.761 6.5015C217.983 6.83169 217.283 7.31473 216.703 7.92085C215.547 9.23702 214.911 10.9172 214.911 12.6552C214.911 14.3932 215.547 16.0734 216.703 17.3895C217.278 17.9974 217.979 18.4778 218.759 18.7985C219.538 19.1193 220.379 19.2731 221.223 19.2498Z" fill="black"/>
</svg>
