<svg width="143" height="52" viewBox="0 0 143 52" fill="none" xmlns="http://www.w3.org/2000/svg">
<g clip-path="url(#clip0_1543_4837)">
<path fill-rule="evenodd" clip-rule="evenodd" d="M11.3389 25.6379V40.546H16.4904V28.2965L21.0526 28.334C24.8311 28.3654 25.7131 28.3951 26.1885 28.5103C28.9048 29.1682 29.7311 30.6916 30.0654 35.6511C30.2491 38.3795 30.3327 39.0121 30.6156 39.8209L30.8542 40.5023L33.716 40.525L36.5778 40.5477L36.2774 40.1106C35.6697 39.2267 35.4668 38.2294 35.1282 34.4705C34.7938 30.7536 34.5109 29.6175 33.5993 28.3175C32.9289 27.362 32.1863 26.8499 30.862 26.4328C30.7349 26.3926 30.8429 26.3098 31.32 26.0803C34.0503 24.7706 35.439 22.3703 35.4442 18.95C35.4503 15.2155 33.379 12.3074 29.9601 11.2499C28.4826 10.7935 28.6506 10.8014 19.6996 10.7647L11.3389 10.7307V25.6379ZM25.9229 15.1126C28.379 15.4127 29.7389 16.5051 30.1638 18.5215C30.6357 20.7639 29.6379 22.9915 27.8226 23.748C26.5759 24.268 26.1763 24.3038 21.097 24.3501L16.4913 24.3919V15.0218H20.8375C23.2918 15.0218 25.5059 15.0611 25.9238 15.1117L25.9229 15.1126ZM102.281 18.395C96.818 19.2449 93.4643 23.5805 93.4661 29.7946C93.4661 32.7831 94.0024 34.7428 95.3963 36.8526C99.2349 42.6662 109.359 42.7596 113.23 37.0166C115.909 33.0405 115.946 26.6308 113.312 22.6146C111.164 19.34 106.84 17.6857 102.281 18.395V18.395ZM69.4478 18.4753C67.609 18.8234 66.0036 19.8347 64.6619 21.4908L64.3433 21.8843L64.3415 20.3765L64.3398 18.8688H59.7994V40.5468H64.5931L64.6253 33.6634C64.6602 26.0873 64.6523 26.2085 65.2113 25.0367C66.7419 21.8267 71.8107 21.4393 72.832 24.4548L73.0279 25.0324L73.0531 32.79L73.0784 40.5477H77.8747V33.9697C77.8747 26.1955 77.9139 25.7007 78.6086 24.5141C80.0966 21.9733 84.5037 21.6504 85.868 23.981C86.3686 24.8361 86.3712 24.884 86.4087 33.0509L86.4426 40.5468H91.2407L91.2146 32.133C91.1885 23.762 91.1876 23.7166 90.9961 23.0378C90.2055 20.2396 87.8087 18.5163 84.5037 18.3689C81.514 18.2354 79.3957 19.2196 77.3323 21.7002L77.1216 21.9532L76.877 21.482C76.0037 19.7989 74.6533 18.8191 72.724 18.4692C71.903 18.32 70.2531 18.3235 69.4495 18.4762L69.4478 18.4753ZM127.339 18.5765C125.403 18.991 123.637 20.3416 122.487 22.2883L122.013 23.0901L121.989 20.9795L121.966 18.8688H117.429V40.5468H122.231V35.2733C122.231 28.519 122.311 27.6805 123.117 26.0393C123.793 24.6624 125.209 23.5238 126.771 23.1006C127.374 22.9374 129.138 22.8816 129.762 23.0072L130.089 23.0727V18.4317L129.019 18.4387C128.429 18.443 127.676 18.5041 127.339 18.5765V18.5765ZM37.9708 26.2321C37.9708 33.8188 38.01 34.9208 38.326 36.2592C39.06 39.3698 41.6057 41.107 45.4365 41.1105C48.4498 41.114 50.481 40.0835 52.3293 37.6169C52.4477 37.459 52.4608 37.5951 52.4634 38.9937L52.466 40.5451H57.0064V18.8679H52.2118L52.1831 25.6641C52.1552 32.3259 52.1509 32.4733 51.9654 33.1338C51.7234 33.9941 51.4117 34.6285 50.9267 35.2471C48.8677 37.8734 44.1305 37.6788 43.2172 34.9312C42.8934 33.9566 42.8655 33.2507 42.8629 25.9703L42.8603 18.8679H37.9708V26.2321V26.2321ZM105.952 22.2359C108.801 22.9636 110.356 25.6449 110.356 29.8226C110.354 34.6485 108.169 37.4293 104.374 37.4354C101.62 37.4398 99.5875 35.8954 98.7465 33.16C98.124 31.1349 98.1614 28.1936 98.8344 26.1824C99.6389 23.7803 101.136 22.495 103.632 22.0649C104.024 21.9977 105.423 22.1007 105.952 22.2359ZM125.811 37.705V40.546H131.661V34.8641H125.811V37.705Z" fill="black"/>
</g>
<defs>
<clipPath id="clip0_1543_4837">
<rect width="120.322" height="30.5386" fill="white" transform="translate(11.3389 10.7307)"/>
</clipPath>
</defs>
</svg>
