<svg width="391" height="387" viewBox="0 0 391 387" fill="none" xmlns="http://www.w3.org/2000/svg">
<g clip-path="url(#clip0_368_5967)">
<path d="M58.5838 69.4813C79.8346 48.1893 104.649 32.8943 131.849 24.7885L13.9775 142.889C22.0736 115.636 37.3331 90.7733 58.5838 69.4813Z" fill="#FFF7DB"/>
<path d="M177.018 16.2213L5.4209 188.145C5.77966 176.618 7.43595 165.385 10.318 154.53L143.461 21.122C154.302 18.2403 165.507 16.5808 177.012 16.2153L177.018 16.2213Z" fill="#FFF7DB"/>
<path d="M227.436 2.38813L21.8707 208.353C20.8901 199.768 20.2742 190.811 19.9932 181.525L200.661 0.506958C209.929 0.794526 218.868 1.40561 227.436 2.38813Z" fill="#FFF7DB"/>
<path d="M235.024 33.074L6.32393 262.212C4.07568 254.897 2.14433 247.258 0.5 239.338L212.188 27.2388C220.093 28.8863 227.717 30.8214 235.018 33.074H235.024Z" fill="#FFF7DB"/>
<path d="M390.5 138.899L164.479 365.359C156.574 363.711 148.95 361.776 141.649 359.524L384.676 116.025C386.924 123.34 388.855 130.979 390.5 138.899Z" fill="#FFF7DB"/>
<path d="M360.663 205.483L179.995 386.501C170.727 386.213 161.788 385.602 153.22 384.62L358.785 178.655C359.766 187.24 360.382 196.197 360.663 205.483Z" fill="#FFF7DB"/>
<path d="M371.928 230.891L238.785 364.292C227.944 367.174 216.739 368.833 205.234 369.199L376.825 197.275C376.466 208.802 374.81 220.035 371.928 230.891Z" fill="#FFF7DB"/>
<path d="M320.535 320.66C299.284 341.952 273.675 356.45 247.27 365.353L365.141 247.252C356.25 273.708 341.786 299.368 320.535 320.66Z" fill="#FFF7DB"/>
<path d="M327.65 51.9277L73.562 306.509C68.8681 301.645 64.4314 296.516 60.2578 291.13L312.301 38.5978C317.683 42.7795 322.795 47.2248 327.65 51.9277Z" fill="#FFF7DB"/>
<path d="M285.783 18.8993L15.4721 289.74C12.2791 283.366 9.37312 276.704 6.74219 269.778L265.859 10.1525C272.777 12.7945 279.426 15.7001 285.783 18.8993Z" fill="#FFF7DB"/>
<path d="M337.773 78.4739L75.5171 341.239C70.1356 337.057 65.0232 332.612 60.168 327.909L324.469 63.095C329.163 67.9597 333.6 73.088 337.773 78.4739Z" fill="#FFF7DB"/>
<path d="M326.76 16.1315L46.0275 297.409C41.25 291.028 37.5308 285.181 34.876 279.867L309.252 4.96423C314.562 7.62424 320.392 11.3446 326.76 16.1374V16.1315Z" fill="#FFF7DB"/>
<path d="M327.591 126.959L68.5399 385.387C62.4349 381.93 56.599 378.204 51.0322 374.214L316.446 109.417C320.428 115.001 324.147 120.842 327.597 126.959H327.591Z" fill="#FFF7DB"/>
<path d="M348.542 142.655L115.693 375.957C108.775 373.315 102.126 370.409 95.7695 367.21L339.812 122.693C343.005 129.068 345.912 135.73 348.542 142.655Z" fill="#FFF7DB"/>
</g>
<defs>
<clipPath id="clip0_368_5967">
<rect width="390" height="386" fill="white" transform="translate(0.5 0.506958)"/>
</clipPath>
</defs>
</svg>
