<svg width="914" height="363" viewBox="0 0 914 363" fill="none" xmlns="http://www.w3.org/2000/svg">
<path d="M7.69922 145H5.69922V147H7.69922V145ZM7.69922 2.34375V0.34375H5.69922V2.34375H7.69922ZM29.4219 2.34375H31.4219V0.34375H29.4219V2.34375ZM29.4219 60.0547H27.4219V62.0547H29.4219V60.0547ZM48.875 60.0547V62.0547H50.875V60.0547H48.875ZM48.875 2.34375V0.34375H46.875V2.34375H48.875ZM70.5977 2.34375H72.5977V0.34375H70.5977V2.34375ZM70.5977 145V147H72.5977V145H70.5977ZM48.875 145H46.875V147H48.875V145ZM48.875 78.6973H50.875V76.6973H48.875V78.6973ZM29.4219 78.6973V76.6973H27.4219V78.6973H29.4219ZM29.4219 145V147H31.4219V145H29.4219ZM9.69922 145V2.34375H5.69922V145H9.69922ZM7.69922 4.34375H29.4219V0.34375H7.69922V4.34375ZM27.4219 2.34375V60.0547H31.4219V2.34375H27.4219ZM29.4219 62.0547H48.875V58.0547H29.4219V62.0547ZM50.875 60.0547V2.34375H46.875V60.0547H50.875ZM48.875 4.34375H70.5977V0.34375H48.875V4.34375ZM68.5977 2.34375V145H72.5977V2.34375H68.5977ZM70.5977 143H48.875V147H70.5977V143ZM50.875 145V78.6973H46.875V145H50.875ZM48.875 76.6973H29.4219V80.6973H48.875V76.6973ZM27.4219 78.6973V145H31.4219V78.6973H27.4219ZM29.4219 143H7.69922V147H29.4219V143ZM108.596 145H106.596V147H108.596V145ZM108.596 2.34375V0.34375H106.596V2.34375H108.596ZM156.418 2.34375H158.418V0.34375H156.418V2.34375ZM156.418 21.0674V23.0674H158.418V21.0674H156.418ZM130.319 21.0674V19.0674H128.319V21.0674H130.319ZM130.319 62.5674H128.319V64.5674H130.319V62.5674ZM155.121 62.5674H157.121V60.5674H155.121V62.5674ZM155.121 80.8857V82.8857H157.121V80.8857H155.121ZM130.319 80.8857V78.8857H128.319V80.8857H130.319ZM130.319 126.276H128.319V128.276H130.319V126.276ZM157.391 126.276H159.391V124.276H157.391V126.276ZM157.391 145V147H159.391V145H157.391ZM110.596 145V2.34375H106.596V145H110.596ZM108.596 4.34375H156.418V0.34375H108.596V4.34375ZM154.418 2.34375V21.0674H158.418V2.34375H154.418ZM156.418 19.0674H130.319V23.0674H156.418V19.0674ZM128.319 21.0674V62.5674H132.319V21.0674H128.319ZM130.319 64.5674H155.121V60.5674H130.319V64.5674ZM153.121 62.5674V80.8857H157.121V62.5674H153.121ZM155.121 78.8857H130.319V82.8857H155.121V78.8857ZM128.319 80.8857V126.276H132.319V80.8857H128.319ZM130.319 128.276H157.391V124.276H130.319V128.276ZM155.391 126.276V145H159.391V126.276H155.391ZM157.391 143H108.596V147H157.391V143ZM190.04 145H188.04V147H190.04V145ZM190.04 2.34375V0.34375H188.04V2.34375H190.04ZM207.061 2.34375L208.947 1.67764L208.476 0.34375H207.061V2.34375ZM237.295 87.9375L235.409 88.6036L239.293 87.8584L237.295 87.9375ZM235.755 49.0312H233.755V49.0708L233.756 49.1104L235.755 49.0312ZM235.755 2.34375V0.34375H233.755V2.34375H235.755ZM255.289 2.34375H257.289V0.34375H255.289V2.34375ZM255.289 145V147H257.289V145H255.289ZM239.888 145L238.001 145.661L238.47 147H239.888V145ZM208.845 56.4072L210.732 55.7458L206.846 56.4721L208.845 56.4072ZM210.06 93.8545H212.06V93.822L212.059 93.7896L210.06 93.8545ZM210.06 145V147H212.06V145H210.06ZM192.04 145V2.34375H188.04V145H192.04ZM190.04 4.34375H207.061V0.34375H190.04V4.34375ZM205.176 3.00986L235.409 88.6036L239.181 87.2714L208.947 1.67764L205.176 3.00986ZM239.293 87.8584L237.753 48.9521L233.756 49.1104L235.296 88.0166L239.293 87.8584ZM237.755 49.0312V2.34375H233.755V49.0312H237.755ZM235.755 4.34375H255.289V0.34375H235.755V4.34375ZM253.289 2.34375V145H257.289V2.34375H253.289ZM255.289 143H239.888V147H255.289V143ZM241.776 144.339L210.732 55.7458L206.957 57.0686L238.001 145.661L241.776 144.339ZM206.846 56.4721L208.061 93.9194L212.059 93.7896L210.843 56.3423L206.846 56.4721ZM208.06 93.8545V145H212.06V93.8545H208.06ZM210.06 143H190.04V147H210.06V143ZM293.368 145H291.368V147H293.368V145ZM293.368 2.34375V0.34375H291.368V2.34375H293.368ZM310.39 2.34375L312.276 1.67764L311.805 0.34375H310.39V2.34375ZM340.623 87.9375L338.737 88.6036L342.622 87.8584L340.623 87.9375ZM339.083 49.0312H337.083V49.0708L337.085 49.1104L339.083 49.0312ZM339.083 2.34375V0.34375H337.083V2.34375H339.083ZM358.617 2.34375H360.617V0.34375H358.617V2.34375ZM358.617 145V147H360.617V145H358.617ZM343.217 145L341.329 145.661L341.799 147H343.217V145ZM312.173 56.4072L314.061 55.7458L310.174 56.4721L312.173 56.4072ZM313.389 93.8545H315.389V93.822L315.388 93.7896L313.389 93.8545ZM313.389 145V147H315.389V145H313.389ZM295.368 145V2.34375H291.368V145H295.368ZM293.368 4.34375H310.39V0.34375H293.368V4.34375ZM308.504 3.00986L338.737 88.6036L342.509 87.2714L312.276 1.67764L308.504 3.00986ZM342.622 87.8584L341.082 48.9521L337.085 49.1104L338.625 88.0166L342.622 87.8584ZM341.083 49.0312V2.34375H337.083V49.0312H341.083ZM339.083 4.34375H358.617V0.34375H339.083V4.34375ZM356.617 2.34375V145H360.617V2.34375H356.617ZM358.617 143H343.217V147H358.617V143ZM345.104 144.339L314.061 55.7458L310.286 57.0686L341.329 145.661L345.104 144.339ZM310.174 56.4721L311.39 93.9194L315.388 93.7896L314.172 56.3423L310.174 56.4721ZM311.389 93.8545V145H315.389V93.8545H311.389ZM313.389 143H293.368V147H313.389V143ZM396.697 145H394.697V147H396.697V145ZM396.697 2.34375V0.34375H394.697V2.34375H396.697ZM444.519 2.34375H446.519V0.34375H444.519V2.34375ZM444.519 21.0674V23.0674H446.519V21.0674H444.519ZM418.42 21.0674V19.0674H416.42V21.0674H418.42ZM418.42 62.5674H416.42V64.5674H418.42V62.5674ZM443.222 62.5674H445.222V60.5674H443.222V62.5674ZM443.222 80.8857V82.8857H445.222V80.8857H443.222ZM418.42 80.8857V78.8857H416.42V80.8857H418.42ZM418.42 126.276H416.42V128.276H418.42V126.276ZM445.492 126.276H447.492V124.276H445.492V126.276ZM445.492 145V147H447.492V145H445.492ZM398.697 145V2.34375H394.697V145H398.697ZM396.697 4.34375H444.519V0.34375H396.697V4.34375ZM442.519 2.34375V21.0674H446.519V2.34375H442.519ZM444.519 19.0674H418.42V23.0674H444.519V19.0674ZM416.42 21.0674V62.5674H420.42V21.0674H416.42ZM418.42 64.5674H443.222V60.5674H418.42V64.5674ZM441.222 62.5674V80.8857H445.222V62.5674H441.222ZM443.222 78.8857H418.42V82.8857H443.222V78.8857ZM416.42 80.8857V126.276H420.42V80.8857H416.42ZM418.42 128.276H445.492V124.276H418.42V128.276ZM443.492 126.276V145H447.492V126.276H443.492ZM445.492 143H396.697V147H445.492V143ZM489.245 143.865L488.38 145.669L488.395 145.676L488.41 145.683L489.245 143.865ZM479.843 135.679L478.148 136.741L478.158 136.756L478.167 136.77L479.843 135.679ZM474.979 122.548L473.014 122.916L473.014 122.92L474.979 122.548ZM473.521 92.1523V90.1523H471.521V92.1523H473.521ZM494.108 92.1523H496.108V90.1523H494.108V92.1523ZM509.59 126.276L510.941 127.751L510.944 127.748L509.59 126.276ZM512.265 120.44L510.296 120.086L510.293 120.102L510.291 120.118L512.265 120.44ZM509.59 95.2324L507.801 96.1268L507.805 96.1355L507.81 96.1442L509.59 95.2324ZM499.458 81.4531L500.905 80.0722L500.899 80.0663L500.893 80.0605L499.458 81.4531ZM488.921 70.5918L487.481 71.9801L487.485 71.9844L488.921 70.5918ZM480.978 60.9463L479.326 62.0738L479.332 62.0827L479.338 62.0915L480.978 60.9463ZM475.385 49.5986L473.48 50.2091L473.485 50.2238L473.49 50.2385L475.385 49.5986ZM485.436 4.69434L486.471 6.40558L486.478 6.40093L486.486 6.39621L485.436 4.69434ZM517.533 3.31641L516.66 5.11572L516.676 5.12339L516.692 5.13078L517.533 3.31641ZM526.206 11.0166L524.493 12.0496L524.503 12.0656L524.513 12.0815L526.206 11.0166ZM530.664 23.3369L528.695 23.687L528.696 23.6908L530.664 23.3369ZM531.961 48.707V50.707H533.961V48.707H531.961ZM511.94 48.707H509.94V50.707H511.94V48.707ZM511.211 27.7139L509.233 28.0124L509.236 28.0306L509.239 28.0487L511.211 27.7139ZM508.698 21.3105L507.176 22.6075L507.188 22.6217L507.2 22.6357L508.698 21.3105ZM497.756 20.6621L498.894 22.3065L498.915 22.292L498.936 22.2769L497.756 20.6621ZM494.676 25.2822L492.764 24.6941L492.759 24.71L492.755 24.7261L494.676 25.2822ZM504.24 53.9756L505.71 52.6186L505.701 52.6098L504.24 53.9756ZM515.993 66.7012L514.524 68.0581L514.528 68.0621L515.993 66.7012ZM531.069 129.032L532.975 129.638L532.977 129.633L531.069 129.032ZM504.159 144.621C498.408 144.621 493.742 143.73 490.08 142.048L488.41 145.683C492.746 147.675 498.023 148.621 504.159 148.621V144.621ZM490.11 142.062C486.486 140.324 483.636 137.837 481.518 134.587L478.167 136.77C480.696 140.653 484.115 143.624 488.38 145.669L490.11 142.062ZM481.537 134.616C479.426 131.248 477.881 127.117 476.945 122.176L473.014 122.92C474.023 128.246 475.72 132.868 478.148 136.741L481.537 134.616ZM476.945 122.179C476 117.139 475.521 111.376 475.521 104.878H471.521C471.521 111.565 472.014 117.582 473.014 122.916L476.945 122.179ZM475.521 104.878V92.1523H471.521V104.878H475.521ZM473.521 94.1523H494.108V90.1523H473.521V94.1523ZM492.108 92.1523V106.499H496.108V92.1523H492.108ZM492.108 106.499C492.108 114.203 492.748 120.036 494.189 123.756L497.919 122.312C496.765 119.332 496.108 114.142 496.108 106.499H492.108ZM494.189 123.756C494.961 125.753 496.167 127.374 497.858 128.478C499.54 129.576 501.545 130.06 503.754 130.06V126.06C502.126 126.06 500.93 125.706 500.044 125.128C499.169 124.557 498.443 123.666 497.919 122.312L494.189 123.756ZM503.754 130.06C506.615 130.06 509.134 129.408 510.941 127.751L508.238 124.802C507.452 125.523 506.08 126.06 503.754 126.06V130.06ZM510.944 127.748C512.746 126.09 513.766 123.655 514.239 120.763L510.291 120.118C509.898 122.521 509.136 123.977 508.236 124.805L510.944 127.748ZM514.233 120.795C514.749 117.929 514.994 114.286 514.994 109.903H510.994C510.994 114.167 510.753 117.548 510.296 120.086L514.233 120.795ZM514.994 109.903C514.994 104.261 513.795 99.0546 511.37 94.3207L507.81 96.1442C509.924 100.272 510.994 104.847 510.994 109.903H514.994ZM511.379 94.338C509.05 89.6813 505.539 84.9275 500.905 80.0722L498.011 82.8341C502.455 87.4892 505.698 91.9216 507.801 96.1268L511.379 94.338ZM500.893 80.0605L490.356 69.1992L487.485 71.9844L498.023 82.8457L500.893 80.0605ZM490.361 69.2035C487.515 66.2522 484.934 63.1182 482.617 59.8011L479.338 62.0915C481.776 65.583 484.491 68.8793 487.481 71.9801L490.361 69.2035ZM482.629 59.8188C480.415 56.5748 478.63 52.958 477.28 48.9588L473.49 50.2385C474.949 54.5609 476.893 58.5092 479.326 62.0738L482.629 59.8188ZM477.289 48.9882C476.011 45.0012 475.358 40.5102 475.358 35.4951H471.358C471.358 40.8551 472.056 45.7664 473.48 50.2091L477.289 48.9882ZM475.358 35.4951C475.358 28.1343 476.26 22.0257 478 17.115L474.229 15.7796C472.294 21.2439 471.358 27.8338 471.358 35.4951H475.358ZM478 17.115C479.695 12.3276 482.52 8.7954 486.471 6.40558L484.4 2.98309C479.597 5.88884 476.208 10.1919 474.229 15.7796L478 17.115ZM486.486 6.39621C490.43 3.96156 496.014 2.6416 503.43 2.6416V-1.3584C495.607 -1.3584 489.195 0.023468 484.385 2.99246L486.486 6.39621ZM503.43 2.6416C508.969 2.6416 513.344 3.50669 516.66 5.11572L518.406 1.51709C514.373 -0.440289 509.346 -1.3584 503.43 -1.3584V2.6416ZM516.692 5.13078C520.071 6.69818 522.653 8.99882 524.493 12.0496L527.919 9.98362C525.652 6.22579 522.452 3.39297 518.375 1.50203L516.692 5.13078ZM524.513 12.0815C526.454 15.1667 527.865 19.0168 528.695 23.687L532.633 22.9868C531.734 17.9305 530.173 13.567 527.899 9.9517L524.513 12.0815ZM528.696 23.6908C529.534 28.3568 529.961 33.7463 529.961 39.8721H533.961C533.961 33.5695 533.523 27.9355 532.633 22.983L528.696 23.6908ZM529.961 39.8721V48.707H533.961V39.8721H529.961ZM531.961 46.707H511.94V50.707H531.961V46.707ZM513.94 48.707V38.4941H509.94V48.707H513.94ZM513.94 38.4941C513.94 34.1076 513.695 30.3929 513.183 27.379L509.239 28.0487C509.7 30.7627 509.94 34.2348 509.94 38.4941H513.94ZM513.189 27.4154C512.728 24.362 511.798 21.7964 510.196 19.9854L507.2 22.6357C508.084 23.6345 508.83 25.3379 509.233 28.0124L513.189 27.4154ZM510.221 20.0136C508.509 18.0038 506.078 17.1221 503.268 17.1221V21.1221C505.212 21.1221 506.402 21.6994 507.176 22.6075L510.221 20.0136ZM503.268 17.1221C500.703 17.1221 498.414 17.7038 496.576 19.0473L498.936 22.2769C499.907 21.5671 501.294 21.1221 503.268 21.1221V17.1221ZM496.617 19.0177C494.748 20.3118 493.506 22.2836 492.764 24.6941L496.587 25.8704C497.143 24.066 497.954 22.9578 498.894 22.3065L496.617 19.0177ZM492.755 24.7261C492.088 27.0301 491.784 29.9123 491.784 33.3066H495.784C495.784 30.1085 496.075 27.6411 496.597 25.8383L492.755 24.7261ZM491.784 33.3066C491.784 36.4402 492.182 39.2411 493.031 41.6675L496.807 40.3461C496.143 38.4496 495.784 36.1171 495.784 33.3066H491.784ZM493.031 41.6675C493.868 44.0572 495.143 46.3286 496.83 48.4818L499.978 46.0143C498.532 44.1688 497.483 42.2794 496.807 40.3461L493.031 41.6675ZM496.83 48.4818C498.443 50.5391 500.428 52.8265 502.779 55.3414L505.701 52.6098C503.405 50.1533 501.5 47.9557 499.978 46.0143L496.83 48.4818ZM502.771 55.3325L514.524 68.0581L517.462 65.3442L505.709 52.6186L502.771 55.3325ZM514.528 68.0621C520.029 73.9868 524.285 80.1178 527.32 86.4514L530.928 84.7224C527.695 77.9792 523.197 71.5197 517.459 65.3403L514.528 68.0621ZM527.32 86.4514C530.312 92.6914 531.825 99.6861 531.825 107.472H535.825C535.825 99.1544 534.205 91.5592 530.928 84.7224L527.32 86.4514ZM531.825 107.472C531.825 115.88 530.919 122.85 529.162 128.432L532.977 129.633C534.894 123.543 535.825 116.139 535.825 107.472H531.825ZM529.163 128.427C527.439 133.854 524.597 137.833 520.696 140.515L522.962 143.811C527.707 140.549 531.026 135.774 532.975 129.638L529.163 128.427ZM520.696 140.515C516.82 143.18 511.375 144.621 504.159 144.621V148.621C511.857 148.621 518.192 147.09 522.962 143.811L520.696 140.515ZM576.849 143.865L575.984 145.669L575.999 145.676L576.014 145.683L576.849 143.865ZM567.447 135.679L565.752 136.741L565.761 136.756L565.771 136.77L567.447 135.679ZM562.583 122.548L560.618 122.916L560.618 122.92L562.583 122.548ZM561.124 92.1523V90.1523H559.124V92.1523H561.124ZM581.712 92.1523H583.712V90.1523H581.712V92.1523ZM597.194 126.276L598.545 127.751L598.548 127.748L597.194 126.276ZM599.869 120.44L597.9 120.086L597.897 120.102L597.895 120.118L599.869 120.44ZM597.194 95.2324L595.405 96.1268L595.409 96.1355L595.414 96.1442L597.194 95.2324ZM587.062 81.4531L588.509 80.0722L588.503 80.0663L588.497 80.0605L587.062 81.4531ZM576.525 70.5918L575.085 71.9801L575.089 71.9844L576.525 70.5918ZM568.581 60.9463L566.93 62.0738L566.936 62.0827L566.942 62.0915L568.581 60.9463ZM562.989 49.5986L561.084 50.2091L561.089 50.2238L561.094 50.2385L562.989 49.5986ZM573.039 4.69434L574.075 6.40558L574.082 6.40093L574.09 6.39621L573.039 4.69434ZM605.137 3.31641L604.264 5.11572L604.28 5.12339L604.296 5.13078L605.137 3.31641ZM613.81 11.0166L612.097 12.0496L612.107 12.0656L612.117 12.0815L613.81 11.0166ZM618.268 23.3369L616.299 23.687L616.299 23.6908L618.268 23.3369ZM619.565 48.707V50.707H621.565V48.707H619.565ZM599.544 48.707H597.544V50.707H599.544V48.707ZM598.815 27.7139L596.837 28.0124L596.84 28.0306L596.843 28.0487L598.815 27.7139ZM596.302 21.3105L594.78 22.6075L594.792 22.6217L594.804 22.6357L596.302 21.3105ZM585.36 20.6621L586.498 22.3065L586.519 22.292L586.54 22.2769L585.36 20.6621ZM582.28 25.2822L580.368 24.6941L580.363 24.71L580.359 24.7261L582.28 25.2822ZM591.844 53.9756L593.313 52.6186L593.305 52.6098L591.844 53.9756ZM603.597 66.7012L602.128 68.0581L602.131 68.0621L603.597 66.7012ZM618.673 129.032L620.579 129.638L620.581 129.633L618.673 129.032ZM591.763 144.621C586.012 144.621 581.346 143.73 577.684 142.048L576.014 145.683C580.349 147.675 585.626 148.621 591.763 148.621V144.621ZM577.714 142.062C574.09 140.324 571.24 137.837 569.122 134.587L565.771 136.77C568.3 140.653 571.719 143.624 575.984 145.669L577.714 142.062ZM569.141 134.616C567.03 131.248 565.485 127.117 564.548 122.176L560.618 122.92C561.627 128.246 563.324 132.868 565.752 136.741L569.141 134.616ZM564.549 122.179C563.604 117.139 563.124 111.376 563.124 104.878H559.124C559.124 111.565 559.617 117.582 560.618 122.916L564.549 122.179ZM563.124 104.878V92.1523H559.124V104.878H563.124ZM561.124 94.1523H581.712V90.1523H561.124V94.1523ZM579.712 92.1523V106.499H583.712V92.1523H579.712ZM579.712 106.499C579.712 114.203 580.352 120.036 581.792 123.756L585.523 122.312C584.369 119.332 583.712 114.142 583.712 106.499H579.712ZM581.792 123.756C582.565 125.753 583.771 127.374 585.462 128.478C587.144 129.576 589.149 130.06 591.358 130.06V126.06C589.73 126.06 588.534 125.706 587.648 125.128C586.773 124.557 586.047 123.666 585.523 122.312L581.792 123.756ZM591.358 130.06C594.219 130.06 596.738 129.408 598.545 127.751L595.842 124.802C595.056 125.523 593.684 126.06 591.358 126.06V130.06ZM598.548 127.748C600.35 126.09 601.37 123.655 601.842 120.763L597.895 120.118C597.502 122.521 596.74 123.977 595.84 124.805L598.548 127.748ZM601.837 120.795C602.353 117.929 602.598 114.286 602.598 109.903H598.598C598.598 114.167 598.357 117.548 597.9 120.086L601.837 120.795ZM602.598 109.903C602.598 104.261 601.398 99.0546 598.974 94.3207L595.414 96.1442C597.528 100.272 598.598 104.847 598.598 109.903H602.598ZM598.983 94.338C596.654 89.6813 593.143 84.9275 588.509 80.0722L585.615 82.8341C590.059 87.4892 593.302 91.9216 595.405 96.1268L598.983 94.338ZM588.497 80.0605L577.96 69.1992L575.089 71.9844L585.626 82.8457L588.497 80.0605ZM577.964 69.2035C575.119 66.2522 572.538 63.1182 570.221 59.8011L566.942 62.0915C569.38 65.583 572.095 68.8793 575.085 71.9801L577.964 69.2035ZM570.233 59.8188C568.019 56.5748 566.234 52.958 564.884 48.9588L561.094 50.2385C562.553 54.5609 564.497 58.5092 566.93 62.0738L570.233 59.8188ZM564.893 48.9882C563.615 45.0012 562.962 40.5102 562.962 35.4951H558.962C558.962 40.8551 559.66 45.7664 561.084 50.2091L564.893 48.9882ZM562.962 35.4951C562.962 28.1343 563.864 22.0257 565.603 17.115L561.833 15.7796C559.898 21.2439 558.962 27.8338 558.962 35.4951H562.962ZM565.603 17.115C567.299 12.3276 570.124 8.7954 574.075 6.40558L572.004 2.98309C567.201 5.88884 563.812 10.1919 561.833 15.7796L565.603 17.115ZM574.09 6.39621C578.034 3.96156 583.618 2.6416 591.034 2.6416V-1.3584C583.211 -1.3584 576.799 0.023468 571.989 2.99246L574.09 6.39621ZM591.034 2.6416C596.573 2.6416 600.948 3.50669 604.264 5.11572L606.01 1.51709C601.977 -0.440289 596.95 -1.3584 591.034 -1.3584V2.6416ZM604.296 5.13078C607.675 6.69818 610.257 8.99882 612.097 12.0496L615.523 9.98362C613.256 6.22579 610.056 3.39297 605.979 1.50203L604.296 5.13078ZM612.117 12.0815C614.058 15.1667 615.469 19.0168 616.299 23.687L620.237 22.9868C619.338 17.9305 617.777 13.567 615.503 9.9517L612.117 12.0815ZM616.299 23.6908C617.138 28.3568 617.565 33.7463 617.565 39.8721H621.565C621.565 33.5695 621.127 27.9355 620.236 22.983L616.299 23.6908ZM617.565 39.8721V48.707H621.565V39.8721H617.565ZM619.565 46.707H599.544V50.707H619.565V46.707ZM601.544 48.707V38.4941H597.544V48.707H601.544ZM601.544 38.4941C601.544 34.1076 601.298 30.3929 600.787 27.379L596.843 28.0487C597.304 30.7627 597.544 34.2348 597.544 38.4941H601.544ZM600.792 27.4154C600.332 24.362 599.402 21.7964 597.8 19.9854L594.804 22.6357C595.688 23.6345 596.434 25.3379 596.837 28.0124L600.792 27.4154ZM597.825 20.0136C596.113 18.0038 593.682 17.1221 590.871 17.1221V21.1221C592.816 21.1221 594.006 21.6994 594.78 22.6075L597.825 20.0136ZM590.871 17.1221C588.306 17.1221 586.018 17.7038 584.18 19.0473L586.54 22.2769C587.511 21.5671 588.897 21.1221 590.871 21.1221V17.1221ZM584.221 19.0177C582.352 20.3118 581.11 22.2836 580.368 24.6941L584.191 25.8704C584.746 24.066 585.557 22.9578 586.498 22.3065L584.221 19.0177ZM580.359 24.7261C579.692 27.0301 579.388 29.9123 579.388 33.3066H583.388C583.388 30.1085 583.679 27.6411 584.201 25.8383L580.359 24.7261ZM579.388 33.3066C579.388 36.4402 579.786 39.2411 580.635 41.6675L584.411 40.3461C583.747 38.4496 583.388 36.1171 583.388 33.3066H579.388ZM580.635 41.6675C581.471 44.0572 582.746 46.3286 584.434 48.4818L587.582 46.0143C586.136 44.1688 585.087 42.2794 584.411 40.3461L580.635 41.6675ZM584.434 48.4818C586.047 50.5391 588.032 52.8265 590.383 55.3414L593.305 52.6098C591.009 50.1533 589.104 47.9557 587.582 46.0143L584.434 48.4818ZM590.375 55.3325L602.128 68.0581L605.066 65.3442L593.313 52.6186L590.375 55.3325ZM602.131 68.0621C607.633 73.9868 611.888 80.1178 614.924 86.4514L618.531 84.7224C615.299 77.9792 610.801 71.5197 605.063 65.3403L602.131 68.0621ZM614.924 86.4514C617.915 92.6914 619.429 99.6861 619.429 107.472H623.429C623.429 99.1544 621.809 91.5592 618.531 84.7224L614.924 86.4514ZM619.429 107.472C619.429 115.88 618.523 122.85 616.766 128.432L620.581 129.633C622.498 123.543 623.429 116.139 623.429 107.472H619.429ZM616.767 128.427C615.043 133.854 612.201 137.833 608.3 140.515L610.566 143.811C615.311 140.549 618.629 135.774 620.579 129.638L616.767 128.427ZM608.3 140.515C604.424 143.18 598.979 144.621 591.763 144.621V148.621C599.461 148.621 605.796 147.09 610.566 143.811L608.3 140.515ZM667.938 145H665.938V147H667.938V145ZM667.938 88.0186H669.938V87.7447L669.865 87.4809L667.938 88.0186ZM644.027 2.34375V0.34375H641.393L642.101 2.88139L644.027 2.34375ZM664.777 2.34375L666.711 1.83245L666.317 0.34375H664.777V2.34375ZM678.881 55.6777L676.947 56.189L677.341 57.6777H678.881V55.6777ZM679.205 55.6777V57.6777H680.789L681.152 56.1363L679.205 55.6777ZM691.768 2.34375V0.34375H690.185L689.822 1.88518L691.768 2.34375ZM712.437 2.34375L714.37 2.8576L715.038 0.34375H712.437V2.34375ZM689.661 88.0186L687.728 87.5047L687.661 87.7572V88.0186H689.661ZM689.661 145V147H691.661V145H689.661ZM669.938 145V88.0186H665.938V145H669.938ZM669.865 87.4809L645.954 1.80611L642.101 2.88139L666.012 88.5562L669.865 87.4809ZM644.027 4.34375H664.777V0.34375H644.027V4.34375ZM662.844 2.85505L676.947 56.189L680.814 55.1664L666.711 1.83245L662.844 2.85505ZM678.881 57.6777H679.205V53.6777H678.881V57.6777ZM681.152 56.1363L693.715 2.80232L689.822 1.88518L677.258 55.2192L681.152 56.1363ZM691.768 4.34375H712.437V0.34375H691.768V4.34375ZM710.504 1.8299L687.728 87.5047L691.594 88.5324L714.37 2.8576L710.504 1.8299ZM687.661 88.0186V145H691.661V88.0186H687.661ZM689.661 143H667.938V147H689.661V143ZM787.543 145H785.543V147H787.543V145ZM787.543 2.34375V0.34375H785.543V2.34375H787.543ZM809.265 2.34375H811.265V0.34375H809.265V2.34375ZM809.265 126.52H807.265V128.52H809.265V126.52ZM836.743 126.52H838.743V124.52H836.743V126.52ZM836.743 145V147H838.743V145H836.743ZM789.543 145V2.34375H785.543V145H789.543ZM787.543 4.34375H809.265V0.34375H787.543V4.34375ZM807.265 2.34375V126.52H811.265V2.34375H807.265ZM809.265 128.52H836.743V124.52H809.265V128.52ZM834.743 126.52V145H838.743V126.52H834.743ZM836.743 143H787.543V147H836.743V143ZM865.096 145H863.096V147H865.096V145ZM865.096 2.34375V0.34375H863.096V2.34375H865.096ZM912.918 2.34375H914.918V0.34375H912.918V2.34375ZM912.918 21.0674V23.0674H914.918V21.0674H912.918ZM886.818 21.0674V19.0674H884.818V21.0674H886.818ZM886.818 62.5674H884.818V64.5674H886.818V62.5674ZM911.621 62.5674H913.621V60.5674H911.621V62.5674ZM911.621 80.8857V82.8857H913.621V80.8857H911.621ZM886.818 80.8857V78.8857H884.818V80.8857H886.818ZM886.818 126.276H884.818V128.276H886.818V126.276ZM913.891 126.276H915.891V124.276H913.891V126.276ZM913.891 145V147H915.891V145H913.891ZM867.096 145V2.34375H863.096V145H867.096ZM865.096 4.34375H912.918V0.34375H865.096V4.34375ZM910.918 2.34375V21.0674H914.918V2.34375H910.918ZM912.918 19.0674H886.818V23.0674H912.918V19.0674ZM884.818 21.0674V62.5674H888.818V21.0674H884.818ZM886.818 64.5674H911.621V60.5674H886.818V64.5674ZM909.621 62.5674V80.8857H913.621V62.5674H909.621ZM911.621 78.8857H886.818V82.8857H911.621V78.8857ZM884.818 80.8857V126.276H888.818V80.8857H884.818ZM886.818 128.276H913.891V124.276H886.818V128.276ZM911.891 126.276V145H915.891V126.276H911.891ZM913.891 143H865.096V147H913.891V143ZM22.208 361L20.2316 361.307L20.4943 363H22.208V361ZM0.0800781 218.344V216.344H-2.25407L-1.89629 218.65L0.0800781 218.344ZM20.749 218.344L22.7284 218.057L22.4805 216.344H20.749V218.344ZM30.0703 282.782L32.0544 282.531L32.0522 282.513L32.0497 282.496L30.0703 282.782ZM35.8252 328.173L33.8411 328.424L34.0628 330.173H35.8252V328.173ZM36.3926 328.173V330.173H38.1866L38.3808 328.389L36.3926 328.173ZM41.3369 282.782L39.3513 282.542L39.3499 282.554L39.3487 282.566L41.3369 282.782ZM49.1182 218.344V216.344H47.3451L47.1326 218.104L49.1182 218.344ZM69.3818 218.344L71.3618 218.626L71.6873 216.344H69.3818V218.344ZM49.0371 361V363H50.7721L51.0171 361.282L49.0371 361ZM24.1844 360.693L2.05644 218.037L-1.89629 218.65L20.2316 361.307L24.1844 360.693ZM0.0800781 220.344H20.749V216.344H0.0800781V220.344ZM18.7696 218.63L28.0909 283.069L32.0497 282.496L22.7284 218.057L18.7696 218.63ZM28.0862 283.034L33.8411 328.424L37.8093 327.921L32.0544 282.531L28.0862 283.034ZM35.8252 330.173H36.3926V326.173H35.8252V330.173ZM38.3808 328.389L43.3252 282.999L39.3487 282.566L34.4043 327.956L38.3808 328.389ZM43.3225 283.022L51.1037 218.584L47.1326 218.104L39.3513 282.542L43.3225 283.022ZM49.1182 220.344H69.3818V216.344H49.1182V220.344ZM67.4019 218.061L47.0571 360.718L51.0171 361.282L71.3618 218.626L67.4019 218.061ZM49.0371 359H22.208V363H49.0371V359ZM111.514 357.92L110.396 359.578L110.405 359.584L111.514 357.92ZM101.22 343.979L99.3381 344.655L101.22 343.979ZM153.987 227.098L152.359 228.26L152.364 228.266L152.368 228.272L153.987 227.098ZM159.255 239.418L157.303 239.852L157.306 239.865L157.309 239.877L159.255 239.418ZM157.715 343.979L155.828 343.316L155.825 343.324L155.823 343.331L157.715 343.979ZM138.424 334.009L136.445 333.721L136.443 333.735L136.441 333.749L138.424 334.009ZM137.371 240.553L135.473 241.185L135.479 241.203L135.486 241.222L137.371 240.553ZM121.889 240.391L123.724 241.186L123.729 241.175L121.889 240.391ZM120.43 334.171L118.447 334.427L118.449 334.445L118.451 334.463L120.43 334.171ZM123.267 341.466L121.778 342.801L121.79 342.815L121.803 342.829L123.267 341.466ZM129.67 360.621C122.541 360.621 116.908 359.112 112.623 356.256L110.405 359.584C115.522 362.996 121.993 364.621 129.67 364.621V360.621ZM112.632 356.262C108.394 353.404 105.199 349.131 103.102 343.302L99.3381 344.655C101.672 351.146 105.34 356.168 110.396 359.578L112.632 356.262ZM103.102 343.302C100.988 337.425 99.8969 330.051 99.8969 321.121H95.8969C95.8969 330.347 97.0208 338.212 99.3381 344.655L103.102 343.302ZM99.8969 321.121V255.872H95.8969V321.121H99.8969ZM99.8969 255.872C99.8969 247.824 100.957 241.048 103.015 235.492L99.2636 234.103C96.9981 240.22 95.8969 247.493 95.8969 255.872H99.8969ZM103.015 235.492C105.045 230.01 108.228 225.883 112.542 223.007L110.324 219.679C105.235 223.071 101.556 227.914 99.2636 234.103L103.015 235.492ZM112.542 223.007C116.819 220.156 122.555 218.642 129.913 218.642V214.642C122.034 214.642 115.45 216.261 110.324 219.679L112.542 223.007ZM129.913 218.642C135.445 218.642 139.982 219.504 143.598 221.139L145.246 217.494C140.973 215.562 135.838 214.642 129.913 214.642V218.642ZM143.598 221.139C147.233 222.782 150.14 225.153 152.359 228.26L155.614 225.935C152.97 222.234 149.5 219.417 145.246 217.494L143.598 221.139ZM152.368 228.272C154.61 231.361 156.27 235.202 157.303 239.852L161.208 238.984C160.079 233.907 158.227 229.535 155.605 225.923L152.368 228.272ZM157.309 239.877C158.401 244.504 158.957 249.83 158.957 255.872H162.957C162.957 249.593 162.38 243.95 161.202 238.959L157.309 239.877ZM158.957 255.872V321.121H162.957V255.872H158.957ZM158.957 321.121C158.957 330.055 157.892 337.434 155.828 343.316L159.602 344.641C161.861 338.203 162.957 330.343 162.957 321.121H158.957ZM155.823 343.331C153.831 349.155 150.715 353.417 146.537 356.268L148.792 359.572C153.8 356.155 157.385 351.122 159.608 344.626L155.823 343.331ZM146.537 356.268C142.37 359.111 136.802 360.621 129.67 360.621V364.621C137.344 364.621 143.773 362.997 148.792 359.572L146.537 356.268ZM129.67 345.816C132.786 345.816 135.453 344.864 137.286 342.665L134.213 340.104C133.344 341.147 131.958 341.816 129.67 341.816V345.816ZM137.286 342.665C138.981 340.631 139.952 337.743 140.407 334.269L136.441 333.749C136.032 336.867 135.219 338.897 134.213 340.104L137.286 342.665ZM140.403 334.296C140.909 330.816 141.154 326.497 141.154 321.364H137.154C137.154 326.39 136.912 330.501 136.445 333.721L140.403 334.296ZM141.154 321.364V254.899H137.154V321.364H141.154ZM141.154 254.899C141.154 248.601 140.557 243.552 139.255 239.884L135.486 241.222C136.562 244.254 137.154 248.769 137.154 254.899H141.154ZM139.268 239.92C138.59 237.886 137.453 236.215 135.785 235.073C134.129 233.939 132.125 233.446 129.913 233.446V237.446C131.539 237.446 132.696 237.805 133.525 238.373C134.343 238.933 135.016 239.815 135.473 241.185L139.268 239.92ZM129.913 233.446C127.665 233.446 125.624 233.917 123.9 234.98C122.162 236.05 120.89 237.633 120.049 239.606L123.729 241.175C124.293 239.852 125.061 238.963 125.998 238.385C126.949 237.799 128.218 237.446 129.913 237.446V233.446ZM120.054 239.595C118.485 243.216 117.782 248.353 117.782 254.818H121.782C121.782 248.531 122.483 244.05 123.724 241.186L120.054 239.595ZM117.782 254.818V321.364H121.782V254.818H117.782ZM117.782 321.364C117.782 326.597 117.999 330.96 118.447 334.427L122.414 333.915C121.996 330.682 121.782 326.506 121.782 321.364H117.782ZM118.451 334.463C118.964 337.94 119.999 340.817 121.778 342.801L124.756 340.131C123.725 338.98 122.868 336.995 122.409 333.879L118.451 334.463ZM121.803 342.829C123.749 344.919 126.487 345.816 129.67 345.816V341.816C127.233 341.816 125.703 341.147 124.731 340.103L121.803 342.829ZM211.925 361H209.925V363H211.925V361ZM211.925 304.019H213.925V303.745L213.851 303.481L211.925 304.019ZM188.013 218.344V216.344H185.379L186.087 218.881L188.013 218.344ZM208.763 218.344L210.697 217.832L210.303 216.344H208.763V218.344ZM222.867 271.678L220.933 272.189L221.327 273.678H222.867V271.678ZM223.191 271.678V273.678H224.775L225.138 272.136L223.191 271.678ZM235.755 218.344V216.344H234.171L233.808 217.885L235.755 218.344ZM256.424 218.344L258.357 218.858L259.025 216.344H256.424V218.344ZM233.647 304.019L231.714 303.505L231.647 303.757V304.019H233.647ZM233.647 361V363H235.647V361H233.647ZM213.925 361V304.019H209.925V361H213.925ZM213.851 303.481L189.94 217.806L186.087 218.881L209.998 304.556L213.851 303.481ZM188.013 220.344H208.763V216.344H188.013V220.344ZM206.83 218.855L220.933 272.189L224.801 271.166L210.697 217.832L206.83 218.855ZM222.867 273.678H223.191V269.678H222.867V273.678ZM225.138 272.136L237.701 218.802L233.808 217.885L221.244 271.219L225.138 272.136ZM235.755 220.344H256.424V216.344H235.755V220.344ZM254.491 217.83L231.714 303.505L235.58 304.532L258.357 218.858L254.491 217.83ZM231.647 304.019V361H235.647V304.019H231.647ZM233.647 359H211.925V363H233.647V359ZM273.429 361L271.449 360.718L271.123 363H273.429V361ZM293.774 218.344V216.344H292.039L291.794 218.061L293.774 218.344ZM322.467 218.344L324.444 218.044L324.186 216.344H322.467V218.344ZM344.109 361V363H346.435L346.086 360.7L344.109 361ZM323.845 361L321.863 361.265L322.095 363H323.845V361ZM320.441 335.549L322.423 335.284L322.191 333.549H320.441V335.549ZM297.421 335.549V333.549H295.649L295.436 335.309L297.421 335.549ZM294.341 361V363H296.114L296.327 361.24L294.341 361ZM299.529 318.122L297.543 317.88L297.269 320.122H299.529V318.122ZM318.171 318.122V320.122H320.456L320.154 317.857L318.171 318.122ZM308.607 246.47L310.589 246.205L310.357 244.47H308.607V246.47ZM308.282 246.47V244.47H306.512L306.297 246.227L308.282 246.47ZM275.409 361.282L295.754 218.626L291.794 218.061L271.449 360.718L275.409 361.282ZM293.774 220.344H322.467V216.344H293.774V220.344ZM320.49 218.644L342.131 361.3L346.086 360.7L324.444 218.044L320.49 218.644ZM344.109 359H323.845V363H344.109V359ZM325.827 360.735L322.423 335.284L318.458 335.814L321.863 361.265L325.827 360.735ZM320.441 333.549H297.421V337.549H320.441V333.549ZM295.436 335.309L292.355 360.76L296.327 361.24L299.407 335.789L295.436 335.309ZM294.341 359H273.429V363H294.341V359ZM299.529 320.122H318.171V316.122H299.529V320.122ZM320.154 317.857L310.589 246.205L306.624 246.734L316.189 318.387L320.154 317.857ZM308.607 244.47H308.282V248.47H308.607V244.47ZM306.297 246.227L297.543 317.88L301.514 318.365L310.268 246.712L306.297 246.227ZM379.756 352.327L378.172 353.547L378.176 353.553L379.756 352.327ZM373.677 240.147L371.736 239.667L371.733 239.677L371.731 239.687L373.677 240.147ZM379.351 227.422L377.742 226.234L377.739 226.238L379.351 227.422ZM389.402 219.479L390.199 221.313L390.209 221.309L390.219 221.304L389.402 219.479ZM419.554 219.56L418.69 221.363L418.7 221.368L418.71 221.373L419.554 219.56ZM428.632 227.665L426.911 228.682L426.92 228.698L426.929 228.713L428.632 227.665ZM434.306 268.192V270.192H436.306V268.192H434.306ZM414.043 268.192H412.043V270.192H414.043V268.192ZM412.016 239.58L410.213 240.446L410.22 240.46L410.227 240.475L412.016 239.58ZM396.129 240.31L397.918 241.204L397.924 241.192L396.129 240.31ZM395.724 338.224L393.827 338.856L393.832 338.872L393.838 338.888L395.724 338.224ZM412.746 338.062L410.91 337.268L410.905 337.28L412.746 338.062ZM415.339 298.912H417.339V296.912H415.339V298.912ZM404.397 298.912H402.397V300.912H404.397V298.912ZM404.397 283.106V281.106H402.397V283.106H404.397ZM434.306 283.106H436.306V281.106H434.306V283.106ZM434.306 361V363H436.306V361H434.306ZM424.58 361L422.634 361.461L422.998 363H424.58V361ZM421.256 346.978L423.203 346.516L419.312 346.508L421.256 346.978ZM413.637 358.406L412.496 356.763L412.486 356.771L413.637 358.406ZM400.506 360.459C392.529 360.459 386.197 357.365 381.337 351.101L378.176 353.553C383.799 360.799 391.3 364.459 400.506 364.459V360.459ZM381.341 351.107C376.509 344.83 373.894 334.357 373.894 319.257H369.894C369.894 334.633 372.521 346.207 378.172 353.547L381.341 351.107ZM373.894 319.257V257.25H369.894V319.257H373.894ZM373.894 257.25C373.894 250.994 374.478 245.452 375.624 240.608L371.731 239.687C370.499 244.894 369.894 250.753 369.894 257.25H373.894ZM375.619 240.628C376.812 235.805 378.607 231.815 380.963 228.606L377.739 226.238C375.016 229.946 373.029 234.439 371.736 239.667L375.619 240.628ZM380.96 228.61C383.339 225.388 386.406 222.96 390.199 221.313L388.605 217.644C384.184 219.564 380.551 222.431 377.742 226.234L380.96 228.61ZM390.219 221.304C394.006 219.61 398.657 218.723 404.235 218.723V214.723C398.249 214.723 393.011 215.673 388.585 217.653L390.219 221.304ZM404.235 218.723C410.324 218.723 415.106 219.645 418.69 221.363L420.419 217.756C416.114 215.692 410.682 214.723 404.235 214.723V218.723ZM418.71 221.373C422.308 223.048 425.019 225.482 426.911 228.682L430.354 226.648C428.031 222.715 424.69 219.745 420.399 217.747L418.71 221.373ZM426.929 228.713C428.921 231.95 430.335 236.008 431.115 240.946L435.066 240.322C434.225 234.993 432.667 230.405 430.336 226.617L426.929 228.713ZM431.115 240.946C431.906 245.954 432.306 251.656 432.306 258.061H436.306C436.306 251.496 435.896 245.58 435.066 240.322L431.115 240.946ZM432.306 258.061V268.192H436.306V258.061H432.306ZM434.306 266.192H414.043V270.192H434.306V266.192ZM416.043 268.192V253.278H412.043V268.192H416.043ZM416.043 253.278C416.043 246.812 415.38 241.836 413.805 238.686L410.227 240.475C411.354 242.728 412.043 246.884 412.043 253.278H416.043ZM413.819 238.715C413 237.009 411.769 235.672 410.134 234.783C408.524 233.908 406.633 233.527 404.559 233.527V237.527C406.16 237.527 407.349 237.822 408.224 238.298C409.075 238.76 409.735 239.45 410.213 240.446L413.819 238.715ZM404.559 233.527C402.274 233.527 400.199 233.977 398.425 234.983C396.636 235.998 395.277 237.51 394.335 239.427L397.924 241.192C398.549 239.921 399.378 239.042 400.399 238.462C401.436 237.874 402.792 237.527 404.559 237.527V233.527ZM394.341 239.415C392.544 243.009 391.779 249.029 391.779 257.088H395.779C395.779 249.044 396.581 243.878 397.918 241.204L394.341 239.415ZM391.779 257.088V318.933H395.779V257.088H391.779ZM391.779 318.933C391.779 327.924 392.42 334.636 393.827 338.856L397.622 337.591C396.435 334.03 395.779 327.881 395.779 318.933H391.779ZM393.838 338.888C394.624 341.122 395.884 342.942 397.689 344.186C399.489 345.427 401.661 345.979 404.073 345.979V341.979C402.27 341.979 400.943 341.571 399.96 340.893C398.982 340.219 398.175 339.162 397.611 337.559L393.838 338.888ZM404.073 345.979C406.457 345.979 408.616 345.401 410.448 344.151C412.275 342.905 413.633 341.089 414.587 338.843L410.905 337.28C410.183 338.979 409.259 340.121 408.194 340.847C407.135 341.569 405.796 341.979 404.073 341.979V345.979ZM414.581 338.855C416.485 334.453 417.339 327.449 417.339 318.122H413.339C413.339 327.383 412.465 333.673 410.91 337.268L414.581 338.855ZM417.339 318.122V298.912H413.339V318.122H417.339ZM415.339 296.912H404.397V300.912H415.339V296.912ZM406.397 298.912V283.106H402.397V298.912H406.397ZM404.397 285.106H434.306V281.106H404.397V285.106ZM432.306 283.106V361H436.306V283.106H432.306ZM434.306 359H424.58V363H434.306V359ZM426.526 360.539L423.203 346.516L419.31 347.439L422.634 361.461L426.526 360.539ZM419.312 346.508C418.23 350.984 415.956 354.361 412.497 356.764L414.778 360.049C419.1 357.048 421.905 352.806 423.2 347.448L419.312 346.508ZM412.486 356.771C409.003 359.224 405.032 360.459 400.506 360.459V364.459C405.815 364.459 410.598 362.992 414.789 360.041L412.486 356.771ZM471.332 361H469.332V363H471.332V361ZM471.332 218.344V216.344H469.332V218.344H471.332ZM519.154 218.344H521.154V216.344H519.154V218.344ZM519.154 237.067V239.067H521.154V237.067H519.154ZM493.055 237.067V235.067H491.055V237.067H493.055ZM493.055 278.567H491.055V280.567H493.055V278.567ZM517.857 278.567H519.857V276.567H517.857V278.567ZM517.857 296.886V298.886H519.857V296.886H517.857ZM493.055 296.886V294.886H491.055V296.886H493.055ZM493.055 342.276H491.055V344.276H493.055V342.276ZM520.127 342.276H522.127V340.276H520.127V342.276ZM520.127 361V363H522.127V361H520.127ZM473.332 361V218.344H469.332V361H473.332ZM471.332 220.344H519.154V216.344H471.332V220.344ZM517.154 218.344V237.067H521.154V218.344H517.154ZM519.154 235.067H493.055V239.067H519.154V235.067ZM491.055 237.067V278.567H495.055V237.067H491.055ZM493.055 280.567H517.857V276.567H493.055V280.567ZM515.857 278.567V296.886H519.857V278.567H515.857ZM517.857 294.886H493.055V298.886H517.857V294.886ZM491.055 296.886V342.276H495.055V296.886H491.055ZM493.055 344.276H520.127V340.276H493.055V344.276ZM518.127 342.276V361H522.127V342.276H518.127ZM520.127 359H471.332V363H520.127V359Z" fill="#F4BD03"/>
</svg>
