<svg width="61" height="60" viewBox="0 0 61 60" fill="none" xmlns="http://www.w3.org/2000/svg">
<path d="M58.125 25.75H55.7651C58.5281 23.0476 60.25 19.2854 60.25 15.125C60.25 6.92383 53.5772 0.25 45.375 0.25C41.2144 0.25 37.4523 1.97202 34.75 4.73489V2.375C34.75 1.20044 33.7985 0.25 32.625 0.25H11.375C10.8116 0.25 10.271 0.474121 9.87256 0.872559L1.37437 9.37074C0.988777 9.7553 0.75 10.2868 0.75 10.875V32.125C0.75 33.2996 1.70148 34.25 2.875 34.25H11.375V47C11.375 48.1746 12.3265 49.125 13.5 49.125H35.3413C36.0785 50.3889 37.4339 51.25 39 51.25C41.3439 51.25 43.25 49.3429 43.25 47C43.25 44.6571 41.3439 42.75 39 42.75C37.4339 42.75 36.0785 43.6111 35.3413 44.875H30.5V38.5H47.5V55.5H30.5V53.375C30.5 52.2004 29.5485 51.25 28.375 51.25C27.2015 51.25 26.25 52.2004 26.25 53.375V57.625C26.25 58.7996 27.2015 59.75 28.375 59.75H49.625C49.9016 59.75 50.1771 59.6936 50.4368 59.5862C50.6974 59.4783 50.9326 59.3226 51.1289 59.126L59.6274 50.6274C60.0259 50.229 60.25 49.6895 60.25 49.125V27.875C60.25 26.7004 59.2985 25.75 58.125 25.75ZM45.375 4.5C51.2333 4.5 56 9.26672 56 15.125C56 20.9833 51.2333 25.75 45.375 25.75C39.5167 25.75 34.75 20.9833 34.75 15.125C34.75 9.26672 39.5167 4.5 45.375 4.5ZM26.25 11.7549L30.5 7.50488V22.7451L26.25 26.9951V11.7549ZM12.2549 4.5H27.4951L23.2451 8.75H8.00488L12.2549 4.5ZM15.625 44.875V25.1588C16.8892 24.4214 17.75 23.0656 17.75 21.5C17.75 19.1571 15.8439 17.25 13.5 17.25C11.1561 17.25 9.25 19.1571 9.25 21.5C9.25 23.0656 10.1108 24.4214 11.375 25.1588V30H5V13H22V30H19.875C18.7015 30 17.75 30.9504 17.75 32.125C17.75 33.2996 18.7015 34.25 19.875 34.25H24.125C24.6884 34.25 25.229 34.0259 25.6274 33.6274L34.1274 25.1274C34.177 25.0779 35.4221 26.323 35.3726 26.3726L26.8726 34.8726C26.4741 35.271 26.25 35.8105 26.25 36.375V44.875H15.625ZM33.5049 34.25L37.7549 30H52.9951L48.7451 34.25H33.5049ZM51.75 52.4951V37.2549L56 33.0049V48.2451L51.75 52.4951Z" fill="#FFF7DB"/>
<path d="M41.125 17.25H45.375C45.9384 17.25 46.479 17.0259 46.8774 16.6274L51.1274 12.3774C51.9575 11.5474 51.9575 10.2026 51.1274 9.37256C50.2974 8.54248 48.9526 8.54248 48.1226 9.37256L44.4951 13H41.125C39.9515 13 39 13.9504 39 15.125C39 16.2996 39.9515 17.25 41.125 17.25Z" fill="#FFF7DB"/>
</svg>
