<svg width="68" height="68" viewBox="0 0 68 68" fill="none" xmlns="http://www.w3.org/2000/svg">
<path d="M65.3438 57.375H54.7188C53.2517 57.375 52.0625 58.5642 52.0625 60.0312C52.0625 61.4983 53.2517 62.6875 54.7188 62.6875H65.3438C66.8108 62.6875 68 61.4983 68 60.0312C68 58.5642 66.8108 57.375 65.3438 57.375Z" fill="#FFF7DB"/>
<path d="M38.7812 52.0625C35.3184 52.0625 32.366 54.2834 31.2694 57.375H2.65625C1.1892 57.375 0 58.5642 0 60.0312C0 61.4983 1.1892 62.6875 2.65625 62.6875H31.2694C32.3659 65.7791 35.3184 68 38.7812 68C43.1752 68 46.75 64.4252 46.75 60.0312C46.75 55.6373 43.1752 52.0625 38.7812 52.0625ZM38.7812 62.6875C37.3166 62.6875 36.125 61.4959 36.125 60.0312C36.125 58.5666 37.3166 57.375 38.7812 57.375C40.2459 57.375 41.4375 58.5666 41.4375 60.0312C41.4375 61.4959 40.2459 62.6875 38.7812 62.6875Z" fill="#FFF7DB"/>
<path d="M54.7188 0H13.2812C5.95797 0 0 5.95797 0 13.2812V34.5312C0 41.8545 5.95797 47.8125 13.2812 47.8125H54.7188C62.042 47.8125 68 41.8545 68 34.5312V13.2812C68 5.95797 62.042 0 54.7188 0ZM62.6875 34.5312C62.6875 38.9252 59.1127 42.5 54.7188 42.5H13.2812C8.88728 42.5 5.3125 38.9252 5.3125 34.5312V13.2812C5.3125 8.88728 8.88728 5.3125 13.2812 5.3125H54.7188C59.1127 5.3125 62.6875 8.88728 62.6875 13.2812V34.5312Z" fill="#FFF7DB"/>
<path d="M49.4062 10.625C45.9434 10.625 42.991 12.8459 41.8944 15.9375H39.8438C32.7019 15.9375 26.4873 19.9854 23.3738 25.9069C20.9359 23.0585 17.3157 21.25 13.2812 21.25C11.8142 21.25 10.625 22.4392 10.625 23.9062C10.625 25.3733 11.8142 26.5625 13.2812 26.5625C17.6752 26.5625 21.25 30.1373 21.25 34.5312C21.25 35.9983 22.4392 37.1875 23.9062 37.1875C25.3733 37.1875 26.5625 35.9983 26.5625 34.5312C26.5625 27.208 32.5205 21.25 39.8438 21.25H41.8944C42.9909 24.3416 45.9434 26.5625 49.4062 26.5625C53.8002 26.5625 57.375 22.9877 57.375 18.5938C57.375 14.1998 53.8002 10.625 49.4062 10.625ZM49.4062 21.25C47.9416 21.25 46.75 20.0584 46.75 18.5938C46.75 17.1291 47.9416 15.9375 49.4062 15.9375C50.8709 15.9375 52.0625 17.1291 52.0625 18.5938C52.0625 20.0584 50.8709 21.25 49.4062 21.25Z" fill="#FFF7DB"/>
</svg>
