<svg width="68" height="68" viewBox="0 0 68 68" fill="none" xmlns="http://www.w3.org/2000/svg">
<path d="M58.0417 9.95828C51.6198 3.53666 43.0817 0 34 0C24.9183 0 16.3802 3.53666 9.95828 9.95828C3.53666 16.3802 0 24.9183 0 34C0 43.0817 3.53666 51.6198 9.95828 58.0417C16.3802 64.4633 24.9183 68 34 68C43.0817 68 51.6198 64.4633 58.0417 58.0417C64.4633 51.6198 68 43.0817 68 34C68 24.9183 64.4633 16.3802 58.0417 9.95828V9.95828ZM51.9297 34C51.9297 43.8864 43.8864 51.9297 34 51.9297C24.1136 51.9297 16.0703 43.8864 16.0703 34C16.0703 24.1136 24.1136 16.0703 34 16.0703C43.8864 16.0703 51.9297 24.1136 51.9297 34ZM35.9922 55.8226C40.541 55.4106 44.693 53.6037 48.0154 50.8327L53.7583 56.5755C48.943 60.7951 42.7716 63.5014 35.9922 63.9479V55.8226ZM50.8327 48.0153C53.6035 44.693 55.4106 40.541 55.8226 35.9922H63.9479C63.5014 42.7716 60.7951 48.9429 56.5756 53.7581L50.8327 48.0153ZM55.8226 32.0078C55.6814 30.4491 55.378 28.9365 54.9265 27.4883L62.4342 24.3785C63.2554 26.7986 63.7734 29.3571 63.9479 32.0078H55.8226ZM60.9028 20.7002L53.3957 23.8097C52.6749 22.4433 51.8145 21.1618 50.8328 19.9847L56.5756 14.2419C58.282 16.1893 59.7405 18.3585 60.9028 20.7002ZM34 3.98438C41.56 3.98438 48.4751 6.79495 53.7583 11.4245L48.0154 17.1673C44.2137 13.9966 39.326 12.0859 34 12.0859C22.5881 12.0859 13.1874 20.8546 12.1774 32.0078H4.05211C5.08114 16.3826 18.1188 3.98438 34 3.98438V3.98438ZM4.05211 35.9922H12.1774C13.128 46.489 21.511 54.872 32.0078 55.8226V63.9479C17.0413 62.9622 5.03784 50.9587 4.05211 35.9922V35.9922Z" fill="#FFF7DB"/>
<path d="M24.0391 32.0078H28.0234V35.9922H24.0391V32.0078Z" fill="#FFF7DB"/>
<path d="M24.0391 24.0391H28.0234V28.0234H24.0391V24.0391Z" fill="#FFF7DB"/>
<path d="M24.0391 39.9766H28.0234V43.9609H24.0391V39.9766Z" fill="#FFF7DB"/>
<path d="M32.0078 32.0078H43.9609V35.9922H32.0078V32.0078Z" fill="#FFF7DB"/>
<path d="M32.0078 24.0391H43.9609V28.0234H32.0078V24.0391Z" fill="#FFF7DB"/>
<path d="M32.0078 39.9766H43.9609V43.9609H32.0078V39.9766Z" fill="#FFF7DB"/>
</svg>
