<svg width="68" height="68" viewBox="0 0 68 68" fill="none" xmlns="http://www.w3.org/2000/svg">
<path d="M20.1733 19.8935C23.4609 19.8935 26.1356 17.2187 26.1356 13.9311C26.1356 10.6435 23.4609 7.96875 20.1733 7.96875C16.8856 7.96875 14.2109 10.6435 14.2109 13.9311C14.2109 17.2187 16.8856 19.8935 20.1733 19.8935ZM20.1733 11.9531C21.2639 11.9531 22.1513 12.8404 22.1513 13.9311C22.1513 15.0218 21.2639 15.9091 20.1733 15.9091C19.0826 15.9091 18.1953 15.0218 18.1953 13.9311C18.1953 12.8404 19.0826 11.9531 20.1733 11.9531Z" fill="#FFF7DB"/>
<path d="M66.0078 30.4117H55.2832V1.99219C55.2832 0.891969 54.3912 0 53.291 0H1.99219C0.891969 0 0 0.891969 0 1.99219V53.291C0 54.3912 0.891969 55.2832 1.99219 55.2832H30.4117V66.0078C30.4117 67.108 31.3036 68 32.4039 68H66.0078C67.108 68 68 67.108 68 66.0078V32.4039C68 31.3036 67.108 30.4117 66.0078 30.4117ZM51.2988 3.98438V20.5442L39.8771 12.3146C39.0875 11.7455 38.0024 11.8307 37.3109 12.5153L23.5516 26.138L15.6097 23.9494C14.9645 23.7717 14.2732 23.9298 13.7693 24.37L3.98438 32.9234V3.98438H51.2988ZM3.98438 51.2988V38.2155L15.5845 28.0754L23.6048 30.2856C24.2919 30.475 25.0286 30.2826 25.5357 29.7807L38.9161 16.5332L51.2988 25.4552V30.4118H32.4039C31.3036 30.4118 30.4117 31.3038 30.4117 32.404V51.2988H3.98438ZM64.0156 64.0156H34.396V34.396H64.0156V64.0156Z" fill="#FFF7DB"/>
<path d="M40.3729 56.7989H50.8141V58.0393C50.8141 59.1395 51.7061 60.0315 52.8063 60.0315C53.9065 60.0315 54.7985 59.1395 54.7985 58.0393V56.7989H58.0394C59.1396 56.7989 60.0316 55.907 60.0316 54.8067C60.0316 53.7065 59.1396 52.8146 58.0394 52.8146H54.7986V51.5742C54.7986 50.474 53.9066 49.582 52.8064 49.582C51.7062 49.582 50.8142 50.474 50.8142 51.5742V52.8146H40.373C39.2728 52.8146 38.3809 53.7065 38.3809 54.8067C38.3807 55.907 39.2727 56.7989 40.3729 56.7989Z" fill="#FFF7DB"/>
<path d="M40.3729 45.5973H43.6137V46.8376C43.6137 47.9378 44.5056 48.8298 45.6059 48.8298C46.7061 48.8298 47.598 47.9378 47.598 46.8376V45.5973H58.0394C59.1396 45.5973 60.0316 44.7053 60.0316 43.6051C60.0316 42.5049 59.1396 41.6129 58.0394 41.6129H47.5982V40.3726C47.5982 39.2723 46.7062 38.3804 45.606 38.3804C44.5058 38.3804 43.6138 39.2723 43.6138 40.3726V41.6129H40.373C39.2728 41.6129 38.3809 42.5049 38.3809 43.6051C38.3807 44.7053 39.2727 45.5973 40.3729 45.5973Z" fill="#FFF7DB"/>
</svg>
