<svg width="68" height="68" viewBox="0 0 68 68" fill="none" xmlns="http://www.w3.org/2000/svg">
<path d="M66.0078 44.6372H40.6811C39.8217 41.7604 37.1526 39.6567 34 39.6567C30.8474 39.6567 28.1783 41.7604 27.3189 44.6372H1.99219C0.891969 44.6372 0 45.5292 0 46.6294C0 47.7296 0.891969 48.6216 1.99219 48.6216H27.3189C28.1783 51.4984 30.8474 53.6021 34 53.6021C37.1526 53.6021 39.8217 51.4984 40.6811 48.6216H66.0078C67.108 48.6216 68 47.7296 68 46.6294C68 45.5292 67.108 44.6372 66.0078 44.6372ZM34 49.6177C32.3522 49.6177 31.0117 48.2771 31.0117 46.6294C31.0117 44.9817 32.3522 43.6411 34 43.6411C35.6477 43.6411 36.9883 44.9817 36.9883 46.6294C36.9883 48.2771 35.6477 49.6177 34 49.6177Z" fill="#FFF7DB"/>
<path d="M66.0078 59.0352H57.0177C56.1583 56.1583 53.4892 54.0547 50.3366 54.0547C47.184 54.0547 44.5149 56.1583 43.6555 59.0352H1.99219C0.891969 59.0352 0 59.9271 0 61.0273C0 62.1276 0.891969 63.0195 1.99219 63.0195H43.6555C44.5149 65.8964 47.184 68 50.3366 68C53.4892 68 56.1583 65.8964 57.0177 63.0195H66.0078C67.108 63.0195 68 62.1276 68 61.0273C68 59.9271 67.108 59.0352 66.0078 59.0352ZM50.3366 64.0156C48.6889 64.0156 47.3483 62.675 47.3483 61.0273C47.3483 59.3797 48.6889 58.0391 50.3366 58.0391C51.9843 58.0391 53.3249 59.3797 53.3249 61.0273C53.3249 62.675 51.9843 64.0156 50.3366 64.0156Z" fill="#FFF7DB"/>
<path d="M66.0078 0H6.58763C2.95521 0 0 2.95521 0 6.58763C0 9.71364 2.18928 12.3362 5.11461 13.0073C4.72188 13.8504 4.50115 14.7889 4.50115 15.7785C4.50115 19.4109 7.45636 22.3662 11.0888 22.3662H14.1378C14.6431 27.5069 17.0873 32.2932 21.0192 35.7256C22.9568 37.4169 25.6195 37.8044 27.9689 36.7367C30.3368 35.6606 31.8077 33.3796 31.8077 30.7841V30.6093C31.8077 28.7653 31.0019 26.9811 29.5967 25.7142C27.9702 24.2476 27.1056 22.1538 27.2246 19.9698C27.4227 16.3365 30.4258 13.3556 34.0614 13.1838C36.0477 13.0897 37.9352 13.7939 39.3741 15.1664C40.8149 16.5406 41.6082 18.3896 41.6082 20.3728C41.6082 22.4235 40.7239 24.3845 39.1819 25.7527C37.8043 26.9753 37.0142 28.7453 37.0142 30.6088V30.7838C37.0142 33.3795 38.4853 35.6606 40.8535 36.7369C41.7323 37.1364 42.6547 37.332 43.5672 37.332C45.0928 37.332 46.5894 36.7843 47.8015 35.7262C50.5253 33.3484 52.542 30.3417 53.6934 26.9617H66.0078C67.108 26.9617 68 26.0698 68 24.9695V1.99219C68 0.891969 67.108 0 66.0078 0V0ZM3.98438 6.58763C3.98438 5.1522 5.1522 3.98438 6.58763 3.98438H22.323C20.3888 5.41477 18.7163 7.17891 17.3902 9.19089H6.58763C5.1522 9.19089 3.98438 8.02307 3.98438 6.58763ZM8.48566 15.7784C8.48566 14.343 9.65348 13.1751 11.0889 13.1751H15.3529C14.7294 14.8204 14.3128 16.5662 14.136 18.3816H11.0888C9.65348 18.3818 8.48566 17.214 8.48566 15.7784ZM64.0156 22.9771H52.2107C51.3018 22.9771 50.5082 23.5923 50.2815 24.4724C49.4558 27.6791 47.6922 30.5325 45.1814 32.7243C44.4255 33.3843 43.4238 33.5283 42.5021 33.1094C41.5606 32.6816 40.9987 31.812 40.9987 30.7837V30.6086C40.9987 29.8835 41.3004 29.1996 41.8266 28.7328C44.2201 26.609 45.5927 23.5617 45.5927 20.3726C45.5927 17.2895 44.361 14.4165 42.1243 12.2832C40.0215 10.2773 37.3033 9.19062 34.4189 9.19062C34.2377 9.19062 34.0555 9.19487 33.8732 9.20351C31.1186 9.3338 28.5144 10.4846 26.5405 12.4439C24.5662 14.4034 23.3962 16.9991 23.2462 19.7527C23.0613 23.1448 24.4035 26.3962 26.9287 28.673C27.4972 29.1857 27.8233 29.8913 27.8233 30.609V30.7838C27.8233 31.812 27.2615 32.6814 26.3202 33.1091C25.398 33.5281 24.3958 33.384 23.6393 32.7237C20.0698 29.6079 18.0227 25.1061 18.0227 20.3724C18.0228 11.3361 25.3745 3.98438 34.4111 3.98438H64.0156V22.9771Z" fill="#FFF7DB"/>
</svg>
