<svg width="68" height="48" viewBox="0 0 68 48" fill="none" xmlns="http://www.w3.org/2000/svg">
<path d="M68.0001 23.9998C68.0001 36.9863 57.4348 47.5518 44.4481 47.5518C36.5726 47.5518 29.2611 43.6389 24.8766 37.104H13.1043C11.6373 37.104 10.4481 35.9148 10.4481 34.4478C10.4481 32.9807 11.6373 31.7915 13.1043 31.7915H34.0001C35.4672 31.7915 36.6564 32.9807 36.6564 34.4478C36.6564 35.9148 35.4672 37.104 34.0001 37.104H31.771C35.1332 40.3452 39.6715 42.2393 44.4481 42.2393C54.5055 42.2393 62.6876 34.0572 62.6876 23.9998C62.6876 13.9424 54.5055 5.76025 44.4481 5.76025C37.9565 5.76025 31.9018 9.25535 28.647 14.8818C28.209 15.6386 27.3866 16.1766 26.4212 16.2044C26.2098 16.2101 8.73123 16.2073 2.65625 16.2081C1.1892 16.2081 0 15.0189 0 13.5518C0 12.0848 1.1892 10.8956 2.65625 10.8956H24.8764C29.2643 4.35576 36.5779 0.447754 44.448 0.447754C57.4348 0.447754 68.0001 11.0133 68.0001 23.9998ZM44.4481 10.8956C42.981 10.8956 41.7918 12.0848 41.7918 13.5518V23.9998C41.7918 24.7044 42.0717 25.38 42.5697 25.878L47.7935 31.1019C48.8305 32.1389 50.5123 32.1397 51.55 31.1021C52.5874 30.0647 52.5875 28.3829 51.5501 27.3456L47.1042 22.8996V13.5518C47.1043 12.0848 45.9151 10.8956 44.4481 10.8956ZM31.3439 23.9998C31.3439 22.5327 30.1547 21.3435 28.6876 21.3435H7.8803C6.41325 21.3435 5.22405 22.5327 5.22405 23.9998C5.22405 25.4668 6.41325 26.656 7.8803 26.656H28.6876C30.1547 26.656 31.3439 25.4668 31.3439 23.9998Z" fill="#FFF7DB"/>
</svg>
