<svg width="48" height="48" viewBox="0 0 48 48" fill="none" xmlns="http://www.w3.org/2000/svg">
<path d="M21 39.75C21.4142 39.75 21.75 39.4142 21.75 39C21.75 38.5858 21.4142 38.25 21 38.25C20.5858 38.25 20.25 38.5858 20.25 39C20.25 39.4142 20.5858 39.75 21 39.75Z" fill="white"/>
<path d="M24 39.75C24.4142 39.75 24.75 39.4142 24.75 39C24.75 38.5858 24.4142 38.25 24 38.25C23.5858 38.25 23.25 38.5858 23.25 39C23.25 39.4142 23.5858 39.75 24 39.75Z" fill="white"/>
<path d="M27 39.75C27.4142 39.75 27.75 39.4142 27.75 39C27.75 38.5858 27.4142 38.25 27 38.25C26.5858 38.25 26.25 38.5858 26.25 39C26.25 39.4142 26.5858 39.75 27 39.75Z" fill="white"/>
<path d="M44.25 11.2501H32.8612C32.9445 10.7573 33 10.2578 33 9.75009C33 7.19259 31.9065 4.74684 29.9985 3.04059C28.0928 1.33659 25.5315 0.522089 22.9665 0.807839C19.0177 1.24884 15.714 4.40934 15.1102 8.32359C14.9572 9.31734 14.9843 10.3006 15.1432 11.2501H8.25V6.00009H3.75C2.0955 6.00009 0.75 7.34559 0.75 9.00009V29.2501C0.75 30.9046 2.0955 32.2501 3.75 32.2501H5.25V39.0001C5.25 41.0678 6.93225 42.7501 9 42.7501H16.5V45.7501H13.5V47.2501H34.5V45.7501H31.5V42.7501H39C41.0677 42.7501 42.75 41.0678 42.75 39.0001V36.7501H44.25C45.9045 36.7501 47.25 35.4046 47.25 33.7501V14.2501C47.25 12.5956 45.9045 11.2501 44.25 11.2501ZM44.25 12.7501C45.0773 12.7501 45.75 13.4228 45.75 14.2501V31.1671C45.3068 30.9091 44.799 30.7501 44.25 30.7501H26.7135L28.5 27.1771V20.2501V19.3021C28.5 18.3016 28.9838 17.3176 29.8268 16.6013C31.0522 15.5596 31.9552 14.2268 32.4788 12.7501H44.25ZM9.75 32.2501H22.0365L22.2435 32.6641C22.578 33.3338 23.2507 33.7501 24 33.7501C24.7493 33.7501 25.422 33.3338 25.7565 32.6648L25.9635 32.2501H38.25V35.2501H9.75V32.2501ZM23.5012 12.0001H24.498L24.048 18.7501H23.9513L23.5012 12.0001ZM27 20.2501V26.2501H21V20.2501H27ZM26.5365 27.7501L24.4148 31.9943C24.2565 32.3101 23.7435 32.3101 23.586 31.9943L21.4635 27.7501H26.5365ZM16.593 8.55159C17.0955 5.29584 19.8458 2.66559 23.133 2.29809C25.3043 2.05509 27.387 2.71659 28.9988 4.15809C30.588 5.58084 31.5 7.61859 31.5 9.75009C31.5 11.9498 30.5362 14.0303 28.8555 15.4583C27.828 16.3313 27.1822 17.5081 27.033 18.7501H25.5518L26.0017 12.0001H27C28.2405 12.0001 29.25 10.9906 29.25 9.75009C29.25 8.50959 28.2405 7.50009 27 7.50009H26.9032C25.7235 7.50009 24.7372 8.42259 24.6585 9.60084L24.5985 10.5001H23.4015L23.3415 9.60009C23.2628 8.42259 22.2765 7.50009 21.0968 7.50009H21C19.7595 7.50009 18.75 8.50959 18.75 9.75009C18.75 10.9906 19.7595 12.0001 21 12.0001H21.9982L22.4482 18.7501H20.958C20.7983 17.4683 20.1892 16.3201 19.2323 15.5318C17.1675 13.8308 16.1805 11.2216 16.593 8.55159ZM26.1015 10.5001L26.1548 9.70059C26.181 9.30759 26.5102 9.00009 26.9032 9.00009H27C27.4132 9.00009 27.75 9.33684 27.75 9.75009C27.75 10.1633 27.4132 10.5001 27 10.5001H26.1015ZM21.8985 10.5001H21C20.5868 10.5001 20.25 10.1633 20.25 9.75009C20.25 9.33684 20.5868 9.00009 21 9.00009H21.0968C21.4897 9.00009 21.819 9.30759 21.8453 9.70059L21.8985 10.5001ZM2.25 9.00009C2.25 8.17284 2.92275 7.50009 3.75 7.50009H6.75V25.5001H3.75C3.204 25.5001 2.69175 25.6463 2.25 25.9028V9.00009ZM2.25 29.2501V28.5001C2.25 27.6728 2.92275 27.0001 3.75 27.0001H8.25V12.7501H15.522C16.056 14.2613 16.9867 15.6248 18.279 16.6898C19.0553 17.3288 19.5 18.3278 19.5 19.5001V20.2501V27.1771L21.2865 30.7501H3.75C2.92275 30.7501 2.25 30.0773 2.25 29.2501ZM30 45.7501H18V42.7501H30V45.7501ZM39 41.2501H9C7.7595 41.2501 6.75 40.2406 6.75 39.0001V32.2501H8.25V35.2501C8.25 36.0773 8.92275 36.7501 9.75 36.7501H38.25C39.0773 36.7501 39.75 36.0773 39.75 35.2501V32.2501H41.25V39.0001C41.25 40.2406 40.2405 41.2501 39 41.2501ZM44.25 35.2501H42.75V32.2501H44.25C45.0773 32.2501 45.75 32.9228 45.75 33.7501C45.75 34.5773 45.0773 35.2501 44.25 35.2501Z" fill="white"/>
<path d="M32.25 14.25H35.25V15.75H32.25V14.25Z" fill="white"/>
<path d="M36.75 14.25H44.25V15.75H36.75V14.25Z" fill="white"/>
<path d="M32.25 17.25H44.25V18.75H32.25V17.25Z" fill="white"/>
<path d="M32.25 20.25H44.25V21.75H32.25V20.25Z" fill="white"/>
<path d="M32.25 23.25H33.75V24.75H32.25V23.25Z" fill="white"/>
<path d="M35.25 23.25H44.25V24.75H35.25V23.25Z" fill="white"/>
<path d="M41.25 26.25H44.25V27.75H41.25V26.25Z" fill="white"/>
<path d="M32.25 26.25H39.75V27.75H32.25V26.25Z" fill="white"/>
<path d="M9.75 29.25H17.25V23.25H9.75V29.25ZM11.25 24.75H15.75V27.75H11.25V24.75Z" fill="white"/>
<path d="M9.75 20.25H17.25V21.75H9.75V20.25Z" fill="white"/>
<path d="M15.75 17.25H17.25V18.75H15.75V17.25Z" fill="white"/>
<path d="M9.75 17.25H14.25V18.75H9.75V17.25Z" fill="white"/>
<path d="M9.75 14.25H15.75V15.75H9.75V14.25Z" fill="white"/>
</svg>
