<svg width="53" height="68" viewBox="0 0 53 68" fill="none" xmlns="http://www.w3.org/2000/svg">
<path d="M50.403 0H13.3574C12.8289 0 12.3222 0.209977 11.9486 0.583711L1.18696 11.3467C0.813492 11.7202 0.603516 12.227 0.603516 12.7552V66.0078C0.603516 67.108 1.49548 68 2.5957 68H50.403C51.5032 68 52.3952 67.108 52.3952 66.0078V1.99219C52.3952 0.891969 51.5034 0 50.403 0ZM11.365 6.80239V10.7615H7.40644L11.365 6.80239ZM48.4108 64.0156H4.58802V14.7458H13.3572C14.4575 14.7458 15.3494 13.8538 15.3494 12.7536V3.98438H48.4108V64.0156Z" fill="#FFF7DB"/>
<path d="M22.5194 40.7573C22.5194 39.6571 21.6274 38.7651 20.5272 38.7651H13.3555C12.2552 38.7651 11.3633 39.6571 11.3633 40.7573C11.3633 41.8575 12.2552 42.7495 13.3555 42.7495H20.5272C21.6274 42.7495 22.5194 41.8575 22.5194 40.7573Z" fill="#FFF7DB"/>
<path d="M39.6542 52.1465H32.4824C31.3822 52.1465 30.4902 53.0385 30.4902 54.1387C30.4902 55.2389 31.3822 56.1309 32.4824 56.1309H39.6542C40.7544 56.1309 41.6464 55.2389 41.6464 54.1387C41.6464 53.0385 40.7544 52.1465 39.6542 52.1465Z" fill="#FFF7DB"/>
<path d="M30.4902 27.3755C30.4902 28.4757 31.3822 29.3677 32.4824 29.3677H39.6542C40.7544 29.3677 41.6464 28.4757 41.6464 27.3755C41.6464 26.2753 40.7544 25.3833 39.6542 25.3833H32.4824C31.3822 25.3833 30.4902 26.2753 30.4902 27.3755Z" fill="#FFF7DB"/>
<path d="M20.5273 21.3987C17.2319 21.3987 14.5508 24.0798 14.5508 27.3753C14.5508 30.6708 17.2319 33.3519 20.5273 33.3519C21.3297 33.3519 22.0951 33.1918 22.7947 32.9039L27.2429 37.8833C26.7729 38.7366 26.5047 39.716 26.5047 40.7571C26.5047 41.7982 26.7729 42.7776 27.2427 43.6309L22.7947 48.6102C22.0951 48.3221 21.3297 48.1622 20.5273 48.1622C17.2319 48.1622 14.5508 50.8433 14.5508 54.1388C14.5508 57.4342 17.2319 60.1153 20.5273 60.1153C23.8228 60.1153 26.5039 57.4342 26.5039 54.1388C26.5039 53.0976 26.2358 52.1183 25.7659 51.265L30.2139 46.2857C30.9135 46.5738 31.6789 46.7337 32.4813 46.7337C35.7767 46.7337 38.4578 44.0526 38.4578 40.7571C38.4578 37.4616 35.7767 34.7805 32.4813 34.7805C31.6789 34.7805 30.9135 34.9406 30.2139 35.2285L25.7657 30.2491C26.2358 29.3958 26.5039 28.4164 26.5039 27.3753C26.5039 26.3342 26.2358 25.3548 25.7659 24.5015L30.2139 19.5222C30.9135 19.8103 31.6789 19.9702 32.4813 19.9702C35.7767 19.9702 38.4578 17.2891 38.4578 13.9937C38.4578 10.6982 35.7767 8.01709 32.4813 8.01709C29.1858 8.01709 26.5047 10.6982 26.5047 13.9937C26.5047 15.0348 26.7729 16.0141 27.2427 16.8674L22.7947 21.8467C22.0951 21.5588 21.3297 21.3987 20.5273 21.3987ZM18.5352 27.3753C18.5352 26.2768 19.4289 25.3831 20.5273 25.3831C21.6258 25.3831 22.5195 26.2768 22.5195 27.3753C22.5195 28.4738 21.6258 29.3675 20.5273 29.3675C19.4289 29.3675 18.5352 28.4739 18.5352 27.3753ZM20.5273 56.1309C19.4289 56.1309 18.5352 55.2372 18.5352 54.1388C18.5352 53.0403 19.4289 52.1466 20.5273 52.1466C21.6258 52.1466 22.5195 53.0403 22.5195 54.1388C22.5195 55.2372 21.626 56.1309 20.5273 56.1309ZM32.4813 38.7649C33.5798 38.7649 34.4735 39.6586 34.4735 40.7571C34.4735 41.8556 33.5798 42.7493 32.4813 42.7493C31.3828 42.7493 30.4891 41.8556 30.4891 40.7571C30.4891 39.6586 31.3828 38.7649 32.4813 38.7649ZM32.4813 12.0015C33.5798 12.0015 34.4735 12.8952 34.4735 13.9937C34.4735 15.0921 33.5798 15.9858 32.4813 15.9858C31.3828 15.9858 30.4891 15.0921 30.4891 13.9937C30.4891 12.8952 31.3828 12.0015 32.4813 12.0015Z" fill="#FFF7DB"/>
</svg>
