<svg width="48" height="48" viewBox="0 0 48 48" fill="none" xmlns="http://www.w3.org/2000/svg">
<g clip-path="url(#clip0_349_1834)">
<path d="M47.0303 6.96975L41.0303 0.96975C40.8896 0.829088 40.6989 0.750042 40.5 0.75H19.5C19.3011 0.75 19.1103 0.829018 18.9697 0.96967C18.829 1.11032 18.75 1.30109 18.75 1.5V5.25C17.2683 4.63265 15.6572 4.39064 14.0596 4.54546C12.4619 4.70028 10.9272 5.24715 9.59167 6.13751C8.25613 7.02787 7.16106 8.23419 6.40367 9.64939C5.64628 11.0646 5.25 12.6449 5.25 14.25C5.25 15.8551 5.64628 17.4354 6.40367 18.8506C7.16106 20.2658 8.25613 21.4721 9.59167 22.3625C10.9272 23.2529 12.4619 23.7997 14.0596 23.9545C15.6572 24.1094 17.2683 23.8674 18.75 23.25V42C18.75 42.1989 18.829 42.3897 18.9697 42.5303C19.1103 42.671 19.3011 42.75 19.5 42.75H28.5V46.5C28.5 46.6989 28.579 46.8897 28.7197 47.0303C28.8603 47.171 29.0511 47.25 29.25 47.25H42.75C42.9489 47.25 43.1397 47.171 43.2803 47.0303C43.421 46.8897 43.5 46.6989 43.5 46.5V42.75H46.5C46.6989 42.75 46.8897 42.671 47.0303 42.5303C47.171 42.3897 47.25 42.1989 47.25 42V7.5C47.25 7.3011 47.1709 7.11037 47.0303 6.96975ZM41.25 3.3105L44.6895 6.75H41.25V3.3105ZM6.75 14.25C6.75 12.6183 7.23385 11.0233 8.14038 9.66655C9.0469 8.30984 10.3354 7.25242 11.8429 6.62799C13.3504 6.00357 15.0092 5.84019 16.6095 6.15852C18.2098 6.47685 19.6798 7.26259 20.8336 8.41637C21.9874 9.57015 22.7731 11.0402 23.0915 12.6405C23.4098 14.2408 23.2464 15.8996 22.622 17.4071C21.9976 18.9146 20.9402 20.2031 19.5835 21.1096C18.2267 22.0161 16.6317 22.5 15 22.5C12.8128 22.4974 10.7158 21.6274 9.16922 20.0808C7.6226 18.5342 6.75258 16.4372 6.75 14.25ZM42 45.75H30V41.25H42V45.75ZM31.3357 37.7812L28.5 34.2367V30.75H30V33H31.5V20.25H33V31.5H34.5V27.75H36V31.5H37.5V27.75H39V31.5H40.5V27.75H42V34.356L40.554 37.971C40.5186 38.0598 40.5003 38.1544 40.5 38.25V39.75H31.5V38.25C31.5001 38.0796 31.4422 37.9143 31.3357 37.7812ZM43.5 41.25V40.5C43.5 40.3011 43.421 40.1103 43.2803 39.9697C43.1397 39.829 42.9489 39.75 42.75 39.75H42V38.394L43.4468 34.779C43.4819 34.6902 43.5 34.5955 43.5 34.5V27C43.5 26.8011 43.421 26.6103 43.2803 26.4697C43.1397 26.329 42.9489 26.25 42.75 26.25H34.5V24.75H42.75V23.25H34.5V21.75H42.75V20.25H34.5V19.5C34.5 19.3011 34.421 19.1103 34.2803 18.9697C34.1397 18.829 33.9489 18.75 33.75 18.75H30.75C30.5511 18.75 30.3603 18.829 30.2197 18.9697C30.079 19.1103 30 19.3011 30 19.5V20.25H24.75V21.75H30V23.25H23.25V24.75H30V26.25H23.25V27.75H30V29.25H27.75C27.5511 29.25 27.3603 29.329 27.2197 29.4697C27.079 29.6103 27 29.8011 27 30V34.5C27.0001 34.6701 27.058 34.8351 27.1643 34.968L30 38.5133V39.75H29.25C29.0511 39.75 28.8603 39.829 28.7197 39.9697C28.579 40.1103 28.5 40.3011 28.5 40.5V41.25H20.25V22.4528C21.6292 21.5741 22.7646 20.3618 23.5512 18.928C24.3378 17.4943 24.7501 15.8853 24.7501 14.25C24.7501 12.6147 24.3378 11.0057 23.5512 9.57196C22.7646 8.13821 21.6292 6.92594 20.25 6.04725V2.25H39.75V7.5C39.75 7.69891 39.829 7.88968 39.9697 8.03033C40.1103 8.17098 40.3011 8.25 40.5 8.25H45.75V41.25H43.5Z" fill="white"/>
<path d="M38.25 5.25H27.75C27.5511 5.25 27.3603 5.32902 27.2197 5.46967C27.079 5.61032 27 5.80109 27 6V16.5C27 16.6989 27.079 16.8897 27.2197 17.0303C27.3603 17.171 27.5511 17.25 27.75 17.25H38.25C38.4489 17.25 38.6397 17.171 38.7803 17.0303C38.921 16.8897 39 16.6989 39 16.5V6C39 5.80109 38.921 5.61032 38.7803 5.46967C38.6397 5.32902 38.4489 5.25 38.25 5.25ZM33 13.5C33.5967 13.5 34.169 13.7371 34.591 14.159C35.0129 14.581 35.25 15.1533 35.25 15.75H30.75C30.75 15.1533 30.9871 14.581 31.409 14.159C31.831 13.7371 32.4033 13.5 33 13.5ZM31.5 10.5C31.5 10.2033 31.588 9.91332 31.7528 9.66665C31.9176 9.41997 32.1519 9.22771 32.426 9.11418C32.7001 9.00065 33.0017 8.97094 33.2926 9.02882C33.5836 9.0867 33.8509 9.22956 34.0607 9.43934C34.2704 9.64912 34.4133 9.91639 34.4712 10.2074C34.5291 10.4983 34.4994 10.7999 34.3858 11.074C34.2723 11.3481 34.08 11.5824 33.8334 11.7472C33.5867 11.912 33.2967 12 33 12C32.6022 12 32.2206 11.842 31.9393 11.5607C31.658 11.2794 31.5 10.8978 31.5 10.5ZM37.5 15.75H36.75C36.7497 15.1359 36.5987 14.5313 36.31 13.9892C36.0214 13.4472 35.6041 12.9843 35.0947 12.6412C35.5218 12.2247 35.8149 11.6904 35.9368 11.1064C36.0586 10.5225 36.0036 9.91544 35.7787 9.36291C35.5539 8.81038 35.1694 8.33743 34.6745 8.00448C34.1795 7.67153 33.5965 7.49369 33 7.49369C32.4035 7.49369 31.8205 7.67153 31.3255 8.00448C30.8306 8.33743 30.4461 8.81038 30.2213 9.36291C29.9964 9.91544 29.9414 10.5225 30.0632 11.1064C30.1851 11.6904 30.4782 12.2247 30.9053 12.6412C30.3959 12.9843 29.9786 13.4472 29.69 13.9892C29.4013 14.5313 29.2503 15.1359 29.25 15.75H28.5V6.75H37.5V15.75Z" fill="white"/>
<path d="M21.5301 10.7196L20.0301 9.21959C19.8894 9.07899 19.6987 9 19.4998 9C19.301 9 19.1102 9.07899 18.9696 9.21959L12.7498 15.4393L11.0301 13.7196C10.8894 13.579 10.6987 13.5 10.4998 13.5C10.301 13.5 10.1102 13.579 9.96959 13.7196L8.46959 15.2196C8.32899 15.3602 8.25 15.551 8.25 15.7498C8.25 15.9487 8.32899 16.1394 8.46959 16.2801L12.2196 20.0301C12.3602 20.1707 12.551 20.2497 12.7498 20.2497C12.9487 20.2497 13.1394 20.1707 13.2801 20.0301L21.5301 11.7801C21.6707 11.6394 21.7497 11.4487 21.7497 11.2498C21.7497 11.051 21.6707 10.8602 21.5301 10.7196ZM12.7498 18.4393L10.0603 15.7498L10.4998 15.3103L12.2196 17.0301C12.3602 17.1707 12.551 17.2497 12.7498 17.2497C12.9487 17.2497 13.1394 17.1707 13.2801 17.0301L19.4998 10.8103L19.9393 11.2498L12.7498 18.4393Z" fill="white"/>
<path d="M1.5 32.2498H8.25V33.7498C8.25003 33.8982 8.29404 34.0431 8.37645 34.1664C8.45886 34.2897 8.57598 34.3858 8.71301 34.4426C8.85003 34.4994 9.00081 34.5142 9.14627 34.4853C9.29174 34.4564 9.42536 34.3849 9.53025 34.2801L14.0303 29.7801C14.1709 29.6394 14.2498 29.4487 14.2498 29.2498C14.2498 29.051 14.1709 28.8602 14.0303 28.7196L9.53025 24.2196C9.42536 24.1147 9.29174 24.0433 9.14627 24.0144C9.00081 23.9855 8.85003 24.0003 8.71301 24.0571C8.57598 24.1138 8.45886 24.2099 8.37645 24.3332C8.29404 24.4566 8.25003 24.6015 8.25 24.7498V26.2498H1.5C1.30109 26.2498 1.11032 26.3289 0.96967 26.4695C0.829018 26.6102 0.75 26.8009 0.75 26.9998V31.4998C0.75 31.6988 0.829018 31.8895 0.96967 32.0302C1.11032 32.1708 1.30109 32.2498 1.5 32.2498ZM2.25 27.7498H9C9.19891 27.7498 9.38968 27.6708 9.53033 27.5302C9.67098 27.3895 9.75 27.1988 9.75 26.9998V26.5603L12.4395 29.2498L9.75 31.9393V31.4998C9.75 31.3009 9.67098 31.1102 9.53033 30.9695C9.38968 30.8289 9.19891 30.7498 9 30.7498H2.25V27.7498Z" fill="white"/>
<path d="M12.5303 35.4696C12.4254 35.3647 12.2917 35.2933 12.1463 35.2644C12.0008 35.2355 11.85 35.2503 11.713 35.3071C11.576 35.3638 11.4589 35.4599 11.3764 35.5832C11.294 35.7066 11.25 35.8515 11.25 35.9998V37.4998H1.5C1.30109 37.4998 1.11032 37.5789 0.96967 37.7195C0.829018 37.8602 0.75 38.0509 0.75 38.2498V42.7498C0.75 42.9488 0.829018 43.1395 0.96967 43.2802C1.11032 43.4208 1.30109 43.4998 1.5 43.4998H11.25V44.9998C11.25 45.1482 11.294 45.2931 11.3764 45.4164C11.4589 45.5397 11.576 45.6358 11.713 45.6926C11.85 45.7494 12.0008 45.7642 12.1463 45.7353C12.2917 45.7064 12.4254 45.6349 12.5303 45.5301L17.0303 41.0301C17.1709 40.8894 17.2498 40.6987 17.2498 40.4998C17.2498 40.301 17.1709 40.1102 17.0303 39.9696L12.5303 35.4696ZM12.75 43.1893V42.7498C12.75 42.5509 12.671 42.3602 12.5303 42.2195C12.3897 42.0789 12.1989 41.9998 12 41.9998H2.25V38.9998H12C12.1989 38.9998 12.3897 38.9208 12.5303 38.7802C12.671 38.6395 12.75 38.4488 12.75 38.2498V37.8103L15.4395 40.4998L12.75 43.1893Z" fill="white"/>
</g>
<defs>
<clipPath id="clip0_349_1834">
<rect width="48" height="48" fill="white"/>
</clipPath>
</defs>
</svg>
