<svg width="338" height="147" viewBox="0 0 338 147" fill="none" xmlns="http://www.w3.org/2000/svg">
<path d="M14.5332 141.92L13.4149 143.578L13.4238 143.584L14.5332 141.92ZM4.23926 127.979L2.35727 128.655L4.23926 127.979ZM57.0059 11.0977L55.3784 12.2601L55.3828 12.2663L55.3873 12.2724L57.0059 11.0977ZM62.2744 23.418L60.322 23.8518L60.3249 23.8646L60.3279 23.8773L62.2744 23.418ZM60.7344 127.979L58.8472 127.316L58.8446 127.324L58.842 127.331L60.7344 127.979ZM41.4434 118.009L39.4641 117.721L39.4621 117.735L39.4603 117.749L41.4434 118.009ZM40.3896 24.5527L38.4923 25.1852L38.4984 25.2034L38.5048 25.2216L40.3896 24.5527ZM24.9082 24.3906L26.7433 25.1859L26.7481 25.1748L24.9082 24.3906ZM23.4492 118.171L21.4657 118.427L21.468 118.445L21.4706 118.463L23.4492 118.171ZM26.2861 125.466L24.797 126.801L24.8095 126.815L24.8223 126.829L26.2861 125.466ZM32.6895 144.621C25.5605 144.621 19.9274 143.112 15.6426 140.256L13.4238 143.584C18.5414 146.996 25.0124 148.621 32.6895 148.621V144.621ZM15.6515 140.262C11.4133 137.404 8.21788 133.131 6.12124 127.302L2.35727 128.655C4.69163 135.146 8.35879 140.168 13.4149 143.578L15.6515 140.262ZM6.12124 127.302C4.00761 121.425 2.91602 114.051 2.91602 105.121H-1.08398C-1.08398 114.347 0.0399151 122.212 2.35727 128.655L6.12124 127.302ZM2.91602 105.121V39.8721H-1.08398V105.121H2.91602ZM2.91602 39.8721C2.91602 31.8241 3.97623 25.0477 6.0337 19.4925L2.28271 18.1032C0.0172615 24.2199 -1.08398 31.493 -1.08398 39.8721H2.91602ZM6.0337 19.4925C8.06416 14.0102 11.2474 9.883 15.5615 7.00687L13.3427 3.67867C8.25459 7.07078 4.57516 11.9136 2.28271 18.1032L6.0337 19.4925ZM15.5615 7.00687C19.8378 4.15601 25.574 2.6416 32.9326 2.6416V-1.3584C25.053 -1.3584 18.4688 0.261311 13.3427 3.67867L15.5615 7.00687ZM32.9326 2.6416C38.4638 2.6416 43.0011 3.504 46.6176 5.13884L48.2652 1.49397C43.9924 -0.437595 38.8572 -1.3584 32.9326 -1.3584V2.6416ZM46.6176 5.13884C50.2525 6.78204 53.1591 9.15308 55.3784 12.2601L58.6333 9.93518C55.9894 6.23364 52.5196 3.41718 48.2652 1.49397L46.6176 5.13884ZM55.3873 12.2724C57.6289 15.3609 59.2889 19.2025 60.322 23.8518L64.2268 22.9841C63.0985 17.9069 61.2461 13.5349 58.6245 9.92287L55.3873 12.2724ZM60.3279 23.8773C61.4197 28.5044 61.9766 33.8304 61.9766 39.8721H65.9766C65.9766 33.5934 65.3987 27.95 64.221 22.9587L60.3279 23.8773ZM61.9766 39.8721V105.121H65.9766V39.8721H61.9766ZM61.9766 105.121C61.9766 114.055 60.9111 121.434 58.8472 127.316L62.6216 128.641C64.8806 122.203 65.9766 114.343 65.9766 105.121H61.9766ZM58.842 127.331C56.8497 133.155 53.7342 137.417 49.5563 140.268L51.8109 143.572C56.8192 140.155 60.4042 135.122 62.6267 128.626L58.842 127.331ZM49.5563 140.268C45.3893 143.111 39.8213 144.621 32.6895 144.621V148.621C40.3636 148.621 46.7917 146.997 51.8109 143.572L49.5563 140.268ZM32.6895 129.816C35.8051 129.816 38.4724 128.864 40.305 126.665L37.2321 124.104C36.3629 125.147 34.9774 125.816 32.6895 125.816V129.816ZM40.305 126.665C42.0004 124.631 42.9708 121.743 43.4264 118.269L39.4603 117.749C39.0514 120.867 38.2385 122.897 37.2321 124.104L40.305 126.665ZM43.4226 118.296C43.9277 114.816 44.1729 110.497 44.1729 105.364H40.1729C40.1729 110.39 39.9316 114.501 39.4641 117.721L43.4226 118.296ZM44.1729 105.364V38.8994H40.1729V105.364H44.1729ZM44.1729 38.8994C44.1729 32.6012 43.5761 27.5521 42.2745 23.8839L38.5048 25.2216C39.5808 28.2539 40.1729 32.7692 40.1729 38.8994H44.1729ZM42.287 23.9203C41.6089 21.8859 40.4722 20.2148 38.8043 19.0727C37.1481 17.9386 35.1441 17.4463 32.9326 17.4463V21.4463C34.5577 21.4463 35.7148 21.8051 36.5443 22.3731C37.3621 22.9331 38.0356 23.8152 38.4923 25.1852L42.287 23.9203ZM32.9326 17.4463C30.6838 17.4463 28.6431 17.9172 26.9189 18.9796C25.1812 20.0503 23.9094 21.6332 23.0684 23.6064L26.7481 25.1748C27.3119 23.8518 28.0801 22.9625 29.0172 22.3851C29.9677 21.7994 31.2368 21.4463 32.9326 21.4463V17.4463ZM23.0731 23.5954C21.5043 27.2157 20.8008 32.3534 20.8008 38.8184H24.8008C24.8008 32.5307 25.5022 28.0499 26.7433 25.1858L23.0731 23.5954ZM20.8008 38.8184V105.364H24.8008V38.8184H20.8008ZM20.8008 105.364C20.8008 110.597 21.0183 114.96 21.4657 118.427L25.4328 117.915C25.0156 114.682 24.8008 110.506 24.8008 105.364H20.8008ZM21.4706 118.463C21.9836 121.94 23.0183 124.817 24.797 126.801L27.7753 124.131C26.744 122.98 25.8875 120.995 25.4278 117.879L21.4706 118.463ZM24.8223 126.829C26.7681 128.919 29.5066 129.816 32.6895 129.816V125.816C30.2525 125.816 28.7221 125.147 27.7499 124.103L24.8223 126.829ZM100.354 145H98.3539V147H100.354V145ZM100.354 2.34375V0.34375H98.3539V2.34375H100.354ZM127.345 2.34375L129.308 1.96209L128.994 0.34375H127.345V2.34375ZM147.609 106.58L145.646 106.962L149.576 106.94L147.609 106.58ZM166.657 2.34375V0.34375H164.989L164.689 1.98423L166.657 2.34375ZM193.81 2.34375H195.81V0.34375H193.81V2.34375ZM193.81 145V147H195.81V145H193.81ZM174.438 145H172.438V147H174.438V145ZM174.438 91.8281L172.438 91.7949L172.438 91.8115V91.8281H174.438ZM175.248 43.0332L177.248 43.0664L173.283 42.6606L175.248 43.0332ZM156.038 144.352V146.352H157.695L158.003 144.724L156.038 144.352ZM138.774 144.352L136.812 144.739L137.13 146.352H138.774V144.352ZM118.753 43.0332L120.715 42.6455L116.754 43.0664L118.753 43.0332ZM119.564 91.8281H121.564V91.8115L121.564 91.7949L119.564 91.8281ZM119.564 145V147H121.564V145H119.564ZM102.354 145V2.34375H98.3539V145H102.354ZM100.354 4.34375H127.345V0.34375H100.354V4.34375ZM125.382 2.72541L145.646 106.962L149.572 106.198L129.308 1.96209L125.382 2.72541ZM149.576 106.94L168.624 2.70327L164.689 1.98423L145.641 106.221L149.576 106.94ZM166.657 4.34375H193.81V0.34375H166.657V4.34375ZM191.81 2.34375V145H195.81V2.34375H191.81ZM193.81 143H174.438V147H193.81V143ZM176.438 145V91.8281H172.438V145H176.438ZM176.438 91.8613L177.248 43.0664L173.249 43L172.438 91.7949L176.438 91.8613ZM173.283 42.6606L154.073 143.979L158.003 144.724L177.213 43.4058L173.283 42.6606ZM156.038 142.352H138.774V146.352H156.038V142.352ZM140.736 143.964L120.715 42.6455L116.791 43.4209L136.812 144.739L140.736 143.964ZM116.754 43.0664L117.564 91.8613L121.564 91.7949L120.753 43L116.754 43.0664ZM117.564 91.8281V145H121.564V91.8281H117.564ZM119.564 143H100.354V147H119.564V143ZM232.376 145H230.376V147H232.376V145ZM232.376 2.34375V0.34375H230.376V2.34375H232.376ZM254.098 2.34375H256.098V0.34375H254.098V2.34375ZM254.098 145V147H256.098V145H254.098ZM234.376 145V2.34375H230.376V145H234.376ZM232.376 4.34375H254.098V0.34375H232.376V4.34375ZM252.098 2.34375V145H256.098V2.34375H252.098ZM254.098 143H232.376V147H254.098V143ZM300.04 145H298.04V147H300.04V145ZM300.04 21.1484H302.04V19.1484H300.04V21.1484ZM283.343 21.1484H281.343V23.1484H283.343V21.1484ZM283.343 2.34375V0.34375H281.343V2.34375H283.343ZM337.731 2.34375H339.731V0.34375H337.731V2.34375ZM337.731 21.1484V23.1484H339.731V21.1484H337.731ZM321.682 21.1484V19.1484H319.682V21.1484H321.682ZM321.682 145V147H323.682V145H321.682ZM302.04 145V21.1484H298.04V145H302.04ZM300.04 19.1484H283.343V23.1484H300.04V19.1484ZM285.343 21.1484V2.34375H281.343V21.1484H285.343ZM283.343 4.34375H337.731V0.34375H283.343V4.34375ZM335.731 2.34375V21.1484H339.731V2.34375H335.731ZM337.731 19.1484H321.682V23.1484H337.731V19.1484ZM319.682 21.1484V145H323.682V21.1484H319.682ZM321.682 143H300.04V147H321.682V143Z" fill="#F4BD03"/>
</svg>
