<svg width="38" height="38" viewBox="0 0 38 38" fill="none" xmlns="http://www.w3.org/2000/svg">
<path d="M19 0C15.2422 0 11.5687 1.11433 8.44417 3.20208C5.31964 5.28982 2.88436 8.25722 1.4463 11.729C0.00823236 15.2008 -0.368031 19.0211 0.365088 22.7067C1.09821 26.3924 2.90778 29.7778 5.56498 32.435C8.22218 35.0922 11.6077 36.9018 15.2933 37.6349C18.9789 38.368 22.7992 37.9918 26.271 36.5537C29.7428 35.1156 32.7102 32.6804 34.7979 29.5558C36.8857 26.4313 38 22.7578 38 19C37.9944 13.9626 35.9909 9.1331 32.4289 5.57111C28.8669 2.00912 24.0374 0.00555845 19 0V0ZM9.00001 32.717V31C9.0016 29.6744 9.52889 28.4036 10.4662 27.4662C11.4036 26.5289 12.6744 26.0016 14 26H15C15 27.0609 15.4214 28.0783 16.1716 28.8284C16.9217 29.5786 17.9391 30 19 30C20.0609 30 21.0783 29.5786 21.8284 28.8284C22.5786 28.0783 23 27.0609 23 26H24C25.3256 26.0016 26.5964 26.5289 27.5338 27.4662C28.4711 28.4036 28.9984 29.6744 29 31V32.717C26.1021 34.8497 22.5982 36.0001 19 36.0001C15.4019 36.0001 11.898 34.8497 9.00001 32.717V32.717ZM13.9 10.048C14.0192 10.6873 14.2588 11.2981 14.606 11.848C14.0946 12.2621 13.6882 12.7911 13.42 13.392L13.352 13.258C13.1613 12.9276 13.0452 12.5594 13.0119 12.1794C12.9785 11.7993 13.0287 11.4166 13.159 11.058C13.3266 10.6697 13.5799 10.3244 13.9 10.048V10.048ZM15.866 8H21.255C21.8595 8.00026 22.4544 8.15105 22.986 8.43877C23.5176 8.72649 23.9692 9.14207 24.3 9.648C24.6728 10.1943 24.9056 10.8238 24.9779 11.4812C25.0503 12.1386 24.96 12.8037 24.715 13.418L24.655 13.57C24.3761 12.823 23.8777 12.1777 23.2254 11.7191C22.5731 11.2604 21.7974 11.0097 21 11H17C16.8325 11.0035 16.6655 11.0182 16.5 11.044C16.19 10.6078 15.9736 10.1122 15.8645 9.58834C15.7554 9.06446 15.7559 8.52367 15.866 8V8ZM14.025 16C14.2774 16.0007 14.5208 15.906 14.7062 15.7348C14.8917 15.5636 15.0056 15.3287 15.025 15.077C15.0368 14.5471 15.2457 14.0407 15.6109 13.6566C15.9761 13.2726 16.4714 13.0384 17 13H21C21.5291 13.0377 22.0252 13.2715 22.391 13.6557C22.7568 14.0398 22.9662 14.5467 22.978 15.077C22.9974 15.3287 23.1113 15.5636 23.2968 15.7348C23.4823 15.906 23.7256 16.0007 23.978 16H24C24.1313 16.0014 24.2611 16.0286 24.3819 16.0801C24.5027 16.1317 24.6122 16.2065 24.704 16.3003C24.7959 16.3942 24.8684 16.5052 24.9174 16.627C24.9664 16.7489 24.9909 16.8792 24.9895 17.0105C24.9881 17.1418 24.9609 17.2716 24.9094 17.3924C24.8578 17.5132 24.783 17.6226 24.6892 17.7145C24.5954 17.8064 24.4843 17.8789 24.3625 17.9279C24.2406 17.9769 24.1103 18.0014 23.979 18C23.7264 17.9993 23.483 18.0941 23.2975 18.2655C23.112 18.4369 22.9982 18.6722 22.979 18.924C22.9447 19.9776 22.5173 20.9803 21.7809 21.7346C21.0446 22.4889 20.0525 22.9404 19 23C17.947 22.9411 16.9542 22.49 16.2172 21.7356C15.4802 20.9812 15.0523 19.9781 15.018 18.924C14.9943 18.6707 14.8767 18.4354 14.6883 18.2645C14.4999 18.0935 14.2544 17.9991 14 18C13.8687 17.9984 13.739 17.9709 13.6183 17.9191C13.4976 17.8673 13.3883 17.7923 13.2966 17.6983C13.1114 17.5084 13.0092 17.2527 13.0125 16.9875C13.0158 16.7223 13.1244 16.4692 13.3142 16.2841C13.5041 16.0989 13.7598 15.9967 14.025 16V16ZM17 24.622C18.2857 25.126 19.7143 25.126 21 24.622V26C21 26.5304 20.7893 27.0391 20.4142 27.4142C20.0391 27.7893 19.5304 28 19 28C18.4696 28 17.9609 27.7893 17.5858 27.4142C17.2107 27.0391 17 26.5304 17 26V24.622ZM31 31.029V31C30.9979 29.1441 30.2597 27.3649 28.9474 26.0526C27.6351 24.7403 25.8559 24.0021 24 24H23V23.313C23.9586 22.383 24.6104 21.1825 24.868 19.872C25.3511 19.728 25.7899 19.464 26.1435 19.1045C26.497 18.7451 26.7537 18.302 26.8897 17.8166C27.0257 17.3311 27.0365 16.8191 26.9212 16.3284C26.8058 15.8376 26.568 15.384 26.23 15.01L26.569 14.161C26.9352 13.2432 27.0706 12.2497 26.9633 11.2674C26.8561 10.2851 26.5095 9.34415 25.954 8.527C25.442 7.74892 24.7444 7.11052 23.924 6.66937C23.1037 6.22821 22.1864 5.99818 21.255 6H15.081C14.8752 5.99996 14.6744 6.06341 14.506 6.18171C14.3376 6.30001 14.2098 6.46738 14.14 6.661C14.0324 6.98191 13.9508 7.31098 13.896 7.645C12.7317 8.18827 11.8077 9.1407 11.3 10.321C11.0642 10.9405 10.9654 11.6038 11.0104 12.2651C11.0555 12.9265 11.2433 13.5702 11.561 14.152L11.91 14.852C11.5345 15.2147 11.2603 15.6693 11.1148 16.1707C10.9693 16.6721 10.9575 17.2028 11.0805 17.7102C11.2035 18.2176 11.4571 18.6839 11.8161 19.063C12.1752 19.442 12.6271 19.7206 13.127 19.871C13.3863 21.1823 14.0397 22.3832 15 23.313V24H14C12.1441 24.0021 10.3649 24.7403 9.0526 26.0526C7.7403 27.3649 7.00213 29.1441 7.00001 31V31.029C4.61663 28.6539 2.9917 25.6249 2.33098 22.3256C1.67026 19.0263 2.00348 15.6051 3.28843 12.4954C4.57339 9.38561 6.75229 6.72709 9.5492 4.85651C12.3461 2.98592 15.6352 1.98741 19 1.98741C22.3648 1.98741 25.6539 2.98592 28.4508 4.85651C31.2477 6.72709 33.4266 9.38561 34.7116 12.4954C35.9965 15.6051 36.3298 19.0263 35.669 22.3256C35.0083 25.6249 33.3834 28.6539 31 31.029Z" fill="white"/>
</svg>
