<svg width="48" height="48" viewBox="0 0 48 48" fill="none" xmlns="http://www.w3.org/2000/svg">
<g clip-path="url(#clip0_349_1522)">
<path d="M38 18H10C9.73478 18 9.48043 17.8946 9.29289 17.7071C9.10536 17.5196 9 17.2652 9 17V1C9 0.734784 9.10536 0.48043 9.29289 0.292893C9.48043 0.105357 9.73478 0 10 0L38 0C38.2652 0 38.5196 0.105357 38.7071 0.292893C38.8946 0.48043 39 0.734784 39 1V17C39 17.2652 38.8946 17.5196 38.7071 17.7071C38.5196 17.8946 38.2652 18 38 18ZM11 16H37V2H11V16Z" fill="white"/>
<path d="M33 15H15C14.7348 15 14.4804 14.8946 14.2929 14.7071C14.1054 14.5196 14 14.2652 14 14C14 13.7348 13.8946 13.4804 13.7071 13.2929C13.5196 13.1054 13.2652 13 13 13C12.7348 13 12.4804 12.8946 12.2929 12.7071C12.1054 12.5196 12 12.2652 12 12V6C12 5.73478 12.1054 5.48043 12.2929 5.29289C12.4804 5.10536 12.7348 5 13 5C13.2652 5 13.5196 4.89464 13.7071 4.70711C13.8946 4.51957 14 4.26522 14 4C14 3.73478 14.1054 3.48043 14.2929 3.29289C14.4804 3.10536 14.7348 3 15 3H33C33.2652 3 33.5196 3.10536 33.7071 3.29289C33.8946 3.48043 34 3.73478 34 4C34 4.26522 34.1054 4.51957 34.2929 4.70711C34.4804 4.89464 34.7348 5 35 5C35.2652 5 35.5196 5.10536 35.7071 5.29289C35.8946 5.48043 36 5.73478 36 6V12C36 12.2652 35.8946 12.5196 35.7071 12.7071C35.5196 12.8946 35.2652 13 35 13C34.7348 13 34.4804 13.1054 34.2929 13.2929C34.1054 13.4804 34 13.7348 34 14C34 14.2652 33.8946 14.5196 33.7071 14.7071C33.5196 14.8946 33.2652 15 33 15ZM15.83 13H32.17C32.3191 12.5777 32.5609 12.1942 32.8775 11.8775C33.1942 11.5609 33.5777 11.3191 34 11.17V6.83C33.5777 6.6809 33.1942 6.43915 32.8775 6.12248C32.5609 5.80582 32.3191 5.42228 32.17 5H15.83C15.6809 5.42228 15.4391 5.80582 15.1225 6.12248C14.8058 6.43915 14.4223 6.6809 14 6.83V11.17C14.4223 11.3191 14.8058 11.5609 15.1225 11.8775C15.4391 12.1942 15.6809 12.5777 15.83 13Z" fill="white"/>
<path d="M24 12C23.4067 12 22.8266 11.8241 22.3333 11.4944C21.8399 11.1648 21.4554 10.6962 21.2284 10.1481C21.0013 9.59987 20.9419 8.99667 21.0576 8.41473C21.1734 7.83279 21.4591 7.29824 21.8787 6.87868C22.2982 6.45912 22.8328 6.1734 23.4147 6.05765C23.9967 5.94189 24.5999 6.0013 25.1481 6.22836C25.6962 6.45543 26.1648 6.83994 26.4944 7.33329C26.8241 7.82664 27 8.40666 27 9C27 9.79565 26.6839 10.5587 26.1213 11.1213C25.5587 11.6839 24.7957 12 24 12ZM24 8C23.8022 8 23.6089 8.05865 23.4444 8.16853C23.28 8.27841 23.1518 8.43459 23.0761 8.61732C23.0004 8.80004 22.9806 9.00111 23.0192 9.19509C23.0578 9.38907 23.153 9.56726 23.2929 9.70711C23.4327 9.84696 23.6109 9.9422 23.8049 9.98079C23.9989 10.0194 24.2 9.99957 24.3827 9.92388C24.5654 9.84819 24.7216 9.72002 24.8315 9.55557C24.9414 9.39112 25 9.19778 25 9C25 8.73479 24.8946 8.48043 24.7071 8.29289C24.5196 8.10536 24.2652 8 24 8Z" fill="white"/>
<path d="M23 17H25V37H23V17Z" fill="white"/>
<path d="M29.9993 48.0001H17.9993C17.7654 48.0048 17.5372 47.9273 17.3545 47.7812C17.1718 47.635 17.0461 47.4294 16.9993 47.2001L14.9993 37.2001C14.9707 37.0548 14.9747 36.905 15.011 36.7615C15.0473 36.6179 15.1151 36.4843 15.2093 36.3701C15.3045 36.2527 15.425 36.1585 15.5619 36.0944C15.6987 36.0303 15.8483 35.9981 15.9993 36.0001H31.9993C32.147 36.0011 32.2927 36.0348 32.4258 36.0987C32.559 36.1627 32.6763 36.2554 32.7693 36.3701C32.8636 36.4843 32.9313 36.6179 32.9677 36.7615C33.004 36.905 33.008 37.0548 32.9793 37.2001L30.9793 47.2001C30.9332 47.426 30.8105 47.629 30.6319 47.7748C30.4533 47.9205 30.2299 48.0001 29.9993 48.0001ZM18.8193 46.0001H29.1793L30.7793 38.0001H17.2193L18.8193 46.0001Z" fill="white"/>
<path d="M8 46H40V48H8V46Z" fill="white"/>
<path d="M17 40H31V42H17V40Z" fill="white"/>
<path d="M24 34H19C18.2044 34 17.4413 33.6839 16.8787 33.1213C16.3161 32.5587 16 31.7956 16 31V29C16 28.7348 15.8946 28.4804 15.7071 28.2929C15.5196 28.1054 15.2652 28 15 28H14V26H15C15.7956 26 16.5587 26.3161 17.1213 26.8787C17.6839 27.4413 18 28.2044 18 29V31C18 31.2652 18.1054 31.5196 18.2929 31.7071C18.4804 31.8946 18.7348 32 19 32H24V34Z" fill="white"/>
<path d="M27 31H24V29H27C27.2652 29 27.5196 28.8946 27.7071 28.7071C27.8946 28.5196 28 28.2652 28 28V27C28 26.2044 28.3161 25.4413 28.8787 24.8787C29.4413 24.3161 30.2044 24 31 24H34V26H31C30.7348 26 30.4804 26.1054 30.2929 26.2929C30.1054 26.4804 30 26.7348 30 27V28C30 28.7957 29.6839 29.5587 29.1213 30.1213C28.5587 30.6839 27.7956 31 27 31Z" fill="white"/>
<path d="M38 30C37.0111 30 36.0444 29.7068 35.2222 29.1574C34.3999 28.6079 33.759 27.8271 33.3806 26.9134C33.0022 25.9998 32.9031 24.9945 33.0961 24.0246C33.289 23.0546 33.7652 22.1637 34.4645 21.4645C35.1637 20.7652 36.0546 20.289 37.0245 20.0961C37.9945 19.9031 38.9998 20.0022 39.9134 20.3806C40.8271 20.759 41.6079 21.3999 42.1574 22.2222C42.7068 23.0444 43 24.0111 43 25C43 26.3261 42.4732 27.5979 41.5355 28.5355C40.5979 29.4732 39.3261 30 38 30ZM38 22C37.4067 22 36.8266 22.1759 36.3333 22.5056C35.8399 22.8352 35.4554 23.3038 35.2284 23.852C35.0013 24.4001 34.9419 25.0033 35.0576 25.5853C35.1734 26.1672 35.4591 26.7018 35.8787 27.1213C36.2982 27.5409 36.8328 27.8266 37.4147 27.9424C37.9967 28.0581 38.5999 27.9987 39.1481 27.7716C39.6962 27.5446 40.1648 27.1601 40.4944 26.6667C40.8241 26.1734 41 25.5933 41 25C41 24.2044 40.6839 23.4413 40.1213 22.8787C39.5587 22.3161 38.7957 22 38 22Z" fill="white"/>
<path d="M10 32C9.0111 32 8.0444 31.7068 7.22215 31.1574C6.39991 30.6079 5.75904 29.8271 5.3806 28.9134C5.00217 27.9998 4.90315 26.9945 5.09608 26.0246C5.289 25.0546 5.76521 24.1637 6.46447 23.4645C7.16373 22.7652 8.05465 22.289 9.02455 22.0961C9.99446 21.9031 10.9998 22.0022 11.9134 22.3806C12.827 22.759 13.6079 23.3999 14.1573 24.2222C14.7068 25.0444 15 26.0111 15 27C15 28.3261 14.4732 29.5979 13.5355 30.5355C12.5979 31.4732 11.3261 32 10 32ZM10 24C9.40666 24 8.82664 24.1759 8.33329 24.5056C7.83994 24.8352 7.45543 25.3038 7.22836 25.852C7.0013 26.4001 6.94189 27.0033 7.05765 27.5853C7.1734 28.1672 7.45912 28.7018 7.87868 29.1213C8.29824 29.5409 8.83279 29.8266 9.41473 29.9424C9.99667 30.0581 10.5999 29.9987 11.1481 29.7716C11.6962 29.5446 12.1648 29.1601 12.4944 28.6667C12.8241 28.1734 13 27.5933 13 27C13 26.2044 12.6839 25.4413 12.1213 24.8787C11.5587 24.3161 10.7957 24 10 24Z" fill="white"/>
</g>
<defs>
<clipPath id="clip0_349_1522">
<rect width="48" height="48" fill="white"/>
</clipPath>
</defs>
</svg>
