<svg width="32" height="32" viewBox="0 0 32 32" fill="none" xmlns="http://www.w3.org/2000/svg">
<path d="M27.9129 6.52475L21.6632 0.274625C21.4874 0.0988125 21.2489 0 21.0002 0H6.625C5.07419 0 3.8125 1.26169 3.8125 2.8125V29.1875C3.8125 30.7383 5.07419 32 6.625 32H25.375C26.9258 32 28.1875 30.7383 28.1875 29.1875V7.18769C28.1875 6.93906 28.0887 6.70056 27.9129 6.52475ZM21.9375 3.20081L24.9866 6.25H21.9375V3.20081ZM25.375 30.125H6.625C6.10806 30.125 5.6875 29.7044 5.6875 29.1875V2.8125C5.6875 2.29556 6.10806 1.875 6.625 1.875H20.0625V7.1875C20.0625 7.70525 20.4823 8.125 21 8.125H26.3125V29.1875C26.3125 29.7044 25.8919 30.125 25.375 30.125Z" fill="#F4BD03"/>
<path d="M21.8241 19.9921H19.5699L17.0828 15.6843L18.2099 13.7322C18.6711 12.9334 18.6711 11.9796 18.2099 11.1808C17.7487 10.382 16.9227 9.90503 16.0003 9.90503C15.0778 9.90503 14.2518 10.3819 13.7906 11.1808C13.3294 11.9796 13.3294 12.9334 13.7906 13.7322L14.9177 15.6843L12.4306 19.9921H10.1766C9.2542 19.9921 8.4282 20.469 7.96701 21.2678C7.50576 22.0666 7.50582 23.0204 7.96701 23.8192C8.42813 24.618 9.25413 25.0948 10.1765 25.0949H10.1766C11.0989 25.0949 11.925 24.618 12.3862 23.8192L13.5133 21.8671H18.4874L19.6144 23.8192C20.0757 24.618 20.9017 25.0949 21.8241 25.0949C22.7464 25.0949 23.5724 24.618 24.0336 23.8192C24.4948 23.0204 24.4948 22.0666 24.0336 21.2678C23.5724 20.469 22.7464 19.9921 21.8241 19.9921ZM10.7624 22.8817C10.5861 23.1869 10.294 23.2199 10.1766 23.2199C10.0591 23.2199 9.76701 23.187 9.59082 22.8817C9.41457 22.5765 9.53213 22.307 9.59082 22.2053C9.64951 22.1036 9.82407 21.8671 10.1766 21.8671H11.3482L10.7624 22.8817ZM15.4145 12.1183C15.4732 12.0166 15.6478 11.78 16.0003 11.78C16.3528 11.78 16.5274 12.0165 16.5861 12.1183C16.6448 12.22 16.7624 12.4894 16.5861 12.7947L16.0003 13.8093L15.4145 12.7947C15.2383 12.4894 15.3558 12.22 15.4145 12.1183ZM14.5958 19.9921L16.0003 17.5593L17.4049 19.9921H14.5958ZM22.4098 22.8817C22.2336 23.1869 21.9415 23.2199 21.8241 23.2199C21.7066 23.2199 21.4145 23.187 21.2383 22.8817L20.6524 21.8671H21.8241C22.1766 21.8671 22.3511 22.1036 22.4098 22.2053C22.4685 22.307 22.5861 22.5765 22.4098 22.8817Z" fill="#F4BD03"/>
</svg>
