<svg width="32" height="32" viewBox="0 0 32 32" fill="none" xmlns="http://www.w3.org/2000/svg">
<path d="M17.638 1.22949C17.41 1.04149 17.108 0.963494 16.816 1.01749L0.816 4.01749C0.342 4.10549 0 4.51749 0 4.99949V26.9995C0 27.4795 0.342 27.8935 0.816 27.9815L16.816 30.9815C16.876 30.9935 16.94 30.9995 17 30.9995C17.23 30.9995 17.458 30.9195 17.638 30.7695C17.868 30.5795 18 30.2955 18 29.9995V1.99949C18 1.70149 17.868 1.41949 17.638 1.22949ZM16 28.7935L2 26.1695V5.82949L16 3.20549V28.7935Z" fill="#F4BD03"/>
<path d="M31 4.99927H17C16.448 4.99927 16 5.44727 16 5.99927C16 6.55127 16.448 6.99927 17 6.99927H30V24.9993H17C16.448 24.9993 16 25.4473 16 25.9993C16 26.5513 16.448 26.9993 17 26.9993H31C31.552 26.9993 32 26.5513 32 25.9993V5.99927C32 5.44727 31.552 4.99927 31 4.99927Z" fill="#F4BD03"/>
<path d="M27 20.9993H17C16.448 20.9993 16 21.4473 16 21.9993C16 22.5513 16.448 22.9993 17 22.9993H27C27.552 22.9993 28 22.5513 28 21.9993C28 21.4473 27.552 20.9993 27 20.9993Z" fill="#F4BD03"/>
<path d="M7 10.9993C6.448 10.9993 6 11.4473 6 11.9993V21.9993C6 22.5513 6.448 22.9993 7 22.9993C7.552 22.9993 8 22.5513 8 21.9993V11.9993C8 11.4473 7.552 10.9993 7 10.9993Z" fill="#F4BD03"/>
<path d="M10 10.9993H7C6.448 10.9993 6 11.4473 6 11.9993C6 12.5513 6.448 12.9993 7 12.9993H10C11.102 12.9993 12 13.8973 12 14.9993C12 16.1013 11.102 16.9993 10 16.9993H7C6.448 16.9993 6 17.4473 6 17.9993C6 18.5513 6.448 18.9993 7 18.9993H10C12.206 18.9993 14 17.2053 14 14.9993C14 12.7933 12.206 10.9993 10 10.9993Z" fill="#F4BD03"/>
<path d="M23 8.99927C20.242 8.99927 18 11.2433 18 13.9993C18 16.7553 20.242 18.9993 23 18.9993C25.758 18.9993 28 16.7553 28 13.9993C28 11.2433 25.758 8.99927 23 8.99927ZM23 16.9993C21.346 16.9993 20 15.6533 20 13.9993C20 12.3453 21.346 10.9993 23 10.9993C24.654 10.9993 26 12.3453 26 13.9993C26 15.6533 24.654 16.9993 23 16.9993Z" fill="#F4BD03"/>
<path d="M27 12.9993H24V9.99927C24 9.44727 23.552 8.99927 23 8.99927C22.448 8.99927 22 9.44727 22 9.99927V13.9993C22 14.5513 22.448 14.9993 23 14.9993H27C27.552 14.9993 28 14.5513 28 13.9993C28 13.4473 27.552 12.9993 27 12.9993Z" fill="#F4BD03"/>
</svg>
