<svg width="32" height="32" viewBox="0 0 32 32" fill="none" xmlns="http://www.w3.org/2000/svg">
<path d="M25.3333 4H6.66667C5.19333 4 4 5.19333 4 6.66667V25.3333C4 26.8067 5.19333 28 6.66667 28H16.828V18.7187H13.704V15.0853H16.828V12.412C16.828 9.31333 18.7227 7.624 21.488 7.624C22.42 7.62133 23.3507 7.66933 24.2773 7.764V11.004H22.3733C20.8667 11.004 20.5733 11.716 20.5733 12.7667V15.08H24.1733L23.7053 18.7133H20.552V28H25.3333C26.8067 28 28 26.8067 28 25.3333V6.66667C28 5.19333 26.8067 4 25.3333 4Z" fill="white"/>
</svg>
