<svg width="25" height="25" viewBox="0 0 25 25" fill="none" xmlns="http://www.w3.org/2000/svg">
<path d="M21.8333 0.594238H3.16667C1.69333 0.594238 0.5 1.78757 0.5 3.26091V21.9276C0.5 23.4009 1.69333 24.5942 3.16667 24.5942H13.328V15.3129H10.204V11.6796H13.328V9.00624C13.328 5.90757 15.2227 4.21824 17.988 4.21824C18.92 4.21557 19.8507 4.26357 20.7773 4.35824V7.59824H18.8733C17.3667 7.59824 17.0733 8.31024 17.0733 9.3609V11.6742H20.6733L20.2053 15.3076H17.052V24.5942H21.8333C23.3067 24.5942 24.5 23.4009 24.5 21.9276V3.26091C24.5 1.78757 23.3067 0.594238 21.8333 0.594238Z" fill="black"/>
</svg>
