<svg width="25" height="25" viewBox="0 0 25 25" fill="none" xmlns="http://www.w3.org/2000/svg">
<path d="M7.16667 0.594238C3.48533 0.594238 0.5 3.57957 0.5 7.26091V17.9276C0.5 21.6089 3.48533 24.5942 7.16667 24.5942H17.8333C21.5147 24.5942 24.5 21.6089 24.5 17.9276V7.26091C24.5 3.57957 21.5147 0.594238 17.8333 0.594238H7.16667ZM20.5 3.26091C21.236 3.26091 21.8333 3.85824 21.8333 4.59424C21.8333 5.33024 21.236 5.92757 20.5 5.92757C19.764 5.92757 19.1667 5.33024 19.1667 4.59424C19.1667 3.85824 19.764 3.26091 20.5 3.26091ZM12.5 5.92757C16.1813 5.92757 19.1667 8.91291 19.1667 12.5942C19.1667 16.2756 16.1813 19.2609 12.5 19.2609C8.81867 19.2609 5.83333 16.2756 5.83333 12.5942C5.83333 8.91291 8.81867 5.92757 12.5 5.92757ZM12.5 8.59424C11.4391 8.59424 10.4217 9.01567 9.67157 9.76581C8.92143 10.516 8.5 11.5334 8.5 12.5942C8.5 13.6551 8.92143 14.6725 9.67157 15.4227C10.4217 16.1728 11.4391 16.5942 12.5 16.5942C13.5609 16.5942 14.5783 16.1728 15.3284 15.4227C16.0786 14.6725 16.5 13.6551 16.5 12.5942C16.5 11.5334 16.0786 10.516 15.3284 9.76581C14.5783 9.01567 13.5609 8.59424 12.5 8.59424Z" fill="black"/>
</svg>
