<svg width="33" height="33" viewBox="0 0 33 33" fill="none" xmlns="http://www.w3.org/2000/svg">
<path d="M5.59091 10.0488C4.98844 10.0488 4.5 10.6153 4.5 11.3141V28.42C4.5 29.1187 4.98844 29.6852 5.59091 29.6852C6.19338 29.6852 6.68182 29.1187 6.68182 28.42V11.3141C6.68182 10.6151 6.19338 10.0488 5.59091 10.0488Z" fill="black"/>
<path d="M15.4093 23.1396C14.8068 23.1396 14.3184 23.7311 14.3184 24.4606V28.3641C14.3184 29.0936 14.8068 29.6851 15.4093 29.6851C16.0117 29.6851 16.5002 29.0936 16.5002 28.3641V24.4606C16.5002 23.7311 16.0117 23.1396 15.4093 23.1396Z" fill="black"/>
<path d="M21.4094 11.4107C19.6642 11.4107 18.0654 12.0508 16.8285 13.1087V11.3141C16.8285 10.6153 16.2666 10.0488 15.5734 10.0488C14.8803 10.0488 14.3184 10.6153 14.3184 11.3141V18.5575C14.3184 18.5577 14.3184 18.5578 14.3184 18.558C14.3184 18.5583 14.3184 18.5585 14.3184 18.559C14.3184 19.2578 14.8803 19.8242 15.5734 19.8242C16.2666 19.8242 16.8285 19.2578 16.8285 18.559C16.8285 16.0127 18.8835 13.9412 21.4094 13.9412C23.9352 13.9412 25.99 16.0127 25.99 18.559V28.42C25.99 29.1187 26.5519 29.6852 27.2451 29.6852C27.9384 29.6852 28.5002 29.1187 28.5002 28.42V18.559C28.5002 14.6174 25.3195 11.4107 21.4094 11.4107Z" fill="black"/>
<path d="M5.59091 5.68524C5.87745 5.68524 6.15964 5.56887 6.36327 5.36669C6.56545 5.16305 6.68182 4.88233 6.68182 4.59578C6.68182 4.30778 6.56545 4.02705 6.36327 3.82342C6.15964 3.62124 5.87745 3.50342 5.59091 3.50342C5.30436 3.50342 5.02364 3.62124 4.82 3.82342C4.61636 4.02705 4.5 4.30778 4.5 4.59578C4.5 4.88233 4.61636 5.16305 4.82 5.36669C5.02364 5.56887 5.30436 5.68524 5.59091 5.68524Z" fill="black"/>
</svg>
