<svg width="25" height="25" viewBox="0 0 25 25" fill="none" xmlns="http://www.w3.org/2000/svg">
<path d="M21.8333 0.594238H3.16667C1.69333 0.594238 0.5 1.78757 0.5 3.26091V21.9276C0.5 23.4009 1.69333 24.5942 3.16667 24.5942H21.8333C23.3067 24.5942 24.5 23.4009 24.5 21.9276V3.26091C24.5 1.78757 23.3067 0.594238 21.8333 0.594238ZM8.5 19.2609H5.136V9.92757H8.5V19.2609ZM6.75867 8.21691C5.73067 8.21691 5.044 7.53157 5.044 6.61691C5.044 5.70224 5.72933 5.0169 6.872 5.0169C7.9 5.0169 8.58667 5.70224 8.58667 6.61691C8.58667 7.53157 7.90133 8.21691 6.75867 8.21691ZM20.5 19.2609H17.244V14.1596C17.244 12.7489 16.376 12.4236 16.0507 12.4236C15.7253 12.4236 14.64 12.6409 14.64 14.1596C14.64 14.3769 14.64 19.2609 14.64 19.2609H11.276V9.92757H14.64V11.2302C15.0733 10.4702 15.9413 9.92757 17.5693 9.92757C19.1973 9.92757 20.5 11.2302 20.5 14.1596V19.2609Z" fill="black"/>
</svg>
