<svg width="32" height="32" viewBox="0 0 32 32" fill="none" xmlns="http://www.w3.org/2000/svg">
<path d="M8 4C5.80671 4 4 5.80671 4 8V24C4 26.1933 5.80671 28 8 28H24C26.1933 28 28 26.1933 28 24V8C28 5.80671 26.1933 4 24 4H8ZM16 9.33333H18.6667C18.6667 10.6733 20.628 12 21.3333 12V14.6667C20.5267 14.6667 19.5573 14.3122 18.6667 13.7135V18.6667C18.6667 20.872 16.872 22.6667 14.6667 22.6667C12.4613 22.6667 10.6667 20.872 10.6667 18.6667C10.6667 16.4613 12.4613 14.6667 14.6667 14.6667V17.3333C13.9307 17.3333 13.3333 17.932 13.3333 18.6667C13.3333 19.4013 13.9307 20 14.6667 20C15.4027 20 16 19.4013 16 18.6667V9.33333Z" fill="white"/>
</svg>
