<svg width="25" height="25" viewBox="0 0 25 25" fill="none" xmlns="http://www.w3.org/2000/svg">
<path d="M4.5 0.594238C2.30671 0.594238 0.5 2.40095 0.5 4.59424V20.5942C0.5 22.7875 2.30671 24.5942 4.5 24.5942H20.5C22.6933 24.5942 24.5 22.7875 24.5 20.5942V4.59424C24.5 2.40095 22.6933 0.594238 20.5 0.594238H4.5ZM12.5 5.92757H15.1667C15.1667 7.26757 17.128 8.59424 17.8333 8.59424V11.2609C17.0267 11.2609 16.0573 10.9064 15.1667 10.3078V15.2609C15.1667 17.4662 13.372 19.2609 11.1667 19.2609C8.96133 19.2609 7.16667 17.4662 7.16667 15.2609C7.16667 13.0556 8.96133 11.2609 11.1667 11.2609V13.9276C10.4307 13.9276 9.83333 14.5262 9.83333 15.2609C9.83333 15.9956 10.4307 16.5942 11.1667 16.5942C11.9027 16.5942 12.5 15.9956 12.5 15.2609V5.92757Z" fill="black"/>
</svg>
