<svg width="160" height="64" viewBox="0 0 160 64" fill="none" xmlns="http://www.w3.org/2000/svg">
<path d="M14.9417 36.7823V0H0V42.8809L21.4355 64L32 53.5914L14.9417 36.7823Z" fill="#F4BD03"/>
<path d="M34.765 39H40.75V24.44H43.97V19.47H40.75V19.295C40.75 17.23 41.555 16.53 43.865 16.67V11.595C37.915 11.28 34.765 13.8 34.765 18.91V19.47H32.595V24.44H34.765V39ZM46.7823 39H52.7673V19.47H46.7823V39ZM49.7923 17.44C51.8923 17.44 53.3273 16.005 53.3273 14.22C53.3273 12.4 51.8923 10.965 49.7923 10.965C47.6573 10.965 46.2223 12.4 46.2223 14.22C46.2223 16.005 47.6573 17.44 49.7923 17.44ZM55.2496 19.47L62.1796 39H69.5646L76.4946 19.47H70.1246L65.8896 33.4L61.6546 19.47H55.2496ZM87.6238 23.985C89.6188 23.985 91.2988 25.21 91.2988 27.345H83.8088C84.1588 25.175 85.6638 23.985 87.6238 23.985ZM96.9688 32.525H90.5988C90.1088 33.575 89.1638 34.415 87.4838 34.415C85.5588 34.415 83.9838 33.225 83.7738 30.67H97.3188C97.3888 30.075 97.4237 29.48 97.4237 28.92C97.4237 22.97 93.3988 19.19 87.6938 19.19C81.8838 19.19 77.8238 23.04 77.8238 29.235C77.8238 35.43 81.9538 39.28 87.6938 39.28C92.5588 39.28 96.0238 36.34 96.9688 32.525ZM106.566 22.235V19.47H100.581V48.31H106.566V36.27C107.651 37.915 109.716 39.28 112.586 39.28C117.381 39.28 121.196 35.36 121.196 29.2C121.196 23.04 117.381 19.19 112.586 19.19C109.716 19.19 107.651 20.52 106.566 22.235ZM115.106 29.2C115.106 32.315 113.076 34.065 110.801 34.065C108.561 34.065 106.531 32.35 106.531 29.235C106.531 26.12 108.561 24.405 110.801 24.405C113.076 24.405 115.106 26.085 115.106 29.2ZM151.251 39H157.201V27.59C157.201 22.34 154.086 19.26 149.256 19.26C146.421 19.26 143.971 20.835 142.676 22.9C141.346 20.555 138.966 19.26 136.026 19.26C133.471 19.26 131.476 20.345 130.321 21.92V19.47H124.336V39H130.321V28.395C130.321 25.84 131.791 24.44 134.066 24.44C136.341 24.44 137.811 25.84 137.811 28.395V39H143.761V28.395C143.761 25.84 145.231 24.44 147.506 24.44C149.781 24.44 151.251 25.84 151.251 28.395V39Z" fill="white"/>
</svg>
